%
M48
M72
T01C0.01378
T02C0.02362
T03C0.03150
T04C0.03200
T05C0.03600
T06C0.03937
T07C0.06500
T08C0.12600
T09C0.16142
%
T01
X81598Y81500
X106598Y91600
X99598Y107600
X104598Y115600
X109641Y132557
X109598Y139600
X125898Y122200
X126098Y109200
X147240Y115241
X158498Y122300
X169598Y131600
X187098Y138600
X191598Y139100
X207098Y139100
X208098Y129100
X205598Y113600
X205598Y108600
X217598Y113600
X212598Y96600
X209598Y93600
X213598Y75600
X205398Y71600
X222398Y71600
X232598Y75600
X232598Y95600
X238098Y110600
X236598Y114600
X247098Y129100
X244598Y138100
X264598Y114600
X249598Y99100
X264598Y75600
X273598Y76600
X285598Y77600
X301598Y77600
X312598Y73600
X308098Y93100
X323598Y100600
X333598Y100600
X343598Y100038
X353598Y99600
X334598Y137700
X344098Y149600
X360098Y156100
X354098Y168300
X368098Y170600
X374098Y142400
X324598Y157500
X313398Y146400
X291598Y155600
X292598Y172600
X294598Y184600
X311698Y200100
X311598Y212100
X310498Y219900
X327098Y219300
X332498Y223700
X343598Y246000
X364498Y228900
X387098Y242600
X390598Y210000
X384898Y196400
X327598Y191400
X293598Y206100
X270398Y220200
X241098Y206100
X235098Y220100
X224598Y206600
X211098Y218100
X203698Y202800
X198698Y196700
X193598Y186600
X192098Y176600
X188598Y170600
X199598Y175600
X207598Y172600
X206598Y167600
X215598Y176600
X228098Y168100
X231098Y173100
X228098Y189600
X248598Y175600
X255598Y175600
X274598Y175600
X279598Y137600
X288598Y138100
X291098Y129100
X293598Y122600
X288598Y114600
X308598Y114600
X211098Y152100
X194598Y155600
X171598Y114600
X179298Y102000
X181598Y89600
X185598Y75600
X174787Y75600
X147598Y75600
X128598Y73600
X128598Y77600
X60598Y123600
X62598Y157600
X69598Y164600
X95598Y193600
X102598Y187600
X120598Y211600
X102598Y218600
X77998Y218000
X70598Y239600
X33298Y218100
X25098Y185000
X28598Y169600
X19598Y165600
X22598Y156600
X28598Y148600
X14598Y123600
X22598Y113600
X49598Y87600
X183598Y217600
X182598Y221600
X190598Y231600
X196598Y235600
X202598Y239600
X209598Y243600
X168598Y241600
X182598Y294300
X187498Y294300
X192398Y294255
X196898Y294200
X210498Y308500
X213598Y300600
X154498Y294900
X131598Y298600
X114598Y324600
X121598Y328600
X113598Y335600
X102598Y323600
X369598Y289600
T02
X143498Y196000
T03
X110598Y196600
X110598Y206600
X110598Y186600
T04
X83598Y250100
X73598Y255100
X73598Y265100
X83598Y260100
X83598Y270100
X73598Y275100
X73598Y285100
X83598Y280100
X29298Y283600
X29298Y293600
X29298Y251600
X29298Y241600
T05
X229693Y291876
X229693Y301876
X239693Y301876
X239693Y291876
X249693Y291876
X249693Y301876
X259693Y301876
X259693Y291876
X269693Y291876
X269693Y301876
X312370Y301876
X312370Y291876
X322370Y291876
X322370Y301876
X332370Y301876
X332370Y291876
X342370Y291876
X342370Y301876
X352370Y301876
X352370Y291876
T06
X33157Y52781
X46937Y52781
X60717Y52781
X74496Y52781
X88276Y52781
X119772Y52781
X133551Y52781
X147331Y52781
X161110Y52781
X174890Y52781
X188669Y52781
X202449Y52781
X216228Y52781
X230008Y52781
X243787Y52781
X257567Y52781
X271346Y52781
X285126Y52781
X298906Y52781
X312685Y52781
X326465Y52781
X340244Y52781
X354024Y52781
X367803Y52781
X381583Y52781
X369598Y162600
X359598Y162600
X349598Y162600
X339598Y162600
X329598Y162600
X319598Y162600
X309598Y162600
X299598Y162600
X289598Y162600
X279598Y162600
X269598Y162600
X259598Y162600
X249598Y162600
X239598Y162600
X229598Y162600
X219598Y162600
X209598Y162600
X199598Y162600
X189598Y162600
X179598Y162600
X169598Y162600
X159598Y162600
X149598Y162600
X139598Y162600
X129598Y162600
X119598Y162600
X109598Y162600
X109598Y252600
X119598Y252600
X129598Y252600
X139598Y252600
X149598Y252600
X159598Y252600
X169598Y252600
X179598Y252600
X189598Y252600
X199598Y252600
X209598Y252600
X219598Y252600
X229598Y252600
X239598Y252600
X249598Y252600
X259598Y252600
X269598Y252600
X279598Y252600
X289598Y252600
X299598Y252600
X309598Y252600
X319598Y252600
X329598Y252600
X339598Y252600
X349598Y252600
X359598Y252600
X369598Y252600
X369598Y226300
X359598Y226300
X359598Y216300
X369598Y216300
X369598Y206300
X359598Y206300
X359598Y196300
X369598Y196300
X369598Y186300
X359598Y186300
X359598Y176300
X369598Y176300
X349598Y176300
X339598Y176300
X349598Y186300
X349598Y196300
X349598Y206300
X349598Y216300
X349598Y226300
X354024Y344120
X367803Y344120
X381583Y344120
X340244Y344120
X326465Y344120
X312685Y344120
X298906Y344120
X285126Y344120
X271346Y344120
X257567Y344120
X243787Y344120
X230008Y344120
X216228Y344120
X202449Y344120
X188669Y344120
X174890Y344120
X161110Y344120
X147331Y344120
X133551Y344120
X119772Y344120
X88276Y344120
X74496Y344120
X60717Y344120
X46937Y344120
X33157Y344120
T07
X61098Y299100
X61098Y236100
T08
X48598Y245100
X48598Y290100
T09
X21346Y316561
X21346Y80340
X383551Y80340
X383551Y316561
M30
