G75*
%MOIN*%
%OFA0B0*%
%FSLAX25Y25*%
%IPPOS*%
%LPD*%
%AMOC8*
5,1,8,0,0,1.08239X$1,22.5*
%
%ADD10C,0.01100*%
%ADD11C,0.00600*%
%ADD12C,0.00800*%
%ADD13C,0.01200*%
%ADD14C,0.00500*%
%ADD15C,0.00200*%
%ADD16C,0.00400*%
%ADD17C,0.00100*%
%ADD18C,0.00000*%
%ADD19C,0.00300*%
%ADD20R,0.02657X0.09646*%
D10*
X0031228Y0012118D02*
X0035164Y0012118D01*
X0033196Y0010150D02*
X0033196Y0014087D01*
X0034180Y0016595D02*
X0030243Y0016595D01*
X0034180Y0016595D02*
X0036148Y0018564D01*
X0034180Y0020532D01*
X0030243Y0020532D01*
X0030243Y0023041D02*
X0030243Y0025009D01*
X0030243Y0024025D02*
X0036148Y0024025D01*
X0036148Y0023041D02*
X0036148Y0025009D01*
X0036148Y0027338D02*
X0030243Y0027338D01*
X0036148Y0031275D01*
X0030243Y0031275D01*
X0043843Y0030994D02*
X0043843Y0028041D01*
X0049748Y0028041D01*
X0049748Y0030994D01*
X0048764Y0031978D01*
X0044828Y0031978D01*
X0043843Y0030994D01*
X0043843Y0025532D02*
X0049748Y0025532D01*
X0043843Y0021595D01*
X0049748Y0021595D01*
X0048764Y0019087D02*
X0046796Y0019087D01*
X0046796Y0017118D01*
X0044828Y0015150D02*
X0048764Y0015150D01*
X0049748Y0016134D01*
X0049748Y0018103D01*
X0048764Y0019087D01*
X0044828Y0019087D02*
X0043843Y0018103D01*
X0043843Y0016134D01*
X0044828Y0015150D01*
X0058128Y0016718D02*
X0062064Y0016718D01*
X0060096Y0014750D02*
X0060096Y0018687D01*
X0060096Y0021195D02*
X0059112Y0023164D01*
X0059112Y0024148D01*
X0060096Y0025132D01*
X0062064Y0025132D01*
X0063048Y0024148D01*
X0063048Y0022180D01*
X0062064Y0021195D01*
X0060096Y0021195D02*
X0057143Y0021195D01*
X0057143Y0025132D01*
X0057143Y0027641D02*
X0061080Y0027641D01*
X0063048Y0029609D01*
X0061080Y0031578D01*
X0057143Y0031578D01*
X0072243Y0031439D02*
X0073228Y0032423D01*
X0074212Y0032423D01*
X0075196Y0031439D01*
X0076180Y0032423D01*
X0077164Y0032423D01*
X0078148Y0031439D01*
X0078148Y0029471D01*
X0077164Y0028486D01*
X0076180Y0025978D02*
X0072243Y0025978D01*
X0073228Y0028486D02*
X0072243Y0029471D01*
X0072243Y0031439D01*
X0075196Y0031439D02*
X0075196Y0030455D01*
X0076180Y0025978D02*
X0078148Y0024009D01*
X0076180Y0022041D01*
X0072243Y0022041D01*
X0073228Y0019532D02*
X0072243Y0018548D01*
X0072243Y0016580D01*
X0073228Y0015595D01*
X0075196Y0017564D02*
X0075196Y0018548D01*
X0076180Y0019532D01*
X0077164Y0019532D01*
X0078148Y0018548D01*
X0078148Y0016580D01*
X0077164Y0015595D01*
X0075196Y0013087D02*
X0075196Y0009150D01*
X0073228Y0011118D02*
X0077164Y0011118D01*
X0075196Y0018548D02*
X0074212Y0019532D01*
X0073228Y0019532D01*
X0085243Y0018103D02*
X0085243Y0016134D01*
X0086228Y0015150D01*
X0090164Y0015150D01*
X0091148Y0016134D01*
X0091148Y0018103D01*
X0090164Y0019087D01*
X0088196Y0019087D01*
X0088196Y0017118D01*
X0086228Y0019087D02*
X0085243Y0018103D01*
X0085243Y0021595D02*
X0091148Y0025532D01*
X0085243Y0025532D01*
X0085243Y0028041D02*
X0085243Y0030994D01*
X0086228Y0031978D01*
X0090164Y0031978D01*
X0091148Y0030994D01*
X0091148Y0028041D01*
X0085243Y0028041D01*
X0085243Y0021595D02*
X0091148Y0021595D01*
X0116743Y0022141D02*
X0122648Y0026078D01*
X0116743Y0026078D01*
X0116743Y0028586D02*
X0116743Y0031539D01*
X0117728Y0032523D01*
X0121664Y0032523D01*
X0122648Y0031539D01*
X0122648Y0028586D01*
X0116743Y0028586D01*
X0116743Y0022141D02*
X0122648Y0022141D01*
X0121664Y0019632D02*
X0119696Y0019632D01*
X0119696Y0017664D01*
X0121664Y0019632D02*
X0122648Y0018648D01*
X0122648Y0016680D01*
X0121664Y0015695D01*
X0117728Y0015695D01*
X0116743Y0016680D01*
X0116743Y0018648D01*
X0117728Y0019632D01*
X0117728Y0013187D02*
X0116743Y0012203D01*
X0116743Y0010234D01*
X0117728Y0009250D01*
X0118712Y0009250D01*
X0119696Y0010234D01*
X0119696Y0012203D01*
X0120680Y0013187D01*
X0121664Y0013187D01*
X0122648Y0012203D01*
X0122648Y0010234D01*
X0121664Y0009250D01*
X0130343Y0010634D02*
X0131328Y0009650D01*
X0132312Y0009650D01*
X0133296Y0010634D01*
X0133296Y0012603D01*
X0134280Y0013587D01*
X0135264Y0013587D01*
X0136248Y0012603D01*
X0136248Y0010634D01*
X0135264Y0009650D01*
X0130343Y0010634D02*
X0130343Y0012603D01*
X0131328Y0013587D01*
X0131328Y0016095D02*
X0135264Y0016095D01*
X0136248Y0017080D01*
X0136248Y0019048D01*
X0135264Y0020032D01*
X0131328Y0020032D01*
X0130343Y0019048D01*
X0130343Y0017080D01*
X0131328Y0016095D01*
X0130343Y0022541D02*
X0135264Y0022541D01*
X0136248Y0023525D01*
X0136248Y0025494D01*
X0135264Y0026478D01*
X0130343Y0026478D01*
X0130343Y0028986D02*
X0130343Y0032923D01*
X0130343Y0030955D02*
X0136248Y0030955D01*
X0144043Y0031629D02*
X0149948Y0031629D01*
X0144043Y0027692D01*
X0149948Y0027692D01*
X0149948Y0025364D02*
X0149948Y0023395D01*
X0149948Y0024380D02*
X0144043Y0024380D01*
X0144043Y0025364D02*
X0144043Y0023395D01*
X0145028Y0020887D02*
X0144043Y0019903D01*
X0144043Y0017934D01*
X0145028Y0016950D01*
X0146012Y0016950D01*
X0146996Y0017934D01*
X0146996Y0019903D01*
X0147980Y0020887D01*
X0148964Y0020887D01*
X0149948Y0019903D01*
X0149948Y0017934D01*
X0148964Y0016950D01*
X0157843Y0017903D02*
X0157843Y0014950D01*
X0163748Y0014950D01*
X0161780Y0014950D02*
X0161780Y0017903D01*
X0160796Y0018887D01*
X0158828Y0018887D01*
X0157843Y0017903D01*
X0158828Y0021395D02*
X0159812Y0021395D01*
X0160796Y0022380D01*
X0160796Y0024348D01*
X0161780Y0025332D01*
X0162764Y0025332D01*
X0163748Y0024348D01*
X0163748Y0022380D01*
X0162764Y0021395D01*
X0163748Y0018887D02*
X0161780Y0016918D01*
X0158828Y0021395D02*
X0157843Y0022380D01*
X0157843Y0024348D01*
X0158828Y0025332D01*
X0157843Y0027841D02*
X0157843Y0030794D01*
X0158828Y0031778D01*
X0159812Y0031778D01*
X0160796Y0030794D01*
X0160796Y0027841D01*
X0163748Y0027841D02*
X0157843Y0027841D01*
X0160796Y0030794D02*
X0161780Y0031778D01*
X0162764Y0031778D01*
X0163748Y0030794D01*
X0163748Y0027841D01*
X0171343Y0029809D02*
X0173312Y0031778D01*
X0177248Y0031778D01*
X0174296Y0031778D02*
X0174296Y0027841D01*
X0173312Y0027841D02*
X0171343Y0029809D01*
X0173312Y0027841D02*
X0177248Y0027841D01*
X0176264Y0025332D02*
X0177248Y0024348D01*
X0177248Y0022380D01*
X0176264Y0021395D01*
X0174296Y0022380D02*
X0174296Y0024348D01*
X0175280Y0025332D01*
X0176264Y0025332D01*
X0174296Y0022380D02*
X0173312Y0021395D01*
X0172328Y0021395D01*
X0171343Y0022380D01*
X0171343Y0024348D01*
X0172328Y0025332D01*
X0172328Y0018887D02*
X0174296Y0018887D01*
X0175280Y0017903D01*
X0175280Y0014950D01*
X0175280Y0016918D02*
X0177248Y0018887D01*
X0177248Y0014950D02*
X0171343Y0014950D01*
X0171343Y0017903D01*
X0172328Y0018887D01*
X0185443Y0017703D02*
X0185443Y0015734D01*
X0186428Y0014750D01*
X0190364Y0014750D01*
X0191348Y0015734D01*
X0191348Y0017703D01*
X0190364Y0018687D01*
X0188396Y0018687D01*
X0188396Y0016718D01*
X0186428Y0018687D02*
X0185443Y0017703D01*
X0185443Y0021195D02*
X0191348Y0025132D01*
X0185443Y0025132D01*
X0185443Y0027641D02*
X0185443Y0030594D01*
X0186428Y0031578D01*
X0190364Y0031578D01*
X0191348Y0030594D01*
X0191348Y0027641D01*
X0185443Y0027641D01*
X0185443Y0021195D02*
X0191348Y0021195D01*
X0198743Y0021892D02*
X0204648Y0025829D01*
X0198743Y0025829D01*
X0199728Y0028338D02*
X0200712Y0028338D01*
X0201696Y0029322D01*
X0201696Y0031291D01*
X0202680Y0032275D01*
X0203664Y0032275D01*
X0204648Y0031291D01*
X0204648Y0029322D01*
X0203664Y0028338D01*
X0202680Y0028338D01*
X0201696Y0029322D01*
X0201696Y0031291D02*
X0200712Y0032275D01*
X0199728Y0032275D01*
X0198743Y0031291D01*
X0198743Y0029322D01*
X0199728Y0028338D01*
X0198743Y0021892D02*
X0204648Y0021892D01*
X0204648Y0019564D02*
X0204648Y0017595D01*
X0204648Y0018580D02*
X0198743Y0018580D01*
X0198743Y0019564D02*
X0198743Y0017595D01*
X0199728Y0015087D02*
X0198743Y0014103D01*
X0198743Y0011150D01*
X0204648Y0011150D01*
X0204648Y0014103D01*
X0203664Y0015087D01*
X0199728Y0015087D01*
X0212143Y0014003D02*
X0212143Y0011050D01*
X0218048Y0011050D01*
X0218048Y0014003D01*
X0217064Y0014987D01*
X0213128Y0014987D01*
X0212143Y0014003D01*
X0212143Y0017495D02*
X0212143Y0019464D01*
X0212143Y0018480D02*
X0218048Y0018480D01*
X0218048Y0019464D02*
X0218048Y0017495D01*
X0218048Y0021792D02*
X0212143Y0021792D01*
X0218048Y0025729D01*
X0212143Y0025729D01*
X0212143Y0028238D02*
X0212143Y0032175D01*
X0213128Y0032175D01*
X0217064Y0028238D01*
X0218048Y0028238D01*
X0225443Y0025329D02*
X0231348Y0025329D01*
X0225443Y0021392D01*
X0231348Y0021392D01*
X0231348Y0019064D02*
X0231348Y0017095D01*
X0231348Y0018080D02*
X0225443Y0018080D01*
X0225443Y0019064D02*
X0225443Y0017095D01*
X0226428Y0014587D02*
X0225443Y0013603D01*
X0225443Y0010650D01*
X0231348Y0010650D01*
X0231348Y0013603D01*
X0230364Y0014587D01*
X0226428Y0014587D01*
X0239643Y0013803D02*
X0239643Y0010850D01*
X0245548Y0010850D01*
X0245548Y0013803D01*
X0244564Y0014787D01*
X0240628Y0014787D01*
X0239643Y0013803D01*
X0239643Y0017295D02*
X0239643Y0019264D01*
X0239643Y0018280D02*
X0245548Y0018280D01*
X0245548Y0019264D02*
X0245548Y0017295D01*
X0245548Y0021592D02*
X0239643Y0021592D01*
X0245548Y0025529D01*
X0239643Y0025529D01*
X0239643Y0028038D02*
X0242596Y0028038D01*
X0241612Y0030006D01*
X0241612Y0030991D01*
X0242596Y0031975D01*
X0244564Y0031975D01*
X0245548Y0030991D01*
X0245548Y0029022D01*
X0244564Y0028038D01*
X0239643Y0028038D02*
X0239643Y0031975D01*
X0231348Y0030791D02*
X0230364Y0031775D01*
X0229380Y0031775D01*
X0228396Y0030791D01*
X0228396Y0027838D01*
X0230364Y0027838D01*
X0231348Y0028822D01*
X0231348Y0030791D01*
X0228396Y0027838D02*
X0226428Y0029806D01*
X0225443Y0031775D01*
X0254843Y0030991D02*
X0257796Y0028038D01*
X0257796Y0031975D01*
X0260748Y0030991D02*
X0254843Y0030991D01*
X0254843Y0025529D02*
X0260748Y0025529D01*
X0254843Y0021592D01*
X0260748Y0021592D01*
X0260748Y0019264D02*
X0260748Y0017295D01*
X0260748Y0018280D02*
X0254843Y0018280D01*
X0254843Y0019264D02*
X0254843Y0017295D01*
X0255828Y0014787D02*
X0254843Y0013803D01*
X0254843Y0010850D01*
X0260748Y0010850D01*
X0260748Y0013803D01*
X0259764Y0014787D01*
X0255828Y0014787D01*
X0268343Y0014003D02*
X0268343Y0011050D01*
X0274248Y0011050D01*
X0274248Y0014003D01*
X0273264Y0014987D01*
X0269328Y0014987D01*
X0268343Y0014003D01*
X0268343Y0017495D02*
X0268343Y0019464D01*
X0268343Y0018480D02*
X0274248Y0018480D01*
X0274248Y0019464D02*
X0274248Y0017495D01*
X0274248Y0021792D02*
X0268343Y0021792D01*
X0274248Y0025729D01*
X0268343Y0025729D01*
X0269328Y0028238D02*
X0268343Y0029222D01*
X0268343Y0031191D01*
X0269328Y0032175D01*
X0270312Y0032175D01*
X0271296Y0031191D01*
X0272280Y0032175D01*
X0273264Y0032175D01*
X0274248Y0031191D01*
X0274248Y0029222D01*
X0273264Y0028238D01*
X0271296Y0030206D02*
X0271296Y0031191D01*
X0283043Y0030691D02*
X0283043Y0028722D01*
X0284028Y0027738D01*
X0283043Y0025229D02*
X0288948Y0025229D01*
X0283043Y0021292D01*
X0288948Y0021292D01*
X0288948Y0018964D02*
X0288948Y0016995D01*
X0288948Y0017980D02*
X0283043Y0017980D01*
X0283043Y0018964D02*
X0283043Y0016995D01*
X0284028Y0014487D02*
X0283043Y0013503D01*
X0283043Y0010550D01*
X0288948Y0010550D01*
X0288948Y0013503D01*
X0287964Y0014487D01*
X0284028Y0014487D01*
X0296243Y0014103D02*
X0296243Y0011150D01*
X0302148Y0011150D01*
X0302148Y0014103D01*
X0301164Y0015087D01*
X0297228Y0015087D01*
X0296243Y0014103D01*
X0296243Y0017595D02*
X0296243Y0019564D01*
X0296243Y0018580D02*
X0302148Y0018580D01*
X0302148Y0019564D02*
X0302148Y0017595D01*
X0302148Y0021892D02*
X0296243Y0021892D01*
X0302148Y0025829D01*
X0296243Y0025829D01*
X0298212Y0028338D02*
X0296243Y0030306D01*
X0302148Y0030306D01*
X0302148Y0028338D02*
X0302148Y0032275D01*
X0310643Y0030794D02*
X0310643Y0027841D01*
X0316548Y0027841D01*
X0316548Y0030794D01*
X0315564Y0031778D01*
X0311628Y0031778D01*
X0310643Y0030794D01*
X0310643Y0025332D02*
X0316548Y0025332D01*
X0310643Y0021395D01*
X0316548Y0021395D01*
X0315564Y0018887D02*
X0313596Y0018887D01*
X0313596Y0016918D01*
X0311628Y0014950D02*
X0315564Y0014950D01*
X0316548Y0015934D01*
X0316548Y0017903D01*
X0315564Y0018887D01*
X0311628Y0018887D02*
X0310643Y0017903D01*
X0310643Y0015934D01*
X0311628Y0014950D01*
X0324543Y0013118D02*
X0326512Y0015087D01*
X0330448Y0015087D01*
X0330448Y0017595D02*
X0330448Y0019564D01*
X0330448Y0018580D02*
X0324543Y0018580D01*
X0324543Y0019564D02*
X0324543Y0017595D01*
X0327496Y0015087D02*
X0327496Y0011150D01*
X0326512Y0011150D02*
X0324543Y0013118D01*
X0326512Y0011150D02*
X0330448Y0011150D01*
X0337143Y0012618D02*
X0339112Y0014587D01*
X0343048Y0014587D01*
X0343048Y0017095D02*
X0343048Y0019064D01*
X0343048Y0018080D02*
X0337143Y0018080D01*
X0337143Y0019064D02*
X0337143Y0017095D01*
X0340096Y0014587D02*
X0340096Y0010650D01*
X0339112Y0010650D02*
X0337143Y0012618D01*
X0339112Y0010650D02*
X0343048Y0010650D01*
X0350343Y0012718D02*
X0352312Y0010750D01*
X0356248Y0010750D01*
X0353296Y0010750D02*
X0353296Y0014687D01*
X0352312Y0014687D02*
X0356248Y0014687D01*
X0356248Y0017195D02*
X0356248Y0019164D01*
X0356248Y0018180D02*
X0350343Y0018180D01*
X0350343Y0019164D02*
X0350343Y0017195D01*
X0352312Y0014687D02*
X0350343Y0012718D01*
X0350343Y0021492D02*
X0356248Y0025429D01*
X0350343Y0025429D01*
X0351328Y0027938D02*
X0350343Y0028922D01*
X0350343Y0030891D01*
X0351328Y0031875D01*
X0352312Y0031875D01*
X0356248Y0027938D01*
X0356248Y0031875D01*
X0364543Y0030506D02*
X0370448Y0030506D01*
X0370448Y0028538D02*
X0370448Y0032475D01*
X0366512Y0028538D02*
X0364543Y0030506D01*
X0364543Y0026029D02*
X0370448Y0026029D01*
X0364543Y0022092D01*
X0370448Y0022092D01*
X0370448Y0019764D02*
X0370448Y0017795D01*
X0370448Y0018780D02*
X0364543Y0018780D01*
X0364543Y0019764D02*
X0364543Y0017795D01*
X0366512Y0015287D02*
X0364543Y0013318D01*
X0366512Y0011350D01*
X0370448Y0011350D01*
X0367496Y0011350D02*
X0367496Y0015287D01*
X0366512Y0015287D02*
X0370448Y0015287D01*
X0377843Y0015634D02*
X0377843Y0017603D01*
X0378828Y0018587D01*
X0380796Y0018587D02*
X0380796Y0016618D01*
X0380796Y0018587D02*
X0382764Y0018587D01*
X0383748Y0017603D01*
X0383748Y0015634D01*
X0382764Y0014650D01*
X0378828Y0014650D01*
X0377843Y0015634D01*
X0377843Y0021095D02*
X0383748Y0025032D01*
X0377843Y0025032D01*
X0377843Y0027541D02*
X0377843Y0030494D01*
X0378828Y0031478D01*
X0382764Y0031478D01*
X0383748Y0030494D01*
X0383748Y0027541D01*
X0377843Y0027541D01*
X0377843Y0021095D02*
X0383748Y0021095D01*
X0356248Y0021492D02*
X0350343Y0021492D01*
X0343048Y0021392D02*
X0337143Y0021392D01*
X0343048Y0025329D01*
X0337143Y0025329D01*
X0338128Y0027838D02*
X0337143Y0028822D01*
X0337143Y0030791D01*
X0338128Y0031775D01*
X0339112Y0031775D01*
X0340096Y0030791D01*
X0341080Y0031775D01*
X0342064Y0031775D01*
X0343048Y0030791D01*
X0343048Y0028822D01*
X0342064Y0027838D01*
X0340096Y0029806D02*
X0340096Y0030791D01*
X0330448Y0031291D02*
X0324543Y0031291D01*
X0327496Y0028338D01*
X0327496Y0032275D01*
X0330448Y0025829D02*
X0324543Y0025829D01*
X0324543Y0021892D02*
X0330448Y0025829D01*
X0330448Y0021892D02*
X0324543Y0021892D01*
X0288948Y0027738D02*
X0285012Y0031675D01*
X0284028Y0031675D01*
X0283043Y0030691D01*
X0288948Y0031675D02*
X0288948Y0027738D01*
X0046345Y0314482D02*
X0046345Y0320387D01*
X0049298Y0320387D01*
X0050282Y0319403D01*
X0050282Y0317434D01*
X0049298Y0316450D01*
X0046345Y0316450D01*
X0044017Y0316450D02*
X0042048Y0316450D01*
X0043033Y0316450D02*
X0043033Y0322355D01*
X0042048Y0322355D01*
X0052791Y0319403D02*
X0052791Y0317434D01*
X0053775Y0316450D01*
X0056728Y0316450D01*
X0059236Y0317434D02*
X0060221Y0316450D01*
X0062189Y0316450D01*
X0063173Y0317434D01*
X0065682Y0316450D02*
X0065682Y0322355D01*
X0069619Y0316450D01*
X0069619Y0322355D01*
X0072127Y0321371D02*
X0072127Y0317434D01*
X0073112Y0316450D01*
X0075080Y0316450D01*
X0076064Y0317434D01*
X0076064Y0321371D02*
X0075080Y0322355D01*
X0073112Y0322355D01*
X0072127Y0321371D01*
X0063173Y0321371D02*
X0062189Y0322355D01*
X0060221Y0322355D01*
X0059236Y0321371D01*
X0059236Y0317434D01*
X0056728Y0320387D02*
X0053775Y0320387D01*
X0052791Y0319403D01*
X0060296Y0364750D02*
X0060296Y0368687D01*
X0060296Y0371195D02*
X0059312Y0373164D01*
X0059312Y0374148D01*
X0060296Y0375132D01*
X0062264Y0375132D01*
X0063248Y0374148D01*
X0063248Y0372180D01*
X0062264Y0371195D01*
X0060296Y0371195D02*
X0057343Y0371195D01*
X0057343Y0375132D01*
X0057343Y0377641D02*
X0061280Y0377641D01*
X0063248Y0379609D01*
X0061280Y0381578D01*
X0057343Y0381578D01*
X0047848Y0381594D02*
X0046864Y0382578D01*
X0042928Y0382578D01*
X0041943Y0381594D01*
X0041943Y0378641D01*
X0047848Y0378641D01*
X0047848Y0381594D01*
X0047848Y0376132D02*
X0041943Y0376132D01*
X0041943Y0372195D02*
X0047848Y0376132D01*
X0047848Y0372195D02*
X0041943Y0372195D01*
X0042928Y0369687D02*
X0041943Y0368703D01*
X0041943Y0366734D01*
X0042928Y0365750D01*
X0046864Y0365750D01*
X0047848Y0366734D01*
X0047848Y0368703D01*
X0046864Y0369687D01*
X0044896Y0369687D01*
X0044896Y0367718D01*
X0034864Y0367318D02*
X0030928Y0367318D01*
X0032896Y0365350D02*
X0032896Y0369287D01*
X0033880Y0371795D02*
X0029943Y0371795D01*
X0033880Y0371795D02*
X0035848Y0373764D01*
X0033880Y0375732D01*
X0029943Y0375732D01*
X0029943Y0378241D02*
X0029943Y0380209D01*
X0029943Y0379225D02*
X0035848Y0379225D01*
X0035848Y0378241D02*
X0035848Y0380209D01*
X0035848Y0382538D02*
X0029943Y0382538D01*
X0035848Y0386475D01*
X0029943Y0386475D01*
X0058328Y0366718D02*
X0062264Y0366718D01*
X0072343Y0371980D02*
X0072343Y0373948D01*
X0073328Y0374932D01*
X0074312Y0374932D01*
X0075296Y0373948D01*
X0076280Y0374932D01*
X0077264Y0374932D01*
X0078248Y0373948D01*
X0078248Y0371980D01*
X0077264Y0370995D01*
X0075296Y0372964D02*
X0075296Y0373948D01*
X0073328Y0370995D02*
X0072343Y0371980D01*
X0075296Y0368487D02*
X0075296Y0364550D01*
X0073328Y0366518D02*
X0077264Y0366518D01*
X0085143Y0366534D02*
X0086128Y0365550D01*
X0090064Y0365550D01*
X0091048Y0366534D01*
X0091048Y0368503D01*
X0090064Y0369487D01*
X0088096Y0369487D01*
X0088096Y0367518D01*
X0086128Y0369487D02*
X0085143Y0368503D01*
X0085143Y0366534D01*
X0085143Y0371995D02*
X0091048Y0375932D01*
X0085143Y0375932D01*
X0085143Y0378441D02*
X0085143Y0381394D01*
X0086128Y0382378D01*
X0090064Y0382378D01*
X0091048Y0381394D01*
X0091048Y0378441D01*
X0085143Y0378441D01*
X0085143Y0371995D02*
X0091048Y0371995D01*
X0078248Y0379409D02*
X0076280Y0381378D01*
X0072343Y0381378D01*
X0073328Y0383886D02*
X0072343Y0384871D01*
X0072343Y0386839D01*
X0073328Y0387823D01*
X0074312Y0387823D01*
X0075296Y0386839D01*
X0076280Y0387823D01*
X0077264Y0387823D01*
X0078248Y0386839D01*
X0078248Y0384871D01*
X0077264Y0383886D01*
X0075296Y0385855D02*
X0075296Y0386839D01*
X0078248Y0379409D02*
X0076280Y0377441D01*
X0072343Y0377441D01*
X0117543Y0378041D02*
X0117543Y0380994D01*
X0118528Y0381978D01*
X0122464Y0381978D01*
X0123448Y0380994D01*
X0123448Y0378041D01*
X0117543Y0378041D01*
X0117543Y0375532D02*
X0123448Y0375532D01*
X0117543Y0371595D01*
X0123448Y0371595D01*
X0122464Y0369087D02*
X0120496Y0369087D01*
X0120496Y0367118D01*
X0118528Y0365150D02*
X0122464Y0365150D01*
X0123448Y0366134D01*
X0123448Y0368103D01*
X0122464Y0369087D01*
X0118528Y0369087D02*
X0117543Y0368103D01*
X0117543Y0366134D01*
X0118528Y0365150D01*
X0130743Y0365550D02*
X0130743Y0368503D01*
X0131728Y0369487D01*
X0135664Y0369487D01*
X0136648Y0368503D01*
X0136648Y0365550D01*
X0130743Y0365550D01*
X0131728Y0371995D02*
X0135664Y0371995D01*
X0136648Y0372980D01*
X0136648Y0374948D01*
X0135664Y0375932D01*
X0131728Y0375932D01*
X0130743Y0374948D01*
X0130743Y0372980D01*
X0131728Y0371995D01*
X0132712Y0378441D02*
X0130743Y0380409D01*
X0136648Y0380409D01*
X0136648Y0378441D02*
X0136648Y0382378D01*
X0144743Y0380794D02*
X0144743Y0378825D01*
X0145728Y0377841D01*
X0145728Y0375332D02*
X0144743Y0374348D01*
X0144743Y0372380D01*
X0145728Y0371395D01*
X0149664Y0371395D01*
X0150648Y0372380D01*
X0150648Y0374348D01*
X0149664Y0375332D01*
X0145728Y0375332D01*
X0150648Y0377841D02*
X0146712Y0381778D01*
X0145728Y0381778D01*
X0144743Y0380794D01*
X0150648Y0381778D02*
X0150648Y0377841D01*
X0158343Y0378825D02*
X0159328Y0377841D01*
X0158343Y0378825D02*
X0158343Y0380794D01*
X0159328Y0381778D01*
X0160312Y0381778D01*
X0161296Y0380794D01*
X0162280Y0381778D01*
X0163264Y0381778D01*
X0164248Y0380794D01*
X0164248Y0378825D01*
X0163264Y0377841D01*
X0163264Y0375332D02*
X0159328Y0375332D01*
X0158343Y0374348D01*
X0158343Y0372380D01*
X0159328Y0371395D01*
X0163264Y0371395D01*
X0164248Y0372380D01*
X0164248Y0374348D01*
X0163264Y0375332D01*
X0161296Y0379809D02*
X0161296Y0380794D01*
X0172343Y0380994D02*
X0175296Y0378041D01*
X0175296Y0381978D01*
X0178248Y0380994D02*
X0172343Y0380994D01*
X0173328Y0375532D02*
X0172343Y0374548D01*
X0172343Y0372580D01*
X0173328Y0371595D01*
X0177264Y0371595D01*
X0178248Y0372580D01*
X0178248Y0374548D01*
X0177264Y0375532D01*
X0173328Y0375532D01*
X0173328Y0369087D02*
X0172343Y0368103D01*
X0172343Y0365150D01*
X0178248Y0365150D01*
X0178248Y0368103D01*
X0177264Y0369087D01*
X0173328Y0369087D01*
X0164248Y0367903D02*
X0164248Y0364950D01*
X0158343Y0364950D01*
X0158343Y0367903D01*
X0159328Y0368887D01*
X0163264Y0368887D01*
X0164248Y0367903D01*
X0150648Y0367903D02*
X0150648Y0364950D01*
X0144743Y0364950D01*
X0144743Y0367903D01*
X0145728Y0368887D01*
X0149664Y0368887D01*
X0150648Y0367903D01*
X0185343Y0367903D02*
X0185343Y0364950D01*
X0191248Y0364950D01*
X0191248Y0367903D01*
X0190264Y0368887D01*
X0186328Y0368887D01*
X0185343Y0367903D01*
X0186328Y0371395D02*
X0190264Y0371395D01*
X0191248Y0372380D01*
X0191248Y0374348D01*
X0190264Y0375332D01*
X0186328Y0375332D01*
X0185343Y0374348D01*
X0185343Y0372380D01*
X0186328Y0371395D01*
X0185343Y0377841D02*
X0188296Y0377841D01*
X0187312Y0379809D01*
X0187312Y0380794D01*
X0188296Y0381778D01*
X0190264Y0381778D01*
X0191248Y0380794D01*
X0191248Y0378825D01*
X0190264Y0377841D01*
X0185343Y0377841D02*
X0185343Y0381778D01*
X0199343Y0381178D02*
X0200328Y0379209D01*
X0202296Y0377241D01*
X0202296Y0380194D01*
X0203280Y0381178D01*
X0204264Y0381178D01*
X0205248Y0380194D01*
X0205248Y0378225D01*
X0204264Y0377241D01*
X0202296Y0377241D01*
X0204264Y0374732D02*
X0200328Y0374732D01*
X0199343Y0373748D01*
X0199343Y0371780D01*
X0200328Y0370795D01*
X0204264Y0370795D01*
X0205248Y0371780D01*
X0205248Y0373748D01*
X0204264Y0374732D01*
X0204264Y0368287D02*
X0200328Y0368287D01*
X0199343Y0367303D01*
X0199343Y0364350D01*
X0205248Y0364350D01*
X0205248Y0367303D01*
X0204264Y0368287D01*
X0213543Y0367703D02*
X0213543Y0364750D01*
X0219448Y0364750D01*
X0219448Y0367703D01*
X0218464Y0368687D01*
X0214528Y0368687D01*
X0213543Y0367703D01*
X0214528Y0371195D02*
X0218464Y0371195D01*
X0219448Y0372180D01*
X0219448Y0374148D01*
X0218464Y0375132D01*
X0214528Y0375132D01*
X0213543Y0374148D01*
X0213543Y0372180D01*
X0214528Y0371195D01*
X0213543Y0377641D02*
X0213543Y0381578D01*
X0214528Y0381578D01*
X0218464Y0377641D01*
X0219448Y0377641D01*
X0226143Y0377641D02*
X0228112Y0379609D01*
X0226143Y0381578D01*
X0232048Y0381578D01*
X0232048Y0384086D02*
X0228112Y0384086D01*
X0226143Y0386055D01*
X0228112Y0388023D01*
X0232048Y0388023D01*
X0229096Y0388023D02*
X0229096Y0384086D01*
X0232048Y0377641D02*
X0226143Y0377641D01*
X0227128Y0375132D02*
X0226143Y0374148D01*
X0226143Y0372180D01*
X0227128Y0371195D01*
X0231064Y0371195D01*
X0232048Y0372180D01*
X0232048Y0374148D01*
X0231064Y0375132D01*
X0227128Y0375132D01*
X0227128Y0368687D02*
X0226143Y0367703D01*
X0226143Y0365734D01*
X0227128Y0364750D01*
X0231064Y0364750D01*
X0232048Y0365734D01*
X0232048Y0367703D01*
X0231064Y0368687D01*
X0239743Y0367703D02*
X0239743Y0365734D01*
X0240728Y0364750D01*
X0244664Y0364750D01*
X0245648Y0365734D01*
X0245648Y0367703D01*
X0244664Y0368687D01*
X0242696Y0368687D01*
X0242696Y0366718D01*
X0240728Y0368687D02*
X0239743Y0367703D01*
X0239743Y0371195D02*
X0245648Y0375132D01*
X0239743Y0375132D01*
X0239743Y0377641D02*
X0239743Y0380594D01*
X0240728Y0381578D01*
X0244664Y0381578D01*
X0245648Y0380594D01*
X0245648Y0377641D01*
X0239743Y0377641D01*
X0239743Y0371195D02*
X0245648Y0371195D01*
X0254743Y0371595D02*
X0260648Y0375532D01*
X0254743Y0375532D01*
X0254743Y0378041D02*
X0254743Y0380994D01*
X0255728Y0381978D01*
X0259664Y0381978D01*
X0260648Y0380994D01*
X0260648Y0378041D01*
X0254743Y0378041D01*
X0254743Y0371595D02*
X0260648Y0371595D01*
X0259664Y0369087D02*
X0257696Y0369087D01*
X0257696Y0367118D01*
X0255728Y0365150D02*
X0259664Y0365150D01*
X0260648Y0366134D01*
X0260648Y0368103D01*
X0259664Y0369087D01*
X0255728Y0369087D02*
X0254743Y0368103D01*
X0254743Y0366134D01*
X0255728Y0365150D01*
X0268943Y0365150D02*
X0268943Y0368103D01*
X0269928Y0369087D01*
X0273864Y0369087D01*
X0274848Y0368103D01*
X0274848Y0365150D01*
X0268943Y0365150D01*
X0269928Y0371595D02*
X0268943Y0372580D01*
X0268943Y0374548D01*
X0269928Y0375532D01*
X0273864Y0375532D01*
X0274848Y0374548D01*
X0274848Y0372580D01*
X0273864Y0371595D01*
X0269928Y0371595D01*
X0269928Y0378041D02*
X0270912Y0378041D01*
X0271896Y0379025D01*
X0271896Y0380994D01*
X0272880Y0381978D01*
X0273864Y0381978D01*
X0274848Y0380994D01*
X0274848Y0379025D01*
X0273864Y0378041D01*
X0272880Y0378041D01*
X0271896Y0379025D01*
X0271896Y0380994D02*
X0270912Y0381978D01*
X0269928Y0381978D01*
X0268943Y0380994D01*
X0268943Y0379025D01*
X0269928Y0378041D01*
X0282343Y0378825D02*
X0283328Y0377841D01*
X0284312Y0377841D01*
X0285296Y0378825D01*
X0285296Y0381778D01*
X0287264Y0381778D02*
X0283328Y0381778D01*
X0282343Y0380794D01*
X0282343Y0378825D01*
X0283328Y0375332D02*
X0282343Y0374348D01*
X0282343Y0372380D01*
X0283328Y0371395D01*
X0287264Y0371395D01*
X0288248Y0372380D01*
X0288248Y0374348D01*
X0287264Y0375332D01*
X0283328Y0375332D01*
X0287264Y0377841D02*
X0288248Y0378825D01*
X0288248Y0380794D01*
X0287264Y0381778D01*
X0295343Y0379609D02*
X0297312Y0377641D01*
X0296328Y0375132D02*
X0295343Y0374148D01*
X0295343Y0372180D01*
X0296328Y0371195D01*
X0300264Y0371195D01*
X0301248Y0372180D01*
X0301248Y0374148D01*
X0300264Y0375132D01*
X0296328Y0375132D01*
X0295343Y0379609D02*
X0301248Y0379609D01*
X0301248Y0377641D02*
X0301248Y0381578D01*
X0300264Y0384086D02*
X0296328Y0384086D01*
X0295343Y0385071D01*
X0295343Y0387039D01*
X0296328Y0388023D01*
X0300264Y0384086D01*
X0301248Y0385071D01*
X0301248Y0387039D01*
X0300264Y0388023D01*
X0296328Y0388023D01*
X0309143Y0386655D02*
X0315048Y0386655D01*
X0315048Y0388623D02*
X0315048Y0384686D01*
X0315048Y0382178D02*
X0315048Y0378241D01*
X0315048Y0380209D02*
X0309143Y0380209D01*
X0311112Y0378241D01*
X0310128Y0375732D02*
X0309143Y0374748D01*
X0309143Y0372780D01*
X0310128Y0371795D01*
X0314064Y0371795D01*
X0315048Y0372780D01*
X0315048Y0374748D01*
X0314064Y0375732D01*
X0310128Y0375732D01*
X0310128Y0369287D02*
X0309143Y0368303D01*
X0309143Y0365350D01*
X0315048Y0365350D01*
X0315048Y0368303D01*
X0314064Y0369287D01*
X0310128Y0369287D01*
X0301248Y0367703D02*
X0301248Y0364750D01*
X0295343Y0364750D01*
X0295343Y0367703D01*
X0296328Y0368687D01*
X0300264Y0368687D01*
X0301248Y0367703D01*
X0288248Y0367903D02*
X0288248Y0364950D01*
X0282343Y0364950D01*
X0282343Y0367903D01*
X0283328Y0368887D01*
X0287264Y0368887D01*
X0288248Y0367903D01*
X0309143Y0386655D02*
X0311112Y0384686D01*
X0322743Y0384871D02*
X0323728Y0383886D01*
X0322743Y0384871D02*
X0322743Y0386839D01*
X0323728Y0387823D01*
X0324712Y0387823D01*
X0328648Y0383886D01*
X0328648Y0387823D01*
X0328648Y0381378D02*
X0328648Y0377441D01*
X0328648Y0379409D02*
X0322743Y0379409D01*
X0324712Y0377441D01*
X0323728Y0374932D02*
X0322743Y0373948D01*
X0322743Y0371980D01*
X0323728Y0370995D01*
X0327664Y0370995D01*
X0328648Y0371980D01*
X0328648Y0373948D01*
X0327664Y0374932D01*
X0323728Y0374932D01*
X0323728Y0368487D02*
X0322743Y0367503D01*
X0322743Y0364550D01*
X0328648Y0364550D01*
X0328648Y0367503D01*
X0327664Y0368487D01*
X0323728Y0368487D01*
X0337543Y0367503D02*
X0337543Y0364550D01*
X0343448Y0364550D01*
X0343448Y0367503D01*
X0342464Y0368487D01*
X0338528Y0368487D01*
X0337543Y0367503D01*
X0338528Y0370995D02*
X0337543Y0371980D01*
X0337543Y0373948D01*
X0338528Y0374932D01*
X0342464Y0374932D01*
X0343448Y0373948D01*
X0343448Y0371980D01*
X0342464Y0370995D01*
X0338528Y0370995D01*
X0339512Y0377441D02*
X0337543Y0379409D01*
X0343448Y0379409D01*
X0343448Y0377441D02*
X0343448Y0381378D01*
X0342464Y0383886D02*
X0343448Y0384871D01*
X0343448Y0386839D01*
X0342464Y0387823D01*
X0341480Y0387823D01*
X0340496Y0386839D01*
X0340496Y0385855D01*
X0340496Y0386839D02*
X0339512Y0387823D01*
X0338528Y0387823D01*
X0337543Y0386839D01*
X0337543Y0384871D01*
X0338528Y0383886D01*
X0351543Y0384286D02*
X0351543Y0387239D01*
X0352528Y0388223D01*
X0353512Y0388223D01*
X0354496Y0387239D01*
X0354496Y0384286D01*
X0357448Y0384286D02*
X0357448Y0387239D01*
X0356464Y0388223D01*
X0355480Y0388223D01*
X0354496Y0387239D01*
X0357448Y0384286D02*
X0351543Y0384286D01*
X0351543Y0381778D02*
X0357448Y0381778D01*
X0357448Y0377841D02*
X0351543Y0377841D01*
X0353512Y0379809D01*
X0351543Y0381778D01*
X0352528Y0375332D02*
X0351543Y0374348D01*
X0351543Y0372380D01*
X0352528Y0371395D01*
X0356464Y0371395D01*
X0357448Y0372380D01*
X0357448Y0374348D01*
X0356464Y0375332D01*
X0352528Y0375332D01*
X0352528Y0368887D02*
X0351543Y0367903D01*
X0351543Y0365934D01*
X0352528Y0364950D01*
X0356464Y0364950D01*
X0357448Y0365934D01*
X0357448Y0367903D01*
X0356464Y0368887D01*
X0364743Y0367903D02*
X0364743Y0365934D01*
X0365728Y0364950D01*
X0369664Y0364950D01*
X0370648Y0365934D01*
X0370648Y0367903D01*
X0369664Y0368887D01*
X0367696Y0368887D01*
X0367696Y0366918D01*
X0365728Y0368887D02*
X0364743Y0367903D01*
X0364743Y0371395D02*
X0370648Y0375332D01*
X0364743Y0375332D01*
X0364743Y0377841D02*
X0364743Y0380794D01*
X0365728Y0381778D01*
X0369664Y0381778D01*
X0370648Y0380794D01*
X0370648Y0377841D01*
X0364743Y0377841D01*
X0364743Y0371395D02*
X0370648Y0371395D01*
X0378343Y0371595D02*
X0384248Y0375532D01*
X0378343Y0375532D01*
X0378343Y0378041D02*
X0378343Y0380994D01*
X0379328Y0381978D01*
X0383264Y0381978D01*
X0384248Y0380994D01*
X0384248Y0378041D01*
X0378343Y0378041D01*
X0378343Y0371595D02*
X0384248Y0371595D01*
X0383264Y0369087D02*
X0381296Y0369087D01*
X0381296Y0367118D01*
X0379328Y0365150D02*
X0383264Y0365150D01*
X0384248Y0366134D01*
X0384248Y0368103D01*
X0383264Y0369087D01*
X0379328Y0369087D02*
X0378343Y0368103D01*
X0378343Y0366134D01*
X0379328Y0365150D01*
D11*
X0025698Y0034600D02*
X0025698Y0006600D01*
X0039698Y0006600D01*
X0039698Y0034600D01*
X0053698Y0034600D01*
X0053598Y0006600D01*
X0039698Y0006600D01*
X0053598Y0006600D02*
X0067698Y0006600D01*
X0067698Y0034600D01*
X0081698Y0034600D01*
X0081698Y0006600D01*
X0067698Y0006600D01*
X0081698Y0006600D02*
X0095598Y0006700D01*
X0095598Y0034600D01*
X0081698Y0034600D01*
X0067698Y0034600D02*
X0053698Y0034600D01*
X0039698Y0034600D02*
X0025698Y0034600D01*
X0031554Y0067909D02*
X0032122Y0067909D01*
X0032689Y0068476D01*
X0032689Y0071312D01*
X0032122Y0071312D02*
X0033256Y0071312D01*
X0034670Y0070744D02*
X0035238Y0071312D01*
X0036372Y0071312D01*
X0036939Y0070744D01*
X0036939Y0070177D01*
X0034670Y0067909D01*
X0036939Y0067909D01*
X0031554Y0067909D02*
X0030987Y0068476D01*
X0083795Y0090521D02*
X0089406Y0090521D01*
X0089406Y0102679D02*
X0083795Y0102679D01*
X0103598Y0101800D02*
X0103598Y0097600D01*
X0103598Y0093600D01*
X0103598Y0089400D01*
X0103600Y0089324D01*
X0103606Y0089248D01*
X0103615Y0089173D01*
X0103629Y0089098D01*
X0103646Y0089024D01*
X0103667Y0088951D01*
X0103691Y0088879D01*
X0103720Y0088808D01*
X0103751Y0088739D01*
X0103786Y0088672D01*
X0103825Y0088607D01*
X0103867Y0088543D01*
X0103912Y0088482D01*
X0103960Y0088423D01*
X0104011Y0088367D01*
X0104065Y0088313D01*
X0104121Y0088262D01*
X0104180Y0088214D01*
X0104241Y0088169D01*
X0104305Y0088127D01*
X0104370Y0088088D01*
X0104437Y0088053D01*
X0104506Y0088022D01*
X0104577Y0087993D01*
X0104649Y0087969D01*
X0104722Y0087948D01*
X0104796Y0087931D01*
X0104871Y0087917D01*
X0104946Y0087908D01*
X0105022Y0087902D01*
X0105098Y0087900D01*
X0122098Y0087900D01*
X0122174Y0087902D01*
X0122250Y0087908D01*
X0122325Y0087917D01*
X0122400Y0087931D01*
X0122474Y0087948D01*
X0122547Y0087969D01*
X0122619Y0087993D01*
X0122690Y0088022D01*
X0122759Y0088053D01*
X0122826Y0088088D01*
X0122891Y0088127D01*
X0122955Y0088169D01*
X0123016Y0088214D01*
X0123075Y0088262D01*
X0123131Y0088313D01*
X0123185Y0088367D01*
X0123236Y0088423D01*
X0123284Y0088482D01*
X0123329Y0088543D01*
X0123371Y0088607D01*
X0123410Y0088672D01*
X0123445Y0088739D01*
X0123476Y0088808D01*
X0123505Y0088879D01*
X0123529Y0088951D01*
X0123550Y0089024D01*
X0123567Y0089098D01*
X0123581Y0089173D01*
X0123590Y0089248D01*
X0123596Y0089324D01*
X0123598Y0089400D01*
X0123598Y0101800D01*
X0123596Y0101876D01*
X0123590Y0101952D01*
X0123581Y0102027D01*
X0123567Y0102102D01*
X0123550Y0102176D01*
X0123529Y0102249D01*
X0123505Y0102321D01*
X0123476Y0102392D01*
X0123445Y0102461D01*
X0123410Y0102528D01*
X0123371Y0102593D01*
X0123329Y0102657D01*
X0123284Y0102718D01*
X0123236Y0102777D01*
X0123185Y0102833D01*
X0123131Y0102887D01*
X0123075Y0102938D01*
X0123016Y0102986D01*
X0122955Y0103031D01*
X0122891Y0103073D01*
X0122826Y0103112D01*
X0122759Y0103147D01*
X0122690Y0103178D01*
X0122619Y0103207D01*
X0122547Y0103231D01*
X0122474Y0103252D01*
X0122400Y0103269D01*
X0122325Y0103283D01*
X0122250Y0103292D01*
X0122174Y0103298D01*
X0122098Y0103300D01*
X0105098Y0103300D01*
X0105022Y0103298D01*
X0104946Y0103292D01*
X0104871Y0103283D01*
X0104796Y0103269D01*
X0104722Y0103252D01*
X0104649Y0103231D01*
X0104577Y0103207D01*
X0104506Y0103178D01*
X0104437Y0103147D01*
X0104370Y0103112D01*
X0104305Y0103073D01*
X0104241Y0103031D01*
X0104180Y0102986D01*
X0104121Y0102938D01*
X0104065Y0102887D01*
X0104011Y0102833D01*
X0103960Y0102777D01*
X0103912Y0102718D01*
X0103867Y0102657D01*
X0103825Y0102593D01*
X0103786Y0102528D01*
X0103751Y0102461D01*
X0103720Y0102392D01*
X0103691Y0102321D01*
X0103667Y0102249D01*
X0103646Y0102176D01*
X0103629Y0102102D01*
X0103615Y0102027D01*
X0103606Y0101952D01*
X0103600Y0101876D01*
X0103598Y0101800D01*
X0103598Y0097600D02*
X0103686Y0097598D01*
X0103775Y0097592D01*
X0103863Y0097582D01*
X0103950Y0097569D01*
X0104037Y0097551D01*
X0104123Y0097530D01*
X0104208Y0097505D01*
X0104291Y0097476D01*
X0104374Y0097443D01*
X0104454Y0097407D01*
X0104533Y0097368D01*
X0104611Y0097325D01*
X0104686Y0097278D01*
X0104759Y0097228D01*
X0104830Y0097175D01*
X0104899Y0097119D01*
X0104965Y0097060D01*
X0105028Y0096998D01*
X0105088Y0096934D01*
X0105146Y0096867D01*
X0105200Y0096797D01*
X0105252Y0096725D01*
X0105300Y0096651D01*
X0105345Y0096574D01*
X0105386Y0096496D01*
X0105424Y0096416D01*
X0105458Y0096335D01*
X0105489Y0096252D01*
X0105516Y0096167D01*
X0105539Y0096082D01*
X0105558Y0095996D01*
X0105574Y0095908D01*
X0105586Y0095821D01*
X0105594Y0095733D01*
X0105598Y0095644D01*
X0105598Y0095556D01*
X0105594Y0095467D01*
X0105586Y0095379D01*
X0105574Y0095292D01*
X0105558Y0095204D01*
X0105539Y0095118D01*
X0105516Y0095033D01*
X0105489Y0094948D01*
X0105458Y0094865D01*
X0105424Y0094784D01*
X0105386Y0094704D01*
X0105345Y0094626D01*
X0105300Y0094549D01*
X0105252Y0094475D01*
X0105200Y0094403D01*
X0105146Y0094333D01*
X0105088Y0094266D01*
X0105028Y0094202D01*
X0104965Y0094140D01*
X0104899Y0094081D01*
X0104830Y0094025D01*
X0104759Y0093972D01*
X0104686Y0093922D01*
X0104611Y0093875D01*
X0104533Y0093832D01*
X0104454Y0093793D01*
X0104374Y0093757D01*
X0104291Y0093724D01*
X0104208Y0093695D01*
X0104123Y0093670D01*
X0104037Y0093649D01*
X0103950Y0093631D01*
X0103863Y0093618D01*
X0103775Y0093608D01*
X0103686Y0093602D01*
X0103598Y0093600D01*
X0122936Y0071112D02*
X0124070Y0071112D01*
X0123503Y0071112D02*
X0123503Y0068276D01*
X0122936Y0067709D01*
X0122369Y0067709D01*
X0121801Y0068276D01*
X0125485Y0068276D02*
X0125485Y0068843D01*
X0126052Y0069410D01*
X0127186Y0069410D01*
X0127753Y0068843D01*
X0127753Y0068276D01*
X0127186Y0067709D01*
X0126052Y0067709D01*
X0125485Y0068276D01*
X0126052Y0069410D02*
X0125485Y0069977D01*
X0125485Y0070544D01*
X0126052Y0071112D01*
X0127186Y0071112D01*
X0127753Y0070544D01*
X0127753Y0069977D01*
X0127186Y0069410D01*
X0126798Y0034800D02*
X0126798Y0006900D01*
X0126898Y0006800D01*
X0126998Y0006800D01*
X0126898Y0006900D01*
X0126998Y0006800D02*
X0127098Y0006800D01*
X0140498Y0007700D02*
X0140898Y0007300D01*
X0140498Y0007700D02*
X0140498Y0034500D01*
X0154598Y0034500D02*
X0154598Y0006600D01*
X0113298Y0006600D01*
X0113298Y0034600D01*
X0182098Y0034600D01*
X0182098Y0006500D01*
X0182198Y0006400D01*
X0194598Y0006900D02*
X0194698Y0006800D01*
X0194898Y0006800D01*
X0194998Y0006900D01*
X0194898Y0006900D01*
X0194698Y0007100D01*
X0194598Y0006900D02*
X0194598Y0034500D01*
X0182098Y0034600D02*
X0221998Y0034600D01*
X0221998Y0006700D01*
X0222198Y0006500D01*
X0235798Y0006400D02*
X0235798Y0034600D01*
X0389098Y0034600D01*
X0389098Y0006600D01*
X0154598Y0006600D01*
X0168398Y0006600D02*
X0168598Y0006400D01*
X0168598Y0006500D01*
X0168398Y0006600D02*
X0168398Y0034800D01*
X0190266Y0067509D02*
X0190833Y0067509D01*
X0191401Y0068076D01*
X0191401Y0070912D01*
X0191968Y0070912D02*
X0190833Y0070912D01*
X0193382Y0070912D02*
X0195651Y0070912D01*
X0195651Y0070344D01*
X0193382Y0068076D01*
X0193382Y0067509D01*
X0190266Y0067509D02*
X0189699Y0068076D01*
X0208698Y0034800D02*
X0208698Y0006900D01*
X0221998Y0034600D02*
X0235798Y0034600D01*
X0250798Y0034500D02*
X0250798Y0007100D01*
X0251098Y0006800D01*
X0264398Y0006900D02*
X0264498Y0006800D01*
X0264398Y0006900D02*
X0264398Y0034800D01*
X0278598Y0034800D02*
X0278598Y0006800D01*
X0293498Y0006900D02*
X0293598Y0006800D01*
X0293498Y0006900D02*
X0293498Y0034700D01*
X0307098Y0034500D02*
X0307098Y0006800D01*
X0307198Y0006700D01*
X0320698Y0007300D02*
X0321298Y0006700D01*
X0320698Y0007300D02*
X0320698Y0034800D01*
X0334098Y0034700D02*
X0334098Y0007000D01*
X0347198Y0007100D02*
X0347498Y0006800D01*
X0347198Y0007100D02*
X0347198Y0034700D01*
X0360498Y0034700D02*
X0360498Y0007400D01*
X0360598Y0007300D01*
X0374998Y0007000D02*
X0374998Y0034300D01*
X0333246Y0067876D02*
X0332679Y0067309D01*
X0331545Y0067309D01*
X0330977Y0067876D01*
X0330977Y0069010D02*
X0332112Y0069577D01*
X0332679Y0069577D01*
X0333246Y0069010D01*
X0333246Y0067876D01*
X0330977Y0069010D02*
X0330977Y0070712D01*
X0333246Y0070712D01*
X0329563Y0070712D02*
X0328429Y0070712D01*
X0328996Y0070712D02*
X0328996Y0067876D01*
X0328429Y0067309D01*
X0327861Y0067309D01*
X0327294Y0067876D01*
X0261448Y0068576D02*
X0261448Y0069143D01*
X0260881Y0069710D01*
X0259180Y0069710D01*
X0259180Y0068576D01*
X0259747Y0068009D01*
X0260881Y0068009D01*
X0261448Y0068576D01*
X0260314Y0070844D02*
X0259180Y0069710D01*
X0260314Y0070844D02*
X0261448Y0071412D01*
X0257765Y0071412D02*
X0256631Y0071412D01*
X0257198Y0071412D02*
X0257198Y0068576D01*
X0256631Y0068009D01*
X0256064Y0068009D01*
X0255497Y0068576D01*
X0257098Y0157600D02*
X0262098Y0157600D01*
X0264598Y0160100D01*
X0264598Y0165100D01*
X0267098Y0167600D01*
X0272098Y0167600D01*
X0274598Y0165100D01*
X0274598Y0160100D01*
X0272098Y0157600D01*
X0267098Y0157600D01*
X0264598Y0160100D01*
X0264598Y0165100D02*
X0262098Y0167600D01*
X0257098Y0167600D01*
X0254598Y0165100D01*
X0254598Y0160100D01*
X0257098Y0157600D01*
X0254598Y0160100D02*
X0252098Y0157600D01*
X0247098Y0157600D01*
X0244598Y0160100D01*
X0244598Y0165100D01*
X0247098Y0167600D01*
X0252098Y0167600D01*
X0254598Y0165100D01*
X0250198Y0175000D02*
X0246998Y0175000D01*
X0250198Y0175000D02*
X0250198Y0177200D01*
X0250198Y0184000D02*
X0250198Y0186200D01*
X0246998Y0186200D01*
X0230698Y0188833D02*
X0230131Y0188266D01*
X0229564Y0188266D01*
X0228997Y0188833D01*
X0228997Y0189968D01*
X0229564Y0190535D01*
X0230131Y0190535D01*
X0230698Y0189968D01*
X0230698Y0188833D01*
X0228997Y0188833D02*
X0228430Y0188266D01*
X0227863Y0188266D01*
X0227296Y0188833D01*
X0227296Y0189968D01*
X0227863Y0190535D01*
X0228430Y0190535D01*
X0228997Y0189968D01*
X0228997Y0186852D02*
X0228997Y0184583D01*
X0228997Y0183169D02*
X0230131Y0183169D01*
X0230698Y0182601D01*
X0230698Y0181467D01*
X0230131Y0180900D01*
X0228997Y0180900D02*
X0228430Y0182034D01*
X0228430Y0182601D01*
X0228997Y0183169D01*
X0227296Y0183169D02*
X0227296Y0180900D01*
X0228997Y0180900D01*
X0227098Y0167600D02*
X0232098Y0167600D01*
X0234598Y0165100D01*
X0234598Y0160100D01*
X0237098Y0157600D01*
X0242098Y0157600D01*
X0244598Y0160100D01*
X0244598Y0165100D02*
X0242098Y0167600D01*
X0237098Y0167600D01*
X0234598Y0165100D01*
X0234598Y0160100D02*
X0232098Y0157600D01*
X0227098Y0157600D01*
X0224598Y0160100D01*
X0224598Y0165100D01*
X0227098Y0167600D01*
X0224598Y0165100D02*
X0222098Y0167600D01*
X0217098Y0167600D01*
X0214598Y0165100D01*
X0214598Y0160100D01*
X0217098Y0157600D01*
X0222098Y0157600D01*
X0224598Y0160100D01*
X0214598Y0160100D02*
X0212098Y0157600D01*
X0207098Y0157600D01*
X0204598Y0160100D01*
X0204598Y0165100D01*
X0207098Y0167600D01*
X0212098Y0167600D01*
X0214598Y0165100D01*
X0204598Y0165100D02*
X0202098Y0167600D01*
X0197098Y0167600D01*
X0194598Y0165100D01*
X0194598Y0160100D01*
X0197098Y0157600D01*
X0202098Y0157600D01*
X0204598Y0160100D01*
X0194598Y0160100D02*
X0192098Y0157600D01*
X0187098Y0157600D01*
X0184598Y0160100D01*
X0184598Y0165100D01*
X0187098Y0167600D01*
X0192098Y0167600D01*
X0194598Y0165100D01*
X0184598Y0165100D02*
X0182098Y0167600D01*
X0177098Y0167600D01*
X0174598Y0165100D01*
X0174598Y0160100D01*
X0172098Y0157600D01*
X0167098Y0157600D01*
X0164598Y0160100D01*
X0164598Y0165100D01*
X0167098Y0167600D01*
X0172098Y0167600D01*
X0174598Y0165100D01*
X0174598Y0160100D02*
X0177098Y0157600D01*
X0182098Y0157600D01*
X0184598Y0160100D01*
X0164598Y0160100D02*
X0162098Y0157600D01*
X0157098Y0157600D01*
X0154598Y0160100D01*
X0154598Y0165100D01*
X0157098Y0167600D01*
X0162098Y0167600D01*
X0164598Y0165100D01*
X0154598Y0165100D02*
X0152098Y0167600D01*
X0147098Y0167600D01*
X0144598Y0165100D01*
X0144598Y0160100D01*
X0147098Y0157600D01*
X0152098Y0157600D01*
X0154598Y0160100D01*
X0144598Y0160100D02*
X0142098Y0157600D01*
X0137098Y0157600D01*
X0134598Y0160100D01*
X0134598Y0165100D01*
X0137098Y0167600D01*
X0142098Y0167600D01*
X0144598Y0165100D01*
X0134598Y0165100D02*
X0132098Y0167600D01*
X0127098Y0167600D01*
X0124598Y0165100D01*
X0124598Y0160100D01*
X0127098Y0157600D01*
X0132098Y0157600D01*
X0134598Y0160100D01*
X0124598Y0160100D02*
X0122098Y0157600D01*
X0117098Y0157600D01*
X0114598Y0160100D01*
X0114598Y0165100D01*
X0117098Y0167600D01*
X0122098Y0167600D01*
X0124598Y0165100D01*
X0114598Y0165100D02*
X0112098Y0167600D01*
X0107098Y0167600D01*
X0104598Y0165100D01*
X0104598Y0160100D01*
X0107098Y0157600D01*
X0112098Y0157600D01*
X0114598Y0160100D01*
X0196196Y0216567D02*
X0196196Y0217701D01*
X0196763Y0218269D01*
X0197330Y0218269D01*
X0197897Y0217701D01*
X0198464Y0218269D01*
X0199031Y0218269D01*
X0199598Y0217701D01*
X0199598Y0216567D01*
X0199031Y0216000D01*
X0197897Y0217134D02*
X0197897Y0217701D01*
X0196763Y0216000D02*
X0196196Y0216567D01*
X0199031Y0219683D02*
X0199031Y0220250D01*
X0199598Y0220250D01*
X0199598Y0219683D01*
X0199031Y0219683D01*
X0199031Y0221525D02*
X0199598Y0222092D01*
X0199598Y0223226D01*
X0199031Y0223793D01*
X0198464Y0223793D01*
X0197897Y0223226D01*
X0197897Y0222659D01*
X0197897Y0223226D02*
X0197330Y0223793D01*
X0196763Y0223793D01*
X0196196Y0223226D01*
X0196196Y0222092D01*
X0196763Y0221525D01*
X0196196Y0225208D02*
X0198464Y0225208D01*
X0199598Y0226342D01*
X0198464Y0227476D01*
X0196196Y0227476D01*
X0206396Y0222352D02*
X0208664Y0222352D01*
X0209798Y0221217D01*
X0208664Y0220083D01*
X0206396Y0220083D01*
X0206396Y0218669D02*
X0206396Y0216400D01*
X0208097Y0216400D01*
X0207530Y0217534D01*
X0207530Y0218101D01*
X0208097Y0218669D01*
X0209231Y0218669D01*
X0209798Y0218101D01*
X0209798Y0216967D01*
X0209231Y0216400D01*
X0216696Y0217500D02*
X0218964Y0217500D01*
X0220098Y0218634D01*
X0218964Y0219769D01*
X0216696Y0219769D01*
X0216696Y0221183D02*
X0216696Y0222317D01*
X0216696Y0221750D02*
X0220098Y0221750D01*
X0220098Y0221183D02*
X0220098Y0222317D01*
X0220098Y0223639D02*
X0216696Y0223639D01*
X0220098Y0225907D01*
X0216696Y0225907D01*
X0227496Y0225907D02*
X0230898Y0225907D01*
X0227496Y0223639D01*
X0230898Y0223639D01*
X0230898Y0222317D02*
X0230898Y0221183D01*
X0230898Y0221750D02*
X0227496Y0221750D01*
X0227496Y0221183D02*
X0227496Y0222317D01*
X0228063Y0219769D02*
X0227496Y0219201D01*
X0227496Y0217500D01*
X0230898Y0217500D01*
X0230898Y0219201D01*
X0230331Y0219769D01*
X0228063Y0219769D01*
X0228497Y0209935D02*
X0228497Y0207666D01*
X0226796Y0209368D01*
X0230198Y0209368D01*
X0228497Y0206252D02*
X0228497Y0203983D01*
X0230198Y0202569D02*
X0230198Y0200300D01*
X0230198Y0201434D02*
X0226796Y0201434D01*
X0227930Y0200300D01*
X0265998Y0186200D02*
X0269198Y0186200D01*
X0269198Y0184000D01*
X0269198Y0177200D02*
X0269198Y0175000D01*
X0265998Y0175000D01*
X0274598Y0165100D02*
X0277098Y0167600D01*
X0282098Y0167600D01*
X0284598Y0165100D01*
X0284598Y0160100D01*
X0282098Y0157600D01*
X0277098Y0157600D01*
X0274598Y0160100D01*
X0284598Y0160100D02*
X0287098Y0157600D01*
X0292098Y0157600D01*
X0294598Y0160100D01*
X0297098Y0157600D01*
X0302098Y0157600D01*
X0304598Y0160100D01*
X0307098Y0157600D01*
X0312098Y0157600D01*
X0314598Y0160100D01*
X0314598Y0165100D01*
X0317098Y0167600D01*
X0322098Y0167600D01*
X0324598Y0165100D01*
X0324598Y0160100D01*
X0327098Y0157600D01*
X0332098Y0157600D01*
X0334598Y0160100D01*
X0334598Y0165100D01*
X0337098Y0167600D01*
X0342098Y0167600D01*
X0344598Y0165100D01*
X0344598Y0160100D01*
X0347098Y0157600D01*
X0352098Y0157600D01*
X0354598Y0160100D01*
X0354598Y0165100D01*
X0357098Y0167600D01*
X0362098Y0167600D01*
X0364598Y0165100D01*
X0364598Y0160100D01*
X0367098Y0157600D01*
X0372098Y0157600D01*
X0374598Y0160100D01*
X0374598Y0165100D01*
X0372098Y0167600D01*
X0367098Y0167600D01*
X0364598Y0165100D01*
X0364598Y0160100D02*
X0362098Y0157600D01*
X0357098Y0157600D01*
X0354598Y0160100D01*
X0354598Y0165100D02*
X0352098Y0167600D01*
X0347098Y0167600D01*
X0344598Y0165100D01*
X0344598Y0160100D02*
X0342098Y0157600D01*
X0337098Y0157600D01*
X0334598Y0160100D01*
X0334598Y0165100D02*
X0332098Y0167600D01*
X0327098Y0167600D01*
X0324598Y0165100D01*
X0324598Y0160100D02*
X0322098Y0157600D01*
X0317098Y0157600D01*
X0314598Y0160100D01*
X0314598Y0165100D02*
X0312098Y0167600D01*
X0307098Y0167600D01*
X0304598Y0165100D01*
X0304598Y0160100D01*
X0304598Y0165100D02*
X0302098Y0167600D01*
X0297098Y0167600D01*
X0294598Y0165100D01*
X0294598Y0160100D01*
X0294598Y0165100D02*
X0292098Y0167600D01*
X0287098Y0167600D01*
X0284598Y0165100D01*
X0284998Y0175000D02*
X0288198Y0175000D01*
X0288198Y0177200D01*
X0288198Y0184000D02*
X0288198Y0186200D01*
X0284998Y0186200D01*
X0303998Y0186200D02*
X0307198Y0186200D01*
X0307198Y0184000D01*
X0307198Y0177200D02*
X0307198Y0175000D01*
X0303998Y0175000D01*
X0334598Y0173800D02*
X0334598Y0178800D01*
X0337098Y0181300D01*
X0342098Y0181300D01*
X0344598Y0178800D01*
X0344598Y0173800D01*
X0347098Y0171300D01*
X0352098Y0171300D01*
X0354598Y0173800D01*
X0354598Y0178800D01*
X0357098Y0181300D01*
X0354598Y0183800D01*
X0354598Y0188800D01*
X0357098Y0191300D01*
X0354598Y0193800D01*
X0354598Y0198800D01*
X0357098Y0201300D01*
X0354598Y0203800D01*
X0354598Y0208800D01*
X0357098Y0211300D01*
X0354598Y0213800D01*
X0354598Y0218800D01*
X0357098Y0221300D01*
X0354598Y0223800D01*
X0354598Y0228800D01*
X0357098Y0231300D01*
X0362098Y0231300D01*
X0364598Y0228800D01*
X0364598Y0223800D01*
X0362098Y0221300D01*
X0364598Y0218800D01*
X0364598Y0213800D01*
X0362098Y0211300D01*
X0364598Y0208800D01*
X0364598Y0203800D01*
X0362098Y0201300D01*
X0364598Y0198800D01*
X0364598Y0193800D01*
X0362098Y0191300D01*
X0364598Y0188800D01*
X0364598Y0183800D01*
X0362098Y0181300D01*
X0364598Y0178800D01*
X0364598Y0173800D01*
X0362098Y0171300D01*
X0357098Y0171300D01*
X0354598Y0173800D01*
X0354598Y0178800D02*
X0352098Y0181300D01*
X0354598Y0183800D01*
X0352098Y0181300D02*
X0347098Y0181300D01*
X0344598Y0183800D01*
X0344598Y0188800D01*
X0347098Y0191300D01*
X0344598Y0193800D01*
X0344598Y0198800D01*
X0347098Y0201300D01*
X0344598Y0203800D01*
X0344598Y0208800D01*
X0347098Y0211300D01*
X0344598Y0213800D01*
X0344598Y0218800D01*
X0347098Y0221300D01*
X0344598Y0223800D01*
X0344598Y0228800D01*
X0347098Y0231300D01*
X0352098Y0231300D01*
X0354598Y0228800D01*
X0354598Y0223800D02*
X0352098Y0221300D01*
X0354598Y0218800D01*
X0352098Y0221300D02*
X0347098Y0221300D01*
X0347098Y0211300D02*
X0352098Y0211300D01*
X0354598Y0213800D01*
X0352098Y0211300D02*
X0354598Y0208800D01*
X0357098Y0211300D02*
X0362098Y0211300D01*
X0364598Y0213800D02*
X0367098Y0211300D01*
X0372098Y0211300D01*
X0374598Y0213800D01*
X0374598Y0218800D01*
X0372098Y0221300D01*
X0374598Y0223800D01*
X0374598Y0228800D01*
X0372098Y0231300D01*
X0367098Y0231300D01*
X0364598Y0228800D01*
X0364598Y0223800D02*
X0367098Y0221300D01*
X0372098Y0221300D01*
X0367098Y0221300D02*
X0364598Y0218800D01*
X0362098Y0221300D02*
X0357098Y0221300D01*
X0367098Y0211300D02*
X0364598Y0208800D01*
X0364598Y0203800D02*
X0367098Y0201300D01*
X0372098Y0201300D01*
X0374598Y0203800D01*
X0374598Y0208800D01*
X0372098Y0211300D01*
X0372098Y0201300D02*
X0374598Y0198800D01*
X0374598Y0193800D01*
X0372098Y0191300D01*
X0374598Y0188800D01*
X0374598Y0183800D01*
X0372098Y0181300D01*
X0374598Y0178800D01*
X0374598Y0173800D01*
X0372098Y0171300D01*
X0367098Y0171300D01*
X0364598Y0173800D01*
X0364598Y0178800D02*
X0367098Y0181300D01*
X0364598Y0183800D01*
X0362098Y0181300D02*
X0357098Y0181300D01*
X0354598Y0188800D02*
X0352098Y0191300D01*
X0354598Y0193800D01*
X0352098Y0191300D02*
X0347098Y0191300D01*
X0347098Y0201300D02*
X0352098Y0201300D01*
X0354598Y0203800D01*
X0352098Y0201300D02*
X0354598Y0198800D01*
X0357098Y0201300D02*
X0362098Y0201300D01*
X0364598Y0198800D02*
X0367098Y0201300D01*
X0364598Y0193800D02*
X0367098Y0191300D01*
X0372098Y0191300D01*
X0367098Y0191300D02*
X0364598Y0188800D01*
X0362098Y0191300D02*
X0357098Y0191300D01*
X0347098Y0181300D02*
X0344598Y0178800D01*
X0344598Y0173800D02*
X0342098Y0171300D01*
X0337098Y0171300D01*
X0334598Y0173800D01*
X0367098Y0181300D02*
X0372098Y0181300D01*
X0372098Y0247600D02*
X0367098Y0247600D01*
X0364598Y0250100D01*
X0364598Y0255100D01*
X0367098Y0257600D01*
X0372098Y0257600D01*
X0374598Y0255100D01*
X0374598Y0250100D01*
X0372098Y0247600D01*
X0364598Y0250100D02*
X0362098Y0247600D01*
X0357098Y0247600D01*
X0354598Y0250100D01*
X0354598Y0255100D01*
X0357098Y0257600D01*
X0362098Y0257600D01*
X0364598Y0255100D01*
X0354598Y0255100D02*
X0352098Y0257600D01*
X0347098Y0257600D01*
X0344598Y0255100D01*
X0344598Y0250100D01*
X0347098Y0247600D01*
X0352098Y0247600D01*
X0354598Y0250100D01*
X0344598Y0250100D02*
X0342098Y0247600D01*
X0337098Y0247600D01*
X0334598Y0250100D01*
X0334598Y0255100D01*
X0337098Y0257600D01*
X0342098Y0257600D01*
X0344598Y0255100D01*
X0334598Y0255100D02*
X0332098Y0257600D01*
X0327098Y0257600D01*
X0324598Y0255100D01*
X0324598Y0250100D01*
X0327098Y0247600D01*
X0332098Y0247600D01*
X0334598Y0250100D01*
X0324598Y0250100D02*
X0322098Y0247600D01*
X0317098Y0247600D01*
X0314598Y0250100D01*
X0314598Y0255100D01*
X0317098Y0257600D01*
X0322098Y0257600D01*
X0324598Y0255100D01*
X0314598Y0255100D02*
X0312098Y0257600D01*
X0307098Y0257600D01*
X0304598Y0255100D01*
X0304598Y0250100D01*
X0307098Y0247600D01*
X0312098Y0247600D01*
X0314598Y0250100D01*
X0304598Y0250100D02*
X0302098Y0247600D01*
X0297098Y0247600D01*
X0294598Y0250100D01*
X0294598Y0255100D01*
X0297098Y0257600D01*
X0302098Y0257600D01*
X0304598Y0255100D01*
X0294598Y0255100D02*
X0292098Y0257600D01*
X0287098Y0257600D01*
X0284598Y0255100D01*
X0284598Y0250100D01*
X0282098Y0247600D01*
X0277098Y0247600D01*
X0274598Y0250100D01*
X0274598Y0255100D01*
X0277098Y0257600D01*
X0282098Y0257600D01*
X0284598Y0255100D01*
X0284598Y0250100D02*
X0287098Y0247600D01*
X0292098Y0247600D01*
X0294598Y0250100D01*
X0274598Y0250100D02*
X0272098Y0247600D01*
X0267098Y0247600D01*
X0264598Y0250100D01*
X0264598Y0255100D01*
X0267098Y0257600D01*
X0272098Y0257600D01*
X0274598Y0255100D01*
X0264598Y0255100D02*
X0262098Y0257600D01*
X0257098Y0257600D01*
X0254598Y0255100D01*
X0254598Y0250100D01*
X0257098Y0247600D01*
X0262098Y0247600D01*
X0264598Y0250100D01*
X0254598Y0250100D02*
X0252098Y0247600D01*
X0247098Y0247600D01*
X0244598Y0250100D01*
X0244598Y0255100D01*
X0247098Y0257600D01*
X0252098Y0257600D01*
X0254598Y0255100D01*
X0244598Y0255100D02*
X0242098Y0257600D01*
X0237098Y0257600D01*
X0234598Y0255100D01*
X0234598Y0250100D01*
X0237098Y0247600D01*
X0242098Y0247600D01*
X0244598Y0250100D01*
X0234598Y0250100D02*
X0232098Y0247600D01*
X0227098Y0247600D01*
X0224598Y0250100D01*
X0224598Y0255100D01*
X0227098Y0257600D01*
X0232098Y0257600D01*
X0234598Y0255100D01*
X0224598Y0255100D02*
X0222098Y0257600D01*
X0217098Y0257600D01*
X0214598Y0255100D01*
X0214598Y0250100D01*
X0217098Y0247600D01*
X0222098Y0247600D01*
X0224598Y0250100D01*
X0214598Y0250100D02*
X0212098Y0247600D01*
X0207098Y0247600D01*
X0204598Y0250100D01*
X0204598Y0255100D01*
X0207098Y0257600D01*
X0212098Y0257600D01*
X0214598Y0255100D01*
X0204598Y0255100D02*
X0202098Y0257600D01*
X0197098Y0257600D01*
X0194598Y0255100D01*
X0194598Y0250100D01*
X0197098Y0247600D01*
X0202098Y0247600D01*
X0204598Y0250100D01*
X0194598Y0250100D02*
X0192098Y0247600D01*
X0187098Y0247600D01*
X0184598Y0250100D01*
X0184598Y0255100D01*
X0187098Y0257600D01*
X0192098Y0257600D01*
X0194598Y0255100D01*
X0184598Y0255100D02*
X0182098Y0257600D01*
X0177098Y0257600D01*
X0174598Y0255100D01*
X0174598Y0250100D01*
X0172098Y0247600D01*
X0167098Y0247600D01*
X0164598Y0250100D01*
X0164598Y0255100D01*
X0167098Y0257600D01*
X0172098Y0257600D01*
X0174598Y0255100D01*
X0174598Y0250100D02*
X0177098Y0247600D01*
X0182098Y0247600D01*
X0184598Y0250100D01*
X0164598Y0250100D02*
X0162098Y0247600D01*
X0157098Y0247600D01*
X0154598Y0250100D01*
X0154598Y0255100D01*
X0157098Y0257600D01*
X0162098Y0257600D01*
X0164598Y0255100D01*
X0154598Y0255100D02*
X0152098Y0257600D01*
X0147098Y0257600D01*
X0144598Y0255100D01*
X0144598Y0250100D01*
X0147098Y0247600D01*
X0152098Y0247600D01*
X0154598Y0250100D01*
X0144598Y0250100D02*
X0142098Y0247600D01*
X0137098Y0247600D01*
X0134598Y0250100D01*
X0134598Y0255100D01*
X0137098Y0257600D01*
X0142098Y0257600D01*
X0144598Y0255100D01*
X0134598Y0255100D02*
X0132098Y0257600D01*
X0127098Y0257600D01*
X0124598Y0255100D01*
X0124598Y0250100D01*
X0127098Y0247600D01*
X0132098Y0247600D01*
X0134598Y0250100D01*
X0124598Y0250100D02*
X0122098Y0247600D01*
X0117098Y0247600D01*
X0114598Y0250100D01*
X0114598Y0255100D01*
X0117098Y0257600D01*
X0122098Y0257600D01*
X0124598Y0255100D01*
X0114598Y0255100D02*
X0112098Y0257600D01*
X0107098Y0257600D01*
X0104598Y0255100D01*
X0104598Y0250100D01*
X0107098Y0247600D01*
X0112098Y0247600D01*
X0114598Y0250100D01*
X0108398Y0291600D02*
X0108398Y0295000D01*
X0108398Y0297400D01*
X0108398Y0300700D01*
X0104050Y0302700D02*
X0101782Y0302700D01*
X0102916Y0302700D02*
X0102916Y0306103D01*
X0101782Y0304969D01*
X0100367Y0306103D02*
X0100367Y0303267D01*
X0099800Y0302700D01*
X0098666Y0302700D01*
X0098098Y0303267D01*
X0098098Y0306103D01*
X0063031Y0324892D02*
X0060763Y0324892D01*
X0061897Y0324892D02*
X0061897Y0328295D01*
X0060763Y0327161D01*
X0059348Y0328295D02*
X0058214Y0328295D01*
X0058781Y0328295D02*
X0058781Y0325459D01*
X0058214Y0324892D01*
X0057647Y0324892D01*
X0057080Y0325459D01*
X0039317Y0304403D02*
X0037615Y0302701D01*
X0039884Y0302701D01*
X0039317Y0301000D02*
X0039317Y0304403D01*
X0036201Y0304403D02*
X0035066Y0304403D01*
X0035634Y0304403D02*
X0035634Y0301567D01*
X0035066Y0301000D01*
X0034499Y0301000D01*
X0033932Y0301567D01*
X0038998Y0362600D02*
X0025598Y0362600D01*
X0025598Y0391200D01*
X0038998Y0391200D01*
X0052598Y0391200D01*
X0052598Y0362600D01*
X0094998Y0362600D01*
X0094998Y0391200D01*
X0067198Y0391200D01*
X0067198Y0362400D01*
X0052598Y0362600D02*
X0038998Y0362600D01*
X0038998Y0391200D01*
X0052598Y0391200D02*
X0067198Y0391200D01*
X0081598Y0390800D02*
X0081598Y0362800D01*
X0112198Y0361800D02*
X0112198Y0390600D01*
X0141198Y0390600D01*
X0141198Y0361800D01*
X0168198Y0361800D01*
X0168198Y0390400D01*
X0154798Y0390600D02*
X0154798Y0362200D01*
X0168198Y0361800D02*
X0181398Y0361800D01*
X0181398Y0390400D01*
X0194998Y0390600D02*
X0194998Y0361800D01*
X0208998Y0361800D01*
X0208998Y0390400D01*
X0194998Y0390600D02*
X0141198Y0390600D01*
X0126798Y0390400D02*
X0126798Y0361800D01*
X0141198Y0361800D01*
X0126798Y0361800D02*
X0112198Y0361800D01*
X0144828Y0328295D02*
X0145962Y0328295D01*
X0145395Y0328295D02*
X0145395Y0325459D01*
X0144828Y0324892D01*
X0144261Y0324892D01*
X0143694Y0325459D01*
X0147377Y0325459D02*
X0147944Y0324892D01*
X0149078Y0324892D01*
X0149645Y0325459D01*
X0149645Y0327728D01*
X0149078Y0328295D01*
X0147944Y0328295D01*
X0147377Y0327728D01*
X0147377Y0327161D01*
X0147944Y0326594D01*
X0149645Y0326594D01*
X0154949Y0305603D02*
X0154949Y0302767D01*
X0155516Y0302200D01*
X0156650Y0302200D01*
X0157217Y0302767D01*
X0157217Y0305603D01*
X0158632Y0305036D02*
X0159199Y0305603D01*
X0160333Y0305603D01*
X0160901Y0305036D01*
X0160901Y0304469D01*
X0158632Y0302200D01*
X0160901Y0302200D01*
X0165249Y0300700D02*
X0165249Y0297400D01*
X0165249Y0295000D01*
X0165249Y0291600D01*
X0147798Y0291600D02*
X0147798Y0300700D01*
X0204649Y0300700D02*
X0204649Y0291600D01*
X0213158Y0324892D02*
X0213726Y0324892D01*
X0214293Y0325459D01*
X0214293Y0328295D01*
X0213726Y0328295D02*
X0214860Y0328295D01*
X0216274Y0327161D02*
X0217409Y0328295D01*
X0217409Y0324892D01*
X0218543Y0324892D02*
X0216274Y0324892D01*
X0213158Y0324892D02*
X0212591Y0325459D01*
X0219958Y0325459D02*
X0222226Y0327728D01*
X0222226Y0325459D01*
X0221659Y0324892D01*
X0220525Y0324892D01*
X0219958Y0325459D01*
X0219958Y0327728D01*
X0220525Y0328295D01*
X0221659Y0328295D01*
X0222226Y0327728D01*
X0222798Y0361800D02*
X0208998Y0361800D01*
X0194998Y0361800D02*
X0181398Y0361800D01*
X0194998Y0390600D02*
X0235598Y0390600D01*
X0235598Y0361800D01*
X0249798Y0361800D01*
X0249798Y0390400D01*
X0235598Y0390600D02*
X0264798Y0390600D01*
X0264798Y0361800D01*
X0264998Y0361600D01*
X0249798Y0361800D02*
X0305398Y0361800D01*
X0305398Y0390600D01*
X0264798Y0390600D01*
X0278798Y0390800D02*
X0278798Y0361600D01*
X0291598Y0362000D02*
X0291598Y0390800D01*
X0305398Y0390600D02*
X0319398Y0390600D01*
X0319398Y0361800D01*
X0332998Y0361800D01*
X0332998Y0390600D01*
X0319398Y0390600D01*
X0332998Y0390600D02*
X0361398Y0390600D01*
X0361398Y0362000D01*
X0347598Y0362000D02*
X0347598Y0390400D01*
X0361398Y0390600D02*
X0388798Y0390600D01*
X0388798Y0361800D01*
X0374798Y0361800D01*
X0374798Y0390400D01*
X0374798Y0361800D02*
X0332998Y0361800D01*
X0319398Y0361800D02*
X0305398Y0361800D01*
X0289990Y0328295D02*
X0288855Y0327161D01*
X0289990Y0328295D02*
X0289990Y0324892D01*
X0291124Y0324892D02*
X0288855Y0324892D01*
X0287441Y0324892D02*
X0285172Y0324892D01*
X0286306Y0324892D02*
X0286306Y0328295D01*
X0285172Y0327161D01*
X0283758Y0328295D02*
X0282623Y0328295D01*
X0283190Y0328295D02*
X0283190Y0325459D01*
X0282623Y0324892D01*
X0282056Y0324892D01*
X0281489Y0325459D01*
X0235598Y0361800D02*
X0222798Y0361800D01*
X0222598Y0362000D01*
X0222598Y0390400D01*
X0351521Y0328295D02*
X0352655Y0328295D01*
X0352088Y0328295D02*
X0352088Y0325459D01*
X0351521Y0324892D01*
X0350954Y0324892D01*
X0350387Y0325459D01*
X0354070Y0324892D02*
X0356338Y0324892D01*
X0355204Y0324892D02*
X0355204Y0328295D01*
X0354070Y0327161D01*
X0357753Y0327728D02*
X0358320Y0328295D01*
X0359454Y0328295D01*
X0360022Y0327728D01*
X0360022Y0327161D01*
X0357753Y0324892D01*
X0360022Y0324892D01*
X0035595Y0222710D02*
X0033327Y0222710D01*
X0034461Y0222710D02*
X0034461Y0226113D01*
X0033327Y0224979D01*
X0031912Y0224979D02*
X0031345Y0224412D01*
X0029643Y0224412D01*
X0028229Y0223845D02*
X0028229Y0223277D01*
X0027662Y0222710D01*
X0026527Y0222710D01*
X0025960Y0223277D01*
X0026527Y0224412D02*
X0027662Y0224412D01*
X0028229Y0223845D01*
X0028229Y0225546D02*
X0027662Y0226113D01*
X0026527Y0226113D01*
X0025960Y0225546D01*
X0025960Y0224979D01*
X0026527Y0224412D01*
X0024546Y0223277D02*
X0024546Y0226113D01*
X0022277Y0226113D02*
X0022277Y0223277D01*
X0022844Y0222710D01*
X0023979Y0222710D01*
X0024546Y0223277D01*
X0029643Y0222710D02*
X0031345Y0222710D01*
X0031912Y0223277D01*
X0031912Y0223845D01*
X0031345Y0224412D01*
X0031912Y0224979D02*
X0031912Y0225546D01*
X0031345Y0226113D01*
X0029643Y0226113D01*
X0029643Y0222710D01*
X0028298Y0185841D02*
X0027164Y0185841D01*
X0026597Y0185274D01*
X0025182Y0185841D02*
X0024048Y0185841D01*
X0024615Y0185841D02*
X0024615Y0183005D01*
X0024048Y0182438D01*
X0023481Y0182438D01*
X0022913Y0183005D01*
X0026597Y0183005D02*
X0027164Y0182438D01*
X0028298Y0182438D01*
X0028865Y0183005D01*
X0028865Y0183572D01*
X0028298Y0184139D01*
X0027731Y0184139D01*
X0028298Y0184139D02*
X0028865Y0184706D01*
X0028865Y0185274D01*
X0028298Y0185841D01*
D12*
X0057624Y0187082D02*
X0065734Y0187082D01*
X0065734Y0197318D02*
X0057624Y0197318D01*
X0058024Y0205082D02*
X0066134Y0205082D01*
X0066134Y0215318D02*
X0058024Y0215318D01*
X0079390Y0134200D02*
X0079390Y0125000D01*
X0095807Y0125000D01*
X0095807Y0134200D01*
X0079390Y0134200D01*
X0162998Y0103808D02*
X0162998Y0087392D01*
X0202198Y0087392D01*
X0202198Y0103808D01*
X0162998Y0103808D01*
X0252998Y0103808D02*
X0252998Y0087392D01*
X0292198Y0087392D01*
X0292198Y0103808D01*
X0252998Y0103808D01*
X0102821Y0308700D02*
X0102821Y0309401D01*
X0105623Y0312203D01*
X0105623Y0312904D01*
X0102821Y0312904D01*
X0099618Y0312904D02*
X0099618Y0308700D01*
X0098217Y0308700D02*
X0101019Y0308700D01*
X0098217Y0311502D02*
X0099618Y0312904D01*
X0096415Y0312203D02*
X0093613Y0309401D01*
X0094313Y0308700D01*
X0095715Y0308700D01*
X0096415Y0309401D01*
X0096415Y0312203D01*
X0095715Y0312904D01*
X0094313Y0312904D01*
X0093613Y0312203D01*
X0093613Y0309401D01*
X0091811Y0308700D02*
X0089009Y0308700D01*
X0091811Y0311502D01*
X0091811Y0312203D01*
X0091111Y0312904D01*
X0089709Y0312904D01*
X0089009Y0312203D01*
X0088498Y0315500D02*
X0087698Y0316100D01*
X0087298Y0315900D01*
X0086698Y0317500D01*
X0085498Y0317500D02*
X0084898Y0315900D01*
X0084498Y0316100D01*
X0083698Y0315500D01*
X0082998Y0316100D01*
X0083598Y0317000D01*
X0083198Y0317900D01*
X0082198Y0318100D01*
X0082198Y0319000D01*
X0083298Y0319200D01*
X0083598Y0320100D01*
X0082998Y0321000D01*
X0083698Y0321700D01*
X0084598Y0321000D01*
X0085398Y0321400D01*
X0085698Y0322500D01*
X0086598Y0322500D01*
X0086798Y0321400D01*
X0087598Y0321000D01*
X0088498Y0321700D01*
X0089198Y0321000D01*
X0088598Y0320100D01*
X0088998Y0319200D01*
X0089998Y0319000D01*
X0089998Y0318100D01*
X0088998Y0317900D01*
X0088598Y0317000D01*
X0089198Y0316100D01*
X0088498Y0315500D01*
X0086698Y0317500D02*
X0086757Y0317536D01*
X0086813Y0317575D01*
X0086868Y0317618D01*
X0086920Y0317663D01*
X0086969Y0317711D01*
X0087015Y0317762D01*
X0087059Y0317816D01*
X0087099Y0317872D01*
X0087136Y0317930D01*
X0087170Y0317990D01*
X0087200Y0318052D01*
X0087226Y0318116D01*
X0087249Y0318181D01*
X0087268Y0318247D01*
X0087284Y0318314D01*
X0087295Y0318382D01*
X0087303Y0318450D01*
X0087307Y0318519D01*
X0087306Y0318588D01*
X0087302Y0318657D01*
X0087294Y0318725D01*
X0087282Y0318793D01*
X0087266Y0318860D01*
X0087247Y0318926D01*
X0087224Y0318991D01*
X0087197Y0319055D01*
X0087166Y0319116D01*
X0087132Y0319176D01*
X0087095Y0319234D01*
X0087054Y0319290D01*
X0087010Y0319343D01*
X0086964Y0319394D01*
X0086914Y0319442D01*
X0086862Y0319487D01*
X0086807Y0319529D01*
X0086751Y0319568D01*
X0086691Y0319603D01*
X0086630Y0319635D01*
X0086568Y0319664D01*
X0086504Y0319689D01*
X0086438Y0319710D01*
X0086371Y0319728D01*
X0086304Y0319741D01*
X0086236Y0319751D01*
X0086167Y0319757D01*
X0086098Y0319759D01*
X0086029Y0319757D01*
X0085960Y0319751D01*
X0085892Y0319741D01*
X0085825Y0319728D01*
X0085758Y0319710D01*
X0085692Y0319689D01*
X0085628Y0319664D01*
X0085566Y0319635D01*
X0085505Y0319603D01*
X0085445Y0319568D01*
X0085389Y0319529D01*
X0085334Y0319487D01*
X0085282Y0319442D01*
X0085232Y0319394D01*
X0085186Y0319343D01*
X0085142Y0319290D01*
X0085101Y0319234D01*
X0085064Y0319176D01*
X0085030Y0319116D01*
X0084999Y0319055D01*
X0084972Y0318991D01*
X0084949Y0318926D01*
X0084930Y0318860D01*
X0084914Y0318793D01*
X0084902Y0318725D01*
X0084894Y0318657D01*
X0084890Y0318588D01*
X0084889Y0318519D01*
X0084893Y0318450D01*
X0084901Y0318382D01*
X0084912Y0318314D01*
X0084928Y0318247D01*
X0084947Y0318181D01*
X0084970Y0318116D01*
X0084996Y0318052D01*
X0085026Y0317990D01*
X0085060Y0317930D01*
X0085097Y0317872D01*
X0085137Y0317816D01*
X0085181Y0317762D01*
X0085227Y0317711D01*
X0085276Y0317663D01*
X0085328Y0317618D01*
X0085383Y0317575D01*
X0085439Y0317536D01*
X0085498Y0317500D01*
X0082036Y0312203D02*
X0082036Y0309401D01*
X0082737Y0308700D01*
X0082737Y0311502D02*
X0081336Y0311502D01*
X0079534Y0310802D02*
X0079534Y0309401D01*
X0078834Y0308700D01*
X0076732Y0308700D01*
X0076732Y0307299D02*
X0076732Y0311502D01*
X0078834Y0311502D01*
X0079534Y0310802D01*
X0074930Y0310802D02*
X0074930Y0310101D01*
X0072128Y0310101D01*
X0072128Y0309401D02*
X0072128Y0310802D01*
X0072828Y0311502D01*
X0074230Y0311502D01*
X0074930Y0310802D01*
X0074230Y0308700D02*
X0072828Y0308700D01*
X0072128Y0309401D01*
X0070326Y0309401D02*
X0069626Y0308700D01*
X0068225Y0308700D01*
X0067524Y0309401D01*
X0068225Y0310802D02*
X0069626Y0310802D01*
X0070326Y0310101D01*
X0070326Y0309401D01*
X0068225Y0310802D02*
X0067524Y0311502D01*
X0067524Y0312203D01*
X0068225Y0312904D01*
X0069626Y0312904D01*
X0070326Y0312203D01*
X0061118Y0312203D02*
X0060418Y0312904D01*
X0059017Y0312904D01*
X0058316Y0312203D01*
X0061118Y0312203D02*
X0061118Y0311502D01*
X0058316Y0308700D01*
X0061118Y0308700D01*
X0056715Y0308700D02*
X0056014Y0308700D01*
X0056014Y0309401D01*
X0056715Y0309401D01*
X0056715Y0308700D01*
X0054213Y0309401D02*
X0054213Y0312203D01*
X0051410Y0309401D01*
X0052111Y0308700D01*
X0053512Y0308700D01*
X0054213Y0309401D01*
X0054213Y0312203D02*
X0053512Y0312904D01*
X0052111Y0312904D01*
X0051410Y0312203D01*
X0051410Y0309401D01*
X0049609Y0311502D02*
X0048207Y0308700D01*
X0046806Y0311502D01*
X0045005Y0310802D02*
X0045005Y0310101D01*
X0042202Y0310101D01*
X0042202Y0309401D02*
X0042202Y0310802D01*
X0042903Y0311502D01*
X0044304Y0311502D01*
X0045005Y0310802D01*
X0044304Y0308700D02*
X0042903Y0308700D01*
X0042202Y0309401D01*
X0040401Y0308700D02*
X0039000Y0310101D01*
X0039700Y0310101D02*
X0037598Y0310101D01*
X0037598Y0308700D02*
X0037598Y0312904D01*
X0039700Y0312904D01*
X0040401Y0312203D01*
X0040401Y0310802D01*
X0039700Y0310101D01*
X0241893Y0319276D02*
X0241893Y0322078D01*
X0243294Y0323479D01*
X0244695Y0322078D01*
X0244695Y0319276D01*
X0246497Y0319976D02*
X0246497Y0323479D01*
X0244695Y0321377D02*
X0241893Y0321377D01*
X0246497Y0319976D02*
X0247197Y0319276D01*
X0248599Y0319276D01*
X0249299Y0319976D01*
X0249299Y0323479D01*
X0251101Y0323479D02*
X0253903Y0319276D01*
X0255705Y0319976D02*
X0256405Y0319276D01*
X0257806Y0319276D01*
X0258507Y0319976D01*
X0258507Y0320677D01*
X0257806Y0321377D01*
X0257106Y0321377D01*
X0257806Y0321377D02*
X0258507Y0322078D01*
X0258507Y0322779D01*
X0257806Y0323479D01*
X0256405Y0323479D01*
X0255705Y0322779D01*
X0253903Y0323479D02*
X0251101Y0319276D01*
X0323970Y0319276D02*
X0323970Y0322078D01*
X0325371Y0323479D01*
X0326772Y0322078D01*
X0326772Y0319276D01*
X0328574Y0319976D02*
X0329275Y0319276D01*
X0330676Y0319276D01*
X0331376Y0319976D01*
X0331376Y0323479D01*
X0333178Y0323479D02*
X0335980Y0319276D01*
X0337782Y0319276D02*
X0340584Y0322078D01*
X0340584Y0322779D01*
X0339884Y0323479D01*
X0338482Y0323479D01*
X0337782Y0322779D01*
X0335980Y0323479D02*
X0333178Y0319276D01*
X0337782Y0319276D02*
X0340584Y0319276D01*
X0328574Y0319976D02*
X0328574Y0323479D01*
X0326772Y0321377D02*
X0323970Y0321377D01*
D13*
X0232298Y0229600D02*
X0194598Y0229600D01*
X0193498Y0228500D01*
X0193398Y0228300D02*
X0193398Y0176700D01*
X0193298Y0176600D01*
X0223798Y0176600D01*
X0223998Y0176800D01*
X0223998Y0229700D01*
X0232298Y0229600D02*
X0233498Y0228400D01*
X0233498Y0195000D01*
X0221798Y0195000D01*
X0215298Y0194900D02*
X0211798Y0194900D01*
X0204498Y0195000D02*
X0201698Y0195000D01*
X0194898Y0194900D02*
X0193498Y0194900D01*
X0202598Y0176500D02*
X0202698Y0176400D01*
X0202598Y0176500D02*
X0202598Y0229700D01*
X0213498Y0229400D02*
X0213498Y0176800D01*
X0213598Y0176700D01*
X0223798Y0176600D02*
X0232898Y0176600D01*
X0233498Y0177200D01*
X0233498Y0195000D01*
X0233398Y0214000D02*
X0193498Y0214000D01*
D14*
X0191354Y0210899D02*
X0185843Y0210899D01*
X0185843Y0198301D01*
X0191354Y0198301D01*
X0191354Y0210899D01*
X0189096Y0212700D02*
X0188646Y0212250D01*
X0187745Y0212250D01*
X0187295Y0212700D01*
X0186150Y0212700D02*
X0185700Y0212250D01*
X0184799Y0212250D01*
X0184348Y0212700D01*
X0184348Y0214502D01*
X0184799Y0214952D01*
X0185700Y0214952D01*
X0186150Y0214502D01*
X0187295Y0214502D02*
X0187745Y0214952D01*
X0188646Y0214952D01*
X0189096Y0214502D01*
X0189096Y0214052D01*
X0188646Y0213601D01*
X0189096Y0213151D01*
X0189096Y0212700D01*
X0188646Y0213601D02*
X0188196Y0213601D01*
X0195843Y0210899D02*
X0201354Y0210899D01*
X0201354Y0198301D01*
X0195843Y0198301D01*
X0195843Y0210899D01*
X0205843Y0210899D02*
X0205843Y0198301D01*
X0211354Y0198301D01*
X0211354Y0210899D01*
X0205843Y0210899D01*
X0215843Y0210899D02*
X0221354Y0210899D01*
X0221354Y0198301D01*
X0215843Y0198301D01*
X0215843Y0210899D01*
X0216548Y0197352D02*
X0217900Y0197352D01*
X0218350Y0196902D01*
X0218350Y0196001D01*
X0217900Y0195551D01*
X0216548Y0195551D01*
X0216548Y0194650D02*
X0216548Y0197352D01*
X0217449Y0195551D02*
X0218350Y0194650D01*
X0219495Y0194650D02*
X0219495Y0195100D01*
X0221296Y0196902D01*
X0221296Y0197352D01*
X0219495Y0197352D01*
X0221354Y0191899D02*
X0215843Y0191899D01*
X0215843Y0179301D01*
X0221354Y0179301D01*
X0221354Y0191899D01*
X0211354Y0191899D02*
X0211354Y0179301D01*
X0205843Y0179301D01*
X0205843Y0191899D01*
X0211354Y0191899D01*
X0210446Y0194750D02*
X0209545Y0194750D01*
X0209095Y0195200D01*
X0209095Y0195651D01*
X0209545Y0196101D01*
X0210446Y0196101D01*
X0210896Y0195651D01*
X0210896Y0195200D01*
X0210446Y0194750D01*
X0210446Y0196101D02*
X0210896Y0196552D01*
X0210896Y0197002D01*
X0210446Y0197452D01*
X0209545Y0197452D01*
X0209095Y0197002D01*
X0209095Y0196552D01*
X0209545Y0196101D01*
X0207950Y0196101D02*
X0207500Y0195651D01*
X0206148Y0195651D01*
X0206148Y0194750D02*
X0206148Y0197452D01*
X0207500Y0197452D01*
X0207950Y0197002D01*
X0207950Y0196101D01*
X0207049Y0195651D02*
X0207950Y0194750D01*
X0201354Y0191899D02*
X0201354Y0179301D01*
X0195843Y0179301D01*
X0195843Y0191899D01*
X0201354Y0191899D01*
X0200246Y0194650D02*
X0200696Y0195100D01*
X0200696Y0196902D01*
X0200246Y0197352D01*
X0199345Y0197352D01*
X0198895Y0196902D01*
X0198895Y0196452D01*
X0199345Y0196001D01*
X0200696Y0196001D01*
X0200246Y0194650D02*
X0199345Y0194650D01*
X0198895Y0195100D01*
X0197750Y0194650D02*
X0196849Y0195551D01*
X0197300Y0195551D02*
X0195948Y0195551D01*
X0195948Y0194650D02*
X0195948Y0197352D01*
X0197300Y0197352D01*
X0197750Y0196902D01*
X0197750Y0196001D01*
X0197300Y0195551D01*
X0191354Y0191899D02*
X0191354Y0179301D01*
X0185843Y0179301D01*
X0185843Y0191899D01*
X0191354Y0191899D01*
X0188553Y0177552D02*
X0187202Y0176201D01*
X0189003Y0176201D01*
X0188553Y0174850D02*
X0188553Y0177552D01*
X0186057Y0177102D02*
X0185607Y0177552D01*
X0184706Y0177552D01*
X0184255Y0177102D01*
X0184255Y0175300D01*
X0184706Y0174850D01*
X0185607Y0174850D01*
X0186057Y0175300D01*
X0194009Y0174852D02*
X0195360Y0174852D01*
X0195810Y0174402D01*
X0195810Y0173501D01*
X0195360Y0173051D01*
X0194009Y0173051D01*
X0194910Y0173051D02*
X0195810Y0172150D01*
X0196955Y0172150D02*
X0198757Y0172150D01*
X0197856Y0172150D02*
X0197856Y0174852D01*
X0196955Y0173952D01*
X0199902Y0174402D02*
X0200352Y0174852D01*
X0201253Y0174852D01*
X0201703Y0174402D01*
X0201703Y0173952D01*
X0199902Y0172150D01*
X0201703Y0172150D01*
X0204709Y0172050D02*
X0204709Y0174752D01*
X0206060Y0174752D01*
X0206510Y0174302D01*
X0206510Y0173401D01*
X0206060Y0172951D01*
X0204709Y0172951D01*
X0205610Y0172951D02*
X0206510Y0172050D01*
X0207655Y0172050D02*
X0209457Y0172050D01*
X0208556Y0172050D02*
X0208556Y0174752D01*
X0207655Y0173852D01*
X0210602Y0173852D02*
X0211503Y0174752D01*
X0211503Y0172050D01*
X0212403Y0172050D02*
X0210602Y0172050D01*
X0214509Y0171850D02*
X0214509Y0174552D01*
X0215860Y0174552D01*
X0216310Y0174102D01*
X0216310Y0173201D01*
X0215860Y0172751D01*
X0214509Y0172751D01*
X0215410Y0172751D02*
X0216310Y0171850D01*
X0217455Y0171850D02*
X0219257Y0171850D01*
X0218356Y0171850D02*
X0218356Y0174552D01*
X0217455Y0173652D01*
X0220402Y0174102D02*
X0220852Y0174552D01*
X0221753Y0174552D01*
X0222203Y0174102D01*
X0220402Y0172300D01*
X0220852Y0171850D01*
X0221753Y0171850D01*
X0222203Y0172300D01*
X0222203Y0174102D01*
X0220402Y0174102D02*
X0220402Y0172300D01*
X0235448Y0186050D02*
X0235448Y0188752D01*
X0236800Y0188752D01*
X0237250Y0188302D01*
X0237250Y0186500D01*
X0236800Y0186050D01*
X0235448Y0186050D01*
X0238395Y0186500D02*
X0238395Y0187401D01*
X0239746Y0187401D01*
X0240196Y0186951D01*
X0240196Y0186500D01*
X0239746Y0186050D01*
X0238845Y0186050D01*
X0238395Y0186500D01*
X0238395Y0187401D02*
X0239296Y0188302D01*
X0240196Y0188752D01*
X0240299Y0189844D02*
X0240299Y0195356D01*
X0252898Y0195356D01*
X0252898Y0189844D01*
X0240299Y0189844D01*
X0242559Y0196350D02*
X0243460Y0196350D01*
X0243910Y0196800D01*
X0245055Y0196350D02*
X0246857Y0198152D01*
X0246857Y0198602D01*
X0246407Y0199052D01*
X0245506Y0199052D01*
X0245055Y0198602D01*
X0243910Y0198602D02*
X0243460Y0199052D01*
X0242559Y0199052D01*
X0242109Y0198602D01*
X0242109Y0196800D01*
X0242559Y0196350D01*
X0245055Y0196350D02*
X0246857Y0196350D01*
X0248002Y0196350D02*
X0249803Y0198152D01*
X0249803Y0198602D01*
X0249353Y0199052D01*
X0248452Y0199052D01*
X0248002Y0198602D01*
X0248002Y0196350D02*
X0249803Y0196350D01*
X0254448Y0188552D02*
X0255800Y0188552D01*
X0256250Y0188102D01*
X0256250Y0186300D01*
X0255800Y0185850D01*
X0254448Y0185850D01*
X0254448Y0188552D01*
X0257395Y0188552D02*
X0257395Y0187201D01*
X0258296Y0187652D01*
X0258746Y0187652D01*
X0259196Y0187201D01*
X0259196Y0186300D01*
X0258746Y0185850D01*
X0257845Y0185850D01*
X0257395Y0186300D01*
X0257395Y0188552D02*
X0259196Y0188552D01*
X0259299Y0189844D02*
X0259299Y0195356D01*
X0271898Y0195356D01*
X0271898Y0189844D01*
X0259299Y0189844D01*
X0261859Y0196250D02*
X0261409Y0196700D01*
X0261409Y0198502D01*
X0261859Y0198952D01*
X0262760Y0198952D01*
X0263210Y0198502D01*
X0264355Y0198502D02*
X0264806Y0198952D01*
X0265707Y0198952D01*
X0266157Y0198502D01*
X0266157Y0198052D01*
X0264355Y0196250D01*
X0266157Y0196250D01*
X0267302Y0196250D02*
X0269103Y0196250D01*
X0268203Y0196250D02*
X0268203Y0198952D01*
X0267302Y0198052D01*
X0263210Y0196700D02*
X0262760Y0196250D01*
X0261859Y0196250D01*
X0273848Y0188552D02*
X0273848Y0185850D01*
X0275200Y0185850D01*
X0275650Y0186300D01*
X0275650Y0188102D01*
X0275200Y0188552D01*
X0273848Y0188552D01*
X0276795Y0187201D02*
X0278596Y0187201D01*
X0278146Y0185850D02*
X0278146Y0188552D01*
X0276795Y0187201D01*
X0278299Y0189844D02*
X0278299Y0195356D01*
X0290898Y0195356D01*
X0290898Y0189844D01*
X0278299Y0189844D01*
X0281159Y0196250D02*
X0282060Y0196250D01*
X0282510Y0196700D01*
X0283655Y0196250D02*
X0285457Y0198052D01*
X0285457Y0198502D01*
X0285007Y0198952D01*
X0284106Y0198952D01*
X0283655Y0198502D01*
X0282510Y0198502D02*
X0282060Y0198952D01*
X0281159Y0198952D01*
X0280709Y0198502D01*
X0280709Y0196700D01*
X0281159Y0196250D01*
X0283655Y0196250D02*
X0285457Y0196250D01*
X0286602Y0196700D02*
X0288403Y0198502D01*
X0288403Y0196700D01*
X0287953Y0196250D01*
X0287052Y0196250D01*
X0286602Y0196700D01*
X0286602Y0198502D01*
X0287052Y0198952D01*
X0287953Y0198952D01*
X0288403Y0198502D01*
X0297299Y0195356D02*
X0297299Y0189844D01*
X0309898Y0189844D01*
X0309898Y0195356D01*
X0297299Y0195356D01*
X0299409Y0196700D02*
X0299859Y0196250D01*
X0300760Y0196250D01*
X0301210Y0196700D01*
X0302355Y0196250D02*
X0304157Y0196250D01*
X0303256Y0196250D02*
X0303256Y0198952D01*
X0302355Y0198052D01*
X0301210Y0198502D02*
X0300760Y0198952D01*
X0299859Y0198952D01*
X0299409Y0198502D01*
X0299409Y0196700D01*
X0305302Y0196700D02*
X0305752Y0196250D01*
X0306653Y0196250D01*
X0307103Y0196700D01*
X0307103Y0198502D01*
X0306653Y0198952D01*
X0305752Y0198952D01*
X0305302Y0198502D01*
X0305302Y0198052D01*
X0305752Y0197601D01*
X0307103Y0197601D01*
X0308748Y0188152D02*
X0310100Y0188152D01*
X0310550Y0187702D01*
X0310550Y0185900D01*
X0310100Y0185450D01*
X0308748Y0185450D01*
X0308748Y0188152D01*
X0311695Y0187702D02*
X0312145Y0188152D01*
X0313046Y0188152D01*
X0313496Y0187702D01*
X0313496Y0187252D01*
X0313046Y0186801D01*
X0313496Y0186351D01*
X0313496Y0185900D01*
X0313046Y0185450D01*
X0312145Y0185450D01*
X0311695Y0185900D01*
X0312596Y0186801D02*
X0313046Y0186801D01*
X0310843Y0131899D02*
X0316354Y0131899D01*
X0316354Y0119301D01*
X0310843Y0119301D01*
X0310843Y0131899D01*
X0305354Y0131899D02*
X0299843Y0131899D01*
X0299843Y0119301D01*
X0305354Y0119301D01*
X0305354Y0131899D01*
X0305692Y0118452D02*
X0305241Y0118002D01*
X0305692Y0118452D02*
X0306593Y0118452D01*
X0307043Y0118002D01*
X0307043Y0117552D01*
X0305241Y0115750D01*
X0307043Y0115750D01*
X0309648Y0115850D02*
X0309648Y0118552D01*
X0311000Y0118552D01*
X0311450Y0118102D01*
X0311450Y0117201D01*
X0311000Y0116751D01*
X0309648Y0116751D01*
X0310549Y0116751D02*
X0311450Y0115850D01*
X0312595Y0116300D02*
X0313045Y0115850D01*
X0313946Y0115850D01*
X0314396Y0116300D01*
X0314396Y0116751D01*
X0313946Y0117201D01*
X0313496Y0117201D01*
X0313946Y0117201D02*
X0314396Y0117652D01*
X0314396Y0118102D01*
X0313946Y0118552D01*
X0313045Y0118552D01*
X0312595Y0118102D01*
X0315541Y0118102D02*
X0315992Y0118552D01*
X0316893Y0118552D01*
X0317343Y0118102D01*
X0317343Y0117652D01*
X0316893Y0117201D01*
X0317343Y0116751D01*
X0317343Y0116300D01*
X0316893Y0115850D01*
X0315992Y0115850D01*
X0315541Y0116300D01*
X0316442Y0117201D02*
X0316893Y0117201D01*
X0320248Y0116851D02*
X0321600Y0116851D01*
X0322050Y0117301D01*
X0322050Y0118202D01*
X0321600Y0118652D01*
X0320248Y0118652D01*
X0320248Y0115950D01*
X0321149Y0116851D02*
X0322050Y0115950D01*
X0323195Y0117301D02*
X0324996Y0117301D01*
X0326141Y0117301D02*
X0327943Y0117301D01*
X0327493Y0115950D02*
X0327493Y0118652D01*
X0326141Y0117301D01*
X0326354Y0119301D02*
X0320843Y0119301D01*
X0320843Y0131899D01*
X0326354Y0131899D01*
X0326354Y0119301D01*
X0324546Y0118652D02*
X0323195Y0117301D01*
X0324546Y0115950D02*
X0324546Y0118652D01*
X0329748Y0118652D02*
X0331100Y0118652D01*
X0331550Y0118202D01*
X0331550Y0117301D01*
X0331100Y0116851D01*
X0329748Y0116851D01*
X0329748Y0115950D02*
X0329748Y0118652D01*
X0330843Y0119301D02*
X0336354Y0119301D01*
X0336354Y0131899D01*
X0330843Y0131899D01*
X0330843Y0119301D01*
X0330649Y0116851D02*
X0331550Y0115950D01*
X0332695Y0117301D02*
X0334496Y0117301D01*
X0334046Y0115950D02*
X0334046Y0118652D01*
X0332695Y0117301D01*
X0335641Y0116400D02*
X0336092Y0115950D01*
X0336993Y0115950D01*
X0337443Y0116400D01*
X0337443Y0116851D01*
X0336993Y0117301D01*
X0336542Y0117301D01*
X0336993Y0117301D02*
X0337443Y0117752D01*
X0337443Y0118202D01*
X0336993Y0118652D01*
X0336092Y0118652D01*
X0335641Y0118202D01*
X0340109Y0118752D02*
X0341460Y0118752D01*
X0341910Y0118302D01*
X0341910Y0117401D01*
X0341460Y0116951D01*
X0340109Y0116951D01*
X0341010Y0116951D02*
X0341910Y0116050D01*
X0343055Y0117401D02*
X0344857Y0117401D01*
X0344407Y0116050D02*
X0344407Y0118752D01*
X0343055Y0117401D01*
X0340843Y0119301D02*
X0346354Y0119301D01*
X0346354Y0131899D01*
X0340843Y0131899D01*
X0340843Y0119301D01*
X0340109Y0118752D02*
X0340109Y0116050D01*
X0346002Y0116050D02*
X0347803Y0117852D01*
X0347803Y0118302D01*
X0347353Y0118752D01*
X0346452Y0118752D01*
X0346002Y0118302D01*
X0346002Y0116050D02*
X0347803Y0116050D01*
X0350409Y0115650D02*
X0350409Y0118352D01*
X0351760Y0118352D01*
X0352210Y0117902D01*
X0352210Y0117001D01*
X0351760Y0116551D01*
X0350409Y0116551D01*
X0351310Y0116551D02*
X0352210Y0115650D01*
X0353355Y0117001D02*
X0355157Y0117001D01*
X0354707Y0115650D02*
X0354707Y0118352D01*
X0353355Y0117001D01*
X0356302Y0116100D02*
X0358103Y0117902D01*
X0358103Y0116100D01*
X0357653Y0115650D01*
X0356752Y0115650D01*
X0356302Y0116100D01*
X0356302Y0117902D01*
X0356752Y0118352D01*
X0357653Y0118352D01*
X0358103Y0117902D01*
X0356354Y0119301D02*
X0350843Y0119301D01*
X0350843Y0131899D01*
X0356354Y0131899D01*
X0356354Y0119301D01*
X0355941Y0096552D02*
X0355941Y0095201D01*
X0356842Y0095652D01*
X0357293Y0095652D01*
X0357743Y0095201D01*
X0357743Y0094300D01*
X0357293Y0093850D01*
X0356392Y0093850D01*
X0355941Y0094300D01*
X0354796Y0095201D02*
X0352995Y0095201D01*
X0354346Y0096552D01*
X0354346Y0093850D01*
X0356354Y0092899D02*
X0350843Y0092899D01*
X0350843Y0080301D01*
X0356354Y0080301D01*
X0356354Y0092899D01*
X0355941Y0096552D02*
X0357743Y0096552D01*
X0361843Y0092899D02*
X0367354Y0092899D01*
X0367354Y0080301D01*
X0361843Y0080301D01*
X0361843Y0092899D01*
X0362899Y0093950D02*
X0363800Y0093950D01*
X0364250Y0094400D01*
X0365395Y0094400D02*
X0365845Y0093950D01*
X0366746Y0093950D01*
X0367196Y0094400D01*
X0367196Y0094851D01*
X0366746Y0095301D01*
X0365395Y0095301D01*
X0365395Y0094400D01*
X0365395Y0095301D02*
X0366296Y0096202D01*
X0367196Y0096652D01*
X0364250Y0096202D02*
X0363800Y0096652D01*
X0362899Y0096652D01*
X0362448Y0096202D01*
X0362448Y0094400D01*
X0362899Y0093950D01*
X0351850Y0093850D02*
X0350949Y0094751D01*
X0351400Y0094751D02*
X0350048Y0094751D01*
X0350048Y0093850D02*
X0350048Y0096552D01*
X0351400Y0096552D01*
X0351850Y0096102D01*
X0351850Y0095201D01*
X0351400Y0094751D01*
X0347243Y0094751D02*
X0346793Y0095201D01*
X0345441Y0095201D01*
X0345441Y0094300D01*
X0345892Y0093850D01*
X0346793Y0093850D01*
X0347243Y0094300D01*
X0347243Y0094751D01*
X0346342Y0096102D02*
X0345441Y0095201D01*
X0344296Y0095201D02*
X0342495Y0095201D01*
X0343846Y0096552D01*
X0343846Y0093850D01*
X0341350Y0093850D02*
X0340449Y0094751D01*
X0340900Y0094751D02*
X0339548Y0094751D01*
X0339548Y0093850D02*
X0339548Y0096552D01*
X0340900Y0096552D01*
X0341350Y0096102D01*
X0341350Y0095201D01*
X0340900Y0094751D01*
X0340843Y0092899D02*
X0346354Y0092899D01*
X0346354Y0080301D01*
X0340843Y0080301D01*
X0340843Y0092899D01*
X0337743Y0095902D02*
X0335941Y0094100D01*
X0335941Y0093650D01*
X0336354Y0092899D02*
X0330843Y0092899D01*
X0330843Y0080301D01*
X0336354Y0080301D01*
X0336354Y0092899D01*
X0334346Y0093650D02*
X0334346Y0096352D01*
X0332995Y0095001D01*
X0334796Y0095001D01*
X0335941Y0096352D02*
X0337743Y0096352D01*
X0337743Y0095902D01*
X0331850Y0095902D02*
X0331850Y0095001D01*
X0331400Y0094551D01*
X0330048Y0094551D01*
X0330048Y0093650D02*
X0330048Y0096352D01*
X0331400Y0096352D01*
X0331850Y0095902D01*
X0330949Y0094551D02*
X0331850Y0093650D01*
X0327243Y0094300D02*
X0326793Y0093850D01*
X0325892Y0093850D01*
X0325441Y0094300D01*
X0325441Y0094751D01*
X0325892Y0095201D01*
X0326793Y0095201D01*
X0327243Y0094751D01*
X0327243Y0094300D01*
X0326793Y0095201D02*
X0327243Y0095652D01*
X0327243Y0096102D01*
X0326793Y0096552D01*
X0325892Y0096552D01*
X0325441Y0096102D01*
X0325441Y0095652D01*
X0325892Y0095201D01*
X0324296Y0095201D02*
X0322495Y0095201D01*
X0323846Y0096552D01*
X0323846Y0093850D01*
X0321350Y0093850D02*
X0320449Y0094751D01*
X0320900Y0094751D02*
X0319548Y0094751D01*
X0319548Y0093850D02*
X0319548Y0096552D01*
X0320900Y0096552D01*
X0321350Y0096102D01*
X0321350Y0095201D01*
X0320900Y0094751D01*
X0320843Y0092899D02*
X0326354Y0092899D01*
X0326354Y0080301D01*
X0320843Y0080301D01*
X0320843Y0092899D01*
X0315903Y0094000D02*
X0315453Y0093550D01*
X0314552Y0093550D01*
X0314102Y0094000D01*
X0314102Y0094901D02*
X0315003Y0095352D01*
X0315453Y0095352D01*
X0315903Y0094901D01*
X0315903Y0094000D01*
X0315354Y0092899D02*
X0315354Y0080301D01*
X0309843Y0080301D01*
X0309843Y0092899D01*
X0315354Y0092899D01*
X0314102Y0094901D02*
X0314102Y0096252D01*
X0315903Y0096252D01*
X0315354Y0099301D02*
X0309843Y0099301D01*
X0309843Y0111899D01*
X0315354Y0111899D01*
X0315354Y0099301D01*
X0312056Y0096252D02*
X0312056Y0093550D01*
X0311155Y0093550D02*
X0312957Y0093550D01*
X0311155Y0095352D02*
X0312056Y0096252D01*
X0310010Y0095802D02*
X0310010Y0094901D01*
X0309560Y0094451D01*
X0308209Y0094451D01*
X0309110Y0094451D02*
X0310010Y0093550D01*
X0308209Y0093550D02*
X0308209Y0096252D01*
X0309560Y0096252D01*
X0310010Y0095802D01*
X0306003Y0095802D02*
X0306003Y0095352D01*
X0305553Y0094901D01*
X0306003Y0094451D01*
X0306003Y0094000D01*
X0305553Y0093550D01*
X0304652Y0093550D01*
X0304202Y0094000D01*
X0303057Y0093550D02*
X0301255Y0093550D01*
X0302156Y0093550D02*
X0302156Y0096252D01*
X0301255Y0095352D01*
X0300110Y0095802D02*
X0300110Y0094901D01*
X0299660Y0094451D01*
X0298309Y0094451D01*
X0299210Y0094451D02*
X0300110Y0093550D01*
X0299843Y0092899D02*
X0305354Y0092899D01*
X0305354Y0080301D01*
X0299843Y0080301D01*
X0299843Y0092899D01*
X0298309Y0093550D02*
X0298309Y0096252D01*
X0299660Y0096252D01*
X0300110Y0095802D01*
X0299843Y0099301D02*
X0299843Y0111899D01*
X0305354Y0111899D01*
X0305354Y0099301D01*
X0299843Y0099301D01*
X0304202Y0095802D02*
X0304652Y0096252D01*
X0305553Y0096252D01*
X0306003Y0095802D01*
X0305553Y0094901D02*
X0305103Y0094901D01*
X0316548Y0106950D02*
X0316548Y0109652D01*
X0317900Y0109652D01*
X0318350Y0109202D01*
X0318350Y0108301D01*
X0317900Y0107851D01*
X0316548Y0107851D01*
X0317449Y0107851D02*
X0318350Y0106950D01*
X0319495Y0106950D02*
X0321296Y0108752D01*
X0321296Y0109202D01*
X0320846Y0109652D01*
X0319945Y0109652D01*
X0319495Y0109202D01*
X0319495Y0106950D02*
X0321296Y0106950D01*
X0322441Y0107400D02*
X0322441Y0107851D01*
X0322892Y0108301D01*
X0323793Y0108301D01*
X0324243Y0107851D01*
X0324243Y0107400D01*
X0323793Y0106950D01*
X0322892Y0106950D01*
X0322441Y0107400D01*
X0322892Y0108301D02*
X0322441Y0108752D01*
X0322441Y0109202D01*
X0322892Y0109652D01*
X0323793Y0109652D01*
X0324243Y0109202D01*
X0324243Y0108752D01*
X0323793Y0108301D01*
X0304096Y0116200D02*
X0303646Y0115750D01*
X0302745Y0115750D01*
X0302295Y0116200D01*
X0301150Y0115750D02*
X0300249Y0116651D01*
X0300700Y0116651D02*
X0299348Y0116651D01*
X0299348Y0115750D02*
X0299348Y0118452D01*
X0300700Y0118452D01*
X0301150Y0118002D01*
X0301150Y0117101D01*
X0300700Y0116651D01*
X0302295Y0118002D02*
X0302745Y0118452D01*
X0303646Y0118452D01*
X0304096Y0118002D01*
X0304096Y0117552D01*
X0303646Y0117101D01*
X0304096Y0116651D01*
X0304096Y0116200D01*
X0303646Y0117101D02*
X0303196Y0117101D01*
X0299343Y0114552D02*
X0298442Y0114102D01*
X0297541Y0113201D01*
X0298893Y0113201D01*
X0299343Y0112751D01*
X0299343Y0112300D01*
X0298893Y0111850D01*
X0297992Y0111850D01*
X0297541Y0112300D01*
X0297541Y0113201D01*
X0296396Y0113652D02*
X0296396Y0114102D01*
X0295946Y0114552D01*
X0295045Y0114552D01*
X0294595Y0114102D01*
X0293450Y0114102D02*
X0293450Y0113201D01*
X0293000Y0112751D01*
X0291648Y0112751D01*
X0291648Y0111850D02*
X0291648Y0114552D01*
X0293000Y0114552D01*
X0293450Y0114102D01*
X0292549Y0112751D02*
X0293450Y0111850D01*
X0294595Y0111850D02*
X0296396Y0113652D01*
X0296396Y0111850D02*
X0294595Y0111850D01*
X0287696Y0116300D02*
X0287696Y0118102D01*
X0287246Y0118552D01*
X0286345Y0118552D01*
X0285895Y0118102D01*
X0285895Y0117652D01*
X0286345Y0117201D01*
X0287696Y0117201D01*
X0287696Y0116300D02*
X0287246Y0115850D01*
X0286345Y0115850D01*
X0285895Y0116300D01*
X0284750Y0116300D02*
X0284300Y0115850D01*
X0283399Y0115850D01*
X0282948Y0116300D01*
X0282948Y0118102D01*
X0283399Y0118552D01*
X0284300Y0118552D01*
X0284750Y0118102D01*
X0283843Y0119301D02*
X0283843Y0131899D01*
X0289354Y0131899D01*
X0289354Y0119301D01*
X0283843Y0119301D01*
X0279543Y0118102D02*
X0277741Y0116300D01*
X0278192Y0115850D01*
X0279093Y0115850D01*
X0279543Y0116300D01*
X0279543Y0118102D01*
X0279093Y0118552D01*
X0278192Y0118552D01*
X0277741Y0118102D01*
X0277741Y0116300D01*
X0276596Y0115850D02*
X0274795Y0115850D01*
X0275696Y0115850D02*
X0275696Y0118552D01*
X0274795Y0117652D01*
X0273650Y0118102D02*
X0273200Y0118552D01*
X0272299Y0118552D01*
X0271848Y0118102D01*
X0271848Y0116300D01*
X0272299Y0115850D01*
X0273200Y0115850D01*
X0273650Y0116300D01*
X0272843Y0119301D02*
X0272843Y0131899D01*
X0278354Y0131899D01*
X0278354Y0119301D01*
X0272843Y0119301D01*
X0267354Y0119301D02*
X0261843Y0119301D01*
X0261843Y0131899D01*
X0267354Y0131899D01*
X0267354Y0119301D01*
X0266646Y0118752D02*
X0267096Y0118302D01*
X0267096Y0117852D01*
X0266646Y0117401D01*
X0265745Y0117401D01*
X0265295Y0117852D01*
X0265295Y0118302D01*
X0265745Y0118752D01*
X0266646Y0118752D01*
X0266646Y0117401D02*
X0267096Y0116951D01*
X0267096Y0116500D01*
X0266646Y0116050D01*
X0265745Y0116050D01*
X0265295Y0116500D01*
X0265295Y0116951D01*
X0265745Y0117401D01*
X0264150Y0116500D02*
X0263700Y0116050D01*
X0262799Y0116050D01*
X0262348Y0116500D01*
X0262348Y0118302D01*
X0262799Y0118752D01*
X0263700Y0118752D01*
X0264150Y0118302D01*
X0256354Y0119301D02*
X0250843Y0119301D01*
X0250843Y0131899D01*
X0256354Y0131899D01*
X0256354Y0119301D01*
X0256196Y0118052D02*
X0256196Y0117602D01*
X0254395Y0115800D01*
X0254395Y0115350D01*
X0253250Y0115800D02*
X0252800Y0115350D01*
X0251899Y0115350D01*
X0251448Y0115800D01*
X0251448Y0117602D01*
X0251899Y0118052D01*
X0252800Y0118052D01*
X0253250Y0117602D01*
X0254395Y0118052D02*
X0256196Y0118052D01*
X0246843Y0118102D02*
X0245041Y0116300D01*
X0245492Y0115850D01*
X0246393Y0115850D01*
X0246843Y0116300D01*
X0246843Y0118102D01*
X0246393Y0118552D01*
X0245492Y0118552D01*
X0245041Y0118102D01*
X0245041Y0116300D01*
X0243896Y0116300D02*
X0243446Y0115850D01*
X0242545Y0115850D01*
X0242095Y0116300D01*
X0240950Y0115850D02*
X0240049Y0116751D01*
X0240500Y0116751D02*
X0239148Y0116751D01*
X0239148Y0115850D02*
X0239148Y0118552D01*
X0240500Y0118552D01*
X0240950Y0118102D01*
X0240950Y0117201D01*
X0240500Y0116751D01*
X0242095Y0118102D02*
X0242545Y0118552D01*
X0243446Y0118552D01*
X0243896Y0118102D01*
X0243896Y0117652D01*
X0243446Y0117201D01*
X0243896Y0116751D01*
X0243896Y0116300D01*
X0243446Y0117201D02*
X0242996Y0117201D01*
X0245354Y0119301D02*
X0239843Y0119301D01*
X0239843Y0131899D01*
X0245354Y0131899D01*
X0245354Y0119301D01*
X0245354Y0111899D02*
X0239843Y0111899D01*
X0239843Y0099301D01*
X0245354Y0099301D01*
X0245354Y0111899D01*
X0236343Y0115750D02*
X0234541Y0115750D01*
X0235442Y0115750D02*
X0235442Y0118452D01*
X0234541Y0117552D01*
X0233396Y0117552D02*
X0232946Y0117101D01*
X0233396Y0116651D01*
X0233396Y0116200D01*
X0232946Y0115750D01*
X0232045Y0115750D01*
X0231595Y0116200D01*
X0230450Y0115750D02*
X0229549Y0116651D01*
X0230000Y0116651D02*
X0228648Y0116651D01*
X0228648Y0115750D02*
X0228648Y0118452D01*
X0230000Y0118452D01*
X0230450Y0118002D01*
X0230450Y0117101D01*
X0230000Y0116651D01*
X0231595Y0118002D02*
X0232045Y0118452D01*
X0232946Y0118452D01*
X0233396Y0118002D01*
X0233396Y0117552D01*
X0232946Y0117101D02*
X0232496Y0117101D01*
X0229843Y0119301D02*
X0229843Y0131899D01*
X0235354Y0131899D01*
X0235354Y0119301D01*
X0229843Y0119301D01*
X0226203Y0118452D02*
X0225303Y0118002D01*
X0224402Y0117101D01*
X0225753Y0117101D01*
X0226203Y0116651D01*
X0226203Y0116200D01*
X0225753Y0115750D01*
X0224852Y0115750D01*
X0224402Y0116200D01*
X0224402Y0117101D01*
X0223257Y0116651D02*
X0223257Y0116200D01*
X0222807Y0115750D01*
X0221906Y0115750D01*
X0221455Y0116200D01*
X0220310Y0115750D02*
X0219410Y0116651D01*
X0219860Y0116651D02*
X0218509Y0116651D01*
X0218509Y0115750D02*
X0218509Y0118452D01*
X0219860Y0118452D01*
X0220310Y0118002D01*
X0220310Y0117101D01*
X0219860Y0116651D01*
X0221455Y0118002D02*
X0221906Y0118452D01*
X0222807Y0118452D01*
X0223257Y0118002D01*
X0223257Y0117552D01*
X0222807Y0117101D01*
X0223257Y0116651D01*
X0222807Y0117101D02*
X0222356Y0117101D01*
X0219843Y0119301D02*
X0225354Y0119301D01*
X0225354Y0131899D01*
X0219843Y0131899D01*
X0219843Y0119301D01*
X0216303Y0118452D02*
X0214502Y0118452D01*
X0214502Y0117101D01*
X0215403Y0117552D01*
X0215853Y0117552D01*
X0216303Y0117101D01*
X0216303Y0116200D01*
X0215853Y0115750D01*
X0214952Y0115750D01*
X0214502Y0116200D01*
X0213357Y0116200D02*
X0212907Y0115750D01*
X0212006Y0115750D01*
X0211555Y0116200D01*
X0210410Y0115750D02*
X0209510Y0116651D01*
X0209960Y0116651D02*
X0208609Y0116651D01*
X0208609Y0115750D02*
X0208609Y0118452D01*
X0209960Y0118452D01*
X0210410Y0118002D01*
X0210410Y0117101D01*
X0209960Y0116651D01*
X0211555Y0118002D02*
X0212006Y0118452D01*
X0212907Y0118452D01*
X0213357Y0118002D01*
X0213357Y0117552D01*
X0212907Y0117101D01*
X0213357Y0116651D01*
X0213357Y0116200D01*
X0212907Y0117101D02*
X0212456Y0117101D01*
X0209843Y0119301D02*
X0215354Y0119301D01*
X0215354Y0131899D01*
X0209843Y0131899D01*
X0209843Y0119301D01*
X0209843Y0111899D02*
X0215354Y0111899D01*
X0215354Y0099301D01*
X0209843Y0099301D01*
X0209843Y0111899D01*
X0219843Y0111899D02*
X0225354Y0111899D01*
X0225354Y0099301D01*
X0219843Y0099301D01*
X0219843Y0111899D01*
X0229843Y0111899D02*
X0235354Y0111899D01*
X0235354Y0099301D01*
X0229843Y0099301D01*
X0229843Y0111899D01*
X0230400Y0098852D02*
X0229048Y0098852D01*
X0229048Y0096150D01*
X0229048Y0097051D02*
X0230400Y0097051D01*
X0230850Y0097501D01*
X0230850Y0098402D01*
X0230400Y0098852D01*
X0231995Y0098402D02*
X0232445Y0098852D01*
X0233346Y0098852D01*
X0233796Y0098402D01*
X0233796Y0097952D01*
X0231995Y0096150D01*
X0233796Y0096150D01*
X0233056Y0095152D02*
X0233056Y0092450D01*
X0232155Y0092450D02*
X0233957Y0092450D01*
X0235102Y0092450D02*
X0235102Y0092900D01*
X0236903Y0094702D01*
X0236903Y0095152D01*
X0235102Y0095152D01*
X0236293Y0096150D02*
X0236293Y0098852D01*
X0234941Y0097501D01*
X0236743Y0097501D01*
X0239948Y0096851D02*
X0241300Y0096851D01*
X0241750Y0097301D01*
X0241750Y0098202D01*
X0241300Y0098652D01*
X0239948Y0098652D01*
X0239948Y0095950D01*
X0239709Y0095152D02*
X0241060Y0095152D01*
X0241510Y0094702D01*
X0241510Y0093801D01*
X0241060Y0093351D01*
X0239709Y0093351D01*
X0240610Y0093351D02*
X0241510Y0092450D01*
X0242655Y0092450D02*
X0244457Y0092450D01*
X0243556Y0092450D02*
X0243556Y0095152D01*
X0242655Y0094252D01*
X0242895Y0095950D02*
X0244696Y0097752D01*
X0244696Y0098202D01*
X0244246Y0098652D01*
X0243345Y0098652D01*
X0242895Y0098202D01*
X0242895Y0095950D02*
X0244696Y0095950D01*
X0245841Y0095950D02*
X0247643Y0097752D01*
X0247643Y0098202D01*
X0247193Y0098652D01*
X0246292Y0098652D01*
X0245841Y0098202D01*
X0245841Y0095950D02*
X0247643Y0095950D01*
X0246953Y0095152D02*
X0246052Y0095152D01*
X0245602Y0094702D01*
X0245602Y0094252D01*
X0246052Y0093801D01*
X0247403Y0093801D01*
X0247403Y0092900D02*
X0247403Y0094702D01*
X0246953Y0095152D01*
X0247403Y0092900D02*
X0246953Y0092450D01*
X0246052Y0092450D01*
X0245602Y0092900D01*
X0245354Y0091899D02*
X0245354Y0079301D01*
X0239843Y0079301D01*
X0239843Y0091899D01*
X0245354Y0091899D01*
X0241750Y0095950D02*
X0240849Y0096851D01*
X0239709Y0095152D02*
X0239709Y0092450D01*
X0235354Y0091899D02*
X0235354Y0079301D01*
X0229843Y0079301D01*
X0229843Y0091899D01*
X0235354Y0091899D01*
X0232155Y0094252D02*
X0233056Y0095152D01*
X0231010Y0094702D02*
X0231010Y0093801D01*
X0230560Y0093351D01*
X0229209Y0093351D01*
X0230110Y0093351D02*
X0231010Y0092450D01*
X0229209Y0092450D02*
X0229209Y0095152D01*
X0230560Y0095152D01*
X0231010Y0094702D01*
X0230850Y0096150D02*
X0229949Y0097051D01*
X0226543Y0098402D02*
X0224741Y0096600D01*
X0224741Y0096150D01*
X0223596Y0096150D02*
X0221795Y0096150D01*
X0223596Y0097952D01*
X0223596Y0098402D01*
X0223146Y0098852D01*
X0222245Y0098852D01*
X0221795Y0098402D01*
X0220650Y0098402D02*
X0220650Y0097501D01*
X0220200Y0097051D01*
X0218848Y0097051D01*
X0218848Y0096150D02*
X0218848Y0098852D01*
X0220200Y0098852D01*
X0220650Y0098402D01*
X0219749Y0097051D02*
X0220650Y0096150D01*
X0219960Y0095452D02*
X0220410Y0095002D01*
X0220410Y0094101D01*
X0219960Y0093651D01*
X0218609Y0093651D01*
X0219510Y0093651D02*
X0220410Y0092750D01*
X0219843Y0091899D02*
X0225354Y0091899D01*
X0225354Y0079301D01*
X0219843Y0079301D01*
X0219843Y0091899D01*
X0218609Y0092750D02*
X0218609Y0095452D01*
X0219960Y0095452D01*
X0221555Y0094552D02*
X0222456Y0095452D01*
X0222456Y0092750D01*
X0221555Y0092750D02*
X0223357Y0092750D01*
X0224502Y0094101D02*
X0226303Y0094101D01*
X0225853Y0092750D02*
X0225853Y0095452D01*
X0224502Y0094101D01*
X0224741Y0098852D02*
X0226543Y0098852D01*
X0226543Y0098402D01*
X0216643Y0098552D02*
X0214841Y0098552D01*
X0214841Y0097201D01*
X0215742Y0097652D01*
X0216193Y0097652D01*
X0216643Y0097201D01*
X0216643Y0096300D01*
X0216193Y0095850D01*
X0215292Y0095850D01*
X0214841Y0096300D01*
X0213696Y0095850D02*
X0211895Y0095850D01*
X0213696Y0097652D01*
X0213696Y0098102D01*
X0213246Y0098552D01*
X0212345Y0098552D01*
X0211895Y0098102D01*
X0210750Y0098102D02*
X0210750Y0097201D01*
X0210300Y0096751D01*
X0208948Y0096751D01*
X0208948Y0095850D02*
X0208948Y0098552D01*
X0210300Y0098552D01*
X0210750Y0098102D01*
X0209849Y0096751D02*
X0210750Y0095850D01*
X0210260Y0095252D02*
X0208909Y0095252D01*
X0208909Y0092550D01*
X0208909Y0093451D02*
X0210260Y0093451D01*
X0210710Y0093901D01*
X0210710Y0094802D01*
X0210260Y0095252D01*
X0211855Y0094352D02*
X0212756Y0095252D01*
X0212756Y0092550D01*
X0211855Y0092550D02*
X0213657Y0092550D01*
X0214802Y0093000D02*
X0215252Y0092550D01*
X0216153Y0092550D01*
X0216603Y0093000D01*
X0216603Y0093451D01*
X0216153Y0093901D01*
X0214802Y0093901D01*
X0214802Y0093000D01*
X0214802Y0093901D02*
X0215703Y0094802D01*
X0216603Y0095252D01*
X0215354Y0091899D02*
X0215354Y0079301D01*
X0209843Y0079301D01*
X0209843Y0091899D01*
X0215354Y0091899D01*
X0210710Y0092550D02*
X0209810Y0093451D01*
X0200593Y0115350D02*
X0199692Y0115350D01*
X0199241Y0115800D01*
X0198096Y0115350D02*
X0196295Y0115350D01*
X0197196Y0115350D02*
X0197196Y0118052D01*
X0196295Y0117152D01*
X0195150Y0117602D02*
X0194700Y0118052D01*
X0193799Y0118052D01*
X0193348Y0117602D01*
X0193348Y0115800D01*
X0193799Y0115350D01*
X0194700Y0115350D01*
X0195150Y0115800D01*
X0193843Y0119301D02*
X0193843Y0131899D01*
X0199354Y0131899D01*
X0199354Y0119301D01*
X0193843Y0119301D01*
X0189893Y0118152D02*
X0189893Y0115450D01*
X0190343Y0116801D02*
X0188541Y0116801D01*
X0189893Y0118152D01*
X0188354Y0119301D02*
X0182843Y0119301D01*
X0182843Y0131899D01*
X0188354Y0131899D01*
X0188354Y0119301D01*
X0186496Y0118152D02*
X0186496Y0115450D01*
X0187396Y0115450D02*
X0185595Y0115450D01*
X0184450Y0115900D02*
X0184000Y0115450D01*
X0183099Y0115450D01*
X0182648Y0115900D01*
X0182648Y0117702D01*
X0183099Y0118152D01*
X0184000Y0118152D01*
X0184450Y0117702D01*
X0185595Y0117252D02*
X0186496Y0118152D01*
X0180543Y0117802D02*
X0180093Y0118252D01*
X0179192Y0118252D01*
X0178741Y0117802D01*
X0180543Y0117802D02*
X0180543Y0117352D01*
X0178741Y0115550D01*
X0180543Y0115550D01*
X0177596Y0115550D02*
X0175795Y0115550D01*
X0176696Y0115550D02*
X0176696Y0118252D01*
X0175795Y0117352D01*
X0174650Y0117802D02*
X0174200Y0118252D01*
X0173299Y0118252D01*
X0172848Y0117802D01*
X0172848Y0116000D01*
X0173299Y0115550D01*
X0174200Y0115550D01*
X0174650Y0116000D01*
X0177354Y0119301D02*
X0171843Y0119301D01*
X0171843Y0131899D01*
X0177354Y0131899D01*
X0177354Y0119301D01*
X0168043Y0115450D02*
X0166241Y0115450D01*
X0167142Y0115450D02*
X0167142Y0118152D01*
X0166241Y0117252D01*
X0166354Y0119301D02*
X0160843Y0119301D01*
X0160843Y0131899D01*
X0166354Y0131899D01*
X0166354Y0119301D01*
X0164196Y0118152D02*
X0164196Y0115450D01*
X0165096Y0115450D02*
X0163295Y0115450D01*
X0162150Y0115900D02*
X0161700Y0115450D01*
X0160799Y0115450D01*
X0160348Y0115900D01*
X0160348Y0117702D01*
X0160799Y0118152D01*
X0161700Y0118152D01*
X0162150Y0117702D01*
X0163295Y0117252D02*
X0164196Y0118152D01*
X0157343Y0117702D02*
X0156893Y0118152D01*
X0155992Y0118152D01*
X0155541Y0117702D01*
X0155541Y0117252D01*
X0155992Y0116801D01*
X0157343Y0116801D01*
X0157343Y0115900D02*
X0157343Y0117702D01*
X0157343Y0115900D02*
X0156893Y0115450D01*
X0155992Y0115450D01*
X0155541Y0115900D01*
X0154396Y0115450D02*
X0152595Y0115450D01*
X0154396Y0117252D01*
X0154396Y0117702D01*
X0153946Y0118152D01*
X0153045Y0118152D01*
X0152595Y0117702D01*
X0151450Y0117702D02*
X0151450Y0116801D01*
X0151000Y0116351D01*
X0149648Y0116351D01*
X0149648Y0115450D02*
X0149648Y0118152D01*
X0151000Y0118152D01*
X0151450Y0117702D01*
X0150549Y0116351D02*
X0151450Y0115450D01*
X0149843Y0111899D02*
X0155354Y0111899D01*
X0155354Y0099301D01*
X0149843Y0099301D01*
X0149843Y0111899D01*
X0145354Y0111899D02*
X0139843Y0111899D01*
X0139843Y0099301D01*
X0145354Y0099301D01*
X0145354Y0111899D01*
X0145153Y0115250D02*
X0145153Y0117952D01*
X0143802Y0116601D01*
X0145603Y0116601D01*
X0145354Y0119301D02*
X0139843Y0119301D01*
X0139843Y0131899D01*
X0145354Y0131899D01*
X0145354Y0119301D01*
X0142657Y0117502D02*
X0142657Y0117052D01*
X0142207Y0116601D01*
X0142657Y0116151D01*
X0142657Y0115700D01*
X0142207Y0115250D01*
X0141306Y0115250D01*
X0140855Y0115700D01*
X0139710Y0115250D02*
X0138810Y0116151D01*
X0139260Y0116151D02*
X0137909Y0116151D01*
X0137909Y0115250D02*
X0137909Y0117952D01*
X0139260Y0117952D01*
X0139710Y0117502D01*
X0139710Y0116601D01*
X0139260Y0116151D01*
X0140855Y0117502D02*
X0141306Y0117952D01*
X0142207Y0117952D01*
X0142657Y0117502D01*
X0142207Y0116601D02*
X0141756Y0116601D01*
X0136143Y0116251D02*
X0136143Y0115800D01*
X0135693Y0115350D01*
X0134792Y0115350D01*
X0134341Y0115800D01*
X0133196Y0115350D02*
X0131395Y0115350D01*
X0133196Y0117152D01*
X0133196Y0117602D01*
X0132746Y0118052D01*
X0131845Y0118052D01*
X0131395Y0117602D01*
X0130250Y0117602D02*
X0129800Y0118052D01*
X0128899Y0118052D01*
X0128448Y0117602D01*
X0128448Y0115800D01*
X0128899Y0115350D01*
X0129800Y0115350D01*
X0130250Y0115800D01*
X0129843Y0119301D02*
X0135354Y0119301D01*
X0135354Y0131899D01*
X0129843Y0131899D01*
X0129843Y0119301D01*
X0134341Y0117602D02*
X0134792Y0118052D01*
X0135693Y0118052D01*
X0136143Y0117602D01*
X0136143Y0117152D01*
X0135693Y0116701D01*
X0136143Y0116251D01*
X0135693Y0116701D02*
X0135242Y0116701D01*
X0135354Y0111899D02*
X0129843Y0111899D01*
X0129843Y0099301D01*
X0135354Y0099301D01*
X0135354Y0111899D01*
X0135296Y0098652D02*
X0133495Y0098652D01*
X0133495Y0097301D01*
X0134396Y0097752D01*
X0134846Y0097752D01*
X0135296Y0097301D01*
X0135296Y0096400D01*
X0134846Y0095950D01*
X0133945Y0095950D01*
X0133495Y0096400D01*
X0132350Y0096400D02*
X0131900Y0095950D01*
X0130999Y0095950D01*
X0130548Y0096400D01*
X0130548Y0098202D01*
X0130999Y0098652D01*
X0131900Y0098652D01*
X0132350Y0098202D01*
X0133246Y0095252D02*
X0131895Y0093901D01*
X0133696Y0093901D01*
X0134841Y0094352D02*
X0135292Y0093901D01*
X0136643Y0093901D01*
X0136643Y0093000D02*
X0136643Y0094802D01*
X0136193Y0095252D01*
X0135292Y0095252D01*
X0134841Y0094802D01*
X0134841Y0094352D01*
X0134841Y0093000D02*
X0135292Y0092550D01*
X0136193Y0092550D01*
X0136643Y0093000D01*
X0135354Y0091899D02*
X0129843Y0091899D01*
X0129843Y0079301D01*
X0135354Y0079301D01*
X0135354Y0091899D01*
X0133246Y0092550D02*
X0133246Y0095252D01*
X0130750Y0094802D02*
X0130750Y0093901D01*
X0130300Y0093451D01*
X0128948Y0093451D01*
X0128948Y0092550D02*
X0128948Y0095252D01*
X0130300Y0095252D01*
X0130750Y0094802D01*
X0129849Y0093451D02*
X0130750Y0092550D01*
X0139148Y0092650D02*
X0139148Y0095352D01*
X0140500Y0095352D01*
X0140950Y0094902D01*
X0140950Y0094001D01*
X0140500Y0093551D01*
X0139148Y0093551D01*
X0140049Y0093551D02*
X0140950Y0092650D01*
X0142095Y0092650D02*
X0143896Y0092650D01*
X0142996Y0092650D02*
X0142996Y0095352D01*
X0142095Y0094452D01*
X0141795Y0096050D02*
X0143596Y0097852D01*
X0143596Y0098302D01*
X0143146Y0098752D01*
X0142245Y0098752D01*
X0141795Y0098302D01*
X0140650Y0098302D02*
X0140650Y0097401D01*
X0140200Y0096951D01*
X0138848Y0096951D01*
X0138848Y0096050D02*
X0138848Y0098752D01*
X0140200Y0098752D01*
X0140650Y0098302D01*
X0139749Y0096951D02*
X0140650Y0096050D01*
X0141795Y0096050D02*
X0143596Y0096050D01*
X0144741Y0096500D02*
X0145192Y0096050D01*
X0146093Y0096050D01*
X0146543Y0096500D01*
X0146543Y0096951D01*
X0146093Y0097401D01*
X0145642Y0097401D01*
X0146093Y0097401D02*
X0146543Y0097852D01*
X0146543Y0098302D01*
X0146093Y0098752D01*
X0145192Y0098752D01*
X0144741Y0098302D01*
X0145492Y0095352D02*
X0146393Y0095352D01*
X0146843Y0094902D01*
X0146843Y0094452D01*
X0146393Y0094001D01*
X0145492Y0094001D01*
X0145041Y0094452D01*
X0145041Y0094902D01*
X0145492Y0095352D01*
X0145492Y0094001D02*
X0145041Y0093551D01*
X0145041Y0093100D01*
X0145492Y0092650D01*
X0146393Y0092650D01*
X0146843Y0093100D01*
X0146843Y0093551D01*
X0146393Y0094001D01*
X0145354Y0091899D02*
X0145354Y0079301D01*
X0139843Y0079301D01*
X0139843Y0091899D01*
X0145354Y0091899D01*
X0149048Y0092550D02*
X0149048Y0095252D01*
X0150400Y0095252D01*
X0150850Y0094802D01*
X0150850Y0093901D01*
X0150400Y0093451D01*
X0149048Y0093451D01*
X0149949Y0093451D02*
X0150850Y0092550D01*
X0151995Y0092550D02*
X0153796Y0094352D01*
X0153796Y0094802D01*
X0153346Y0095252D01*
X0152445Y0095252D01*
X0151995Y0094802D01*
X0152195Y0095950D02*
X0153996Y0097752D01*
X0153996Y0098202D01*
X0153546Y0098652D01*
X0152645Y0098652D01*
X0152195Y0098202D01*
X0151050Y0098202D02*
X0151050Y0097301D01*
X0150600Y0096851D01*
X0149248Y0096851D01*
X0149248Y0095950D02*
X0149248Y0098652D01*
X0150600Y0098652D01*
X0151050Y0098202D01*
X0150149Y0096851D02*
X0151050Y0095950D01*
X0152195Y0095950D02*
X0153996Y0095950D01*
X0155141Y0095950D02*
X0156943Y0095950D01*
X0156042Y0095950D02*
X0156042Y0098652D01*
X0155141Y0097752D01*
X0155392Y0095252D02*
X0156293Y0095252D01*
X0156743Y0094802D01*
X0154941Y0093000D01*
X0155392Y0092550D01*
X0156293Y0092550D01*
X0156743Y0093000D01*
X0156743Y0094802D01*
X0155392Y0095252D02*
X0154941Y0094802D01*
X0154941Y0093000D01*
X0155354Y0091899D02*
X0155354Y0079301D01*
X0149843Y0079301D01*
X0149843Y0091899D01*
X0155354Y0091899D01*
X0153796Y0092550D02*
X0151995Y0092550D01*
X0158859Y0080252D02*
X0158409Y0079802D01*
X0158409Y0078000D01*
X0158859Y0077550D01*
X0159760Y0077550D01*
X0160210Y0078000D01*
X0160210Y0079802D01*
X0159760Y0080252D01*
X0158859Y0080252D01*
X0161355Y0079802D02*
X0161355Y0078000D01*
X0161806Y0077550D01*
X0162707Y0077550D01*
X0163157Y0078000D01*
X0164302Y0077550D02*
X0166103Y0079352D01*
X0166103Y0079802D01*
X0165653Y0080252D01*
X0164752Y0080252D01*
X0164302Y0079802D01*
X0163157Y0079802D02*
X0162707Y0080252D01*
X0161806Y0080252D01*
X0161355Y0079802D01*
X0164302Y0077550D02*
X0166103Y0077550D01*
X0180795Y0066167D02*
X0251661Y0066167D01*
X0251661Y0043962D01*
X0180795Y0043962D01*
X0180795Y0038608D01*
X0251661Y0038608D01*
X0251661Y0043962D01*
X0249693Y0043962D02*
X0320559Y0043962D01*
X0320559Y0066167D01*
X0249693Y0066167D01*
X0249693Y0043962D01*
X0249693Y0038608D01*
X0320559Y0038608D01*
X0320559Y0043962D01*
X0318591Y0043962D02*
X0389457Y0043962D01*
X0389457Y0066167D01*
X0318591Y0066167D01*
X0318591Y0043962D01*
X0318591Y0038608D01*
X0389457Y0038608D01*
X0389457Y0043962D01*
X0347243Y0096552D02*
X0346342Y0096102D01*
X0377098Y0135100D02*
X0098098Y0135100D01*
X0098098Y0272100D01*
X0378098Y0272100D01*
X0377098Y0272600D02*
X0377098Y0135100D01*
X0381189Y0136244D02*
X0381189Y0141756D01*
X0393787Y0141756D01*
X0393787Y0136244D01*
X0381189Y0136244D01*
X0385848Y0135242D02*
X0387200Y0135242D01*
X0387650Y0134792D01*
X0387650Y0133891D01*
X0387200Y0133441D01*
X0385848Y0133441D01*
X0386749Y0133441D02*
X0387650Y0132540D01*
X0388795Y0132990D02*
X0389245Y0132540D01*
X0390146Y0132540D01*
X0390596Y0132990D01*
X0390596Y0133441D01*
X0390146Y0133891D01*
X0388795Y0133891D01*
X0388795Y0132990D01*
X0388795Y0133891D02*
X0389696Y0134792D01*
X0390596Y0135242D01*
X0385848Y0135242D02*
X0385848Y0132540D01*
X0382488Y0144769D02*
X0382488Y0149769D01*
X0392488Y0149769D01*
X0392488Y0144769D01*
X0382488Y0144769D01*
X0386701Y0145694D02*
X0386701Y0148844D01*
X0388276Y0147269D01*
X0386701Y0145694D01*
X0388276Y0145694D02*
X0388276Y0147269D01*
X0388276Y0148844D01*
X0388937Y0151540D02*
X0389388Y0151990D01*
X0389388Y0153792D01*
X0388937Y0154242D01*
X0387586Y0154242D01*
X0387586Y0151540D01*
X0388937Y0151540D01*
X0390533Y0151990D02*
X0390983Y0151540D01*
X0391884Y0151540D01*
X0392334Y0151990D01*
X0392334Y0152891D01*
X0391884Y0153341D01*
X0391433Y0153341D01*
X0390533Y0152891D01*
X0390533Y0154242D01*
X0392334Y0154242D01*
X0386441Y0154242D02*
X0384640Y0154242D01*
X0384640Y0151540D01*
X0386441Y0151540D01*
X0385540Y0152891D02*
X0384640Y0152891D01*
X0383495Y0151540D02*
X0381693Y0151540D01*
X0381693Y0154242D01*
X0385090Y0171940D02*
X0385090Y0174642D01*
X0386441Y0174642D01*
X0386892Y0174192D01*
X0386892Y0173291D01*
X0386441Y0172841D01*
X0385090Y0172841D01*
X0385991Y0172841D02*
X0386892Y0171940D01*
X0388037Y0172390D02*
X0388487Y0171940D01*
X0389388Y0171940D01*
X0389838Y0172390D01*
X0389838Y0173291D01*
X0389388Y0173741D01*
X0388937Y0173741D01*
X0388037Y0173291D01*
X0388037Y0174642D01*
X0389838Y0174642D01*
X0393787Y0176009D02*
X0381189Y0176009D01*
X0381189Y0181521D01*
X0393787Y0181521D01*
X0393787Y0176009D01*
X0392488Y0184139D02*
X0382488Y0184139D01*
X0382488Y0189139D01*
X0392488Y0189139D01*
X0392488Y0184139D01*
X0388276Y0185065D02*
X0388276Y0186639D01*
X0386701Y0185065D01*
X0386701Y0188214D01*
X0388276Y0186639D01*
X0388276Y0188214D01*
X0387916Y0190840D02*
X0389267Y0190840D01*
X0389718Y0191290D01*
X0389718Y0193092D01*
X0389267Y0193542D01*
X0387916Y0193542D01*
X0387916Y0190840D01*
X0386771Y0190840D02*
X0384970Y0190840D01*
X0384970Y0193542D01*
X0386771Y0193542D01*
X0385870Y0192191D02*
X0384970Y0192191D01*
X0383825Y0190840D02*
X0382023Y0190840D01*
X0382023Y0193542D01*
X0390863Y0192191D02*
X0392664Y0192191D01*
X0392214Y0193542D02*
X0390863Y0192191D01*
X0392214Y0190840D02*
X0392214Y0193542D01*
X0390318Y0211640D02*
X0390318Y0214342D01*
X0388966Y0212991D01*
X0390768Y0212991D01*
X0387821Y0212991D02*
X0387371Y0212541D01*
X0386020Y0212541D01*
X0386921Y0212541D02*
X0387821Y0211640D01*
X0387821Y0212991D02*
X0387821Y0213892D01*
X0387371Y0214342D01*
X0386020Y0214342D01*
X0386020Y0211640D01*
X0381189Y0215380D02*
X0381189Y0220891D01*
X0393787Y0220891D01*
X0393787Y0215380D01*
X0381189Y0215380D01*
X0382488Y0223509D02*
X0382488Y0228509D01*
X0392488Y0228509D01*
X0392488Y0223509D01*
X0382488Y0223509D01*
X0386701Y0224435D02*
X0386701Y0227584D01*
X0388276Y0226009D01*
X0386701Y0224435D01*
X0388276Y0224435D02*
X0388276Y0226009D01*
X0388276Y0227584D01*
X0388046Y0230340D02*
X0389397Y0230340D01*
X0389847Y0230790D01*
X0389847Y0232592D01*
X0389397Y0233042D01*
X0388046Y0233042D01*
X0388046Y0230340D01*
X0386901Y0230340D02*
X0385099Y0230340D01*
X0385099Y0233042D01*
X0386901Y0233042D01*
X0386000Y0231691D02*
X0385099Y0231691D01*
X0383954Y0230340D02*
X0382153Y0230340D01*
X0382153Y0233042D01*
X0390992Y0232592D02*
X0391443Y0233042D01*
X0392344Y0233042D01*
X0392794Y0232592D01*
X0392794Y0232141D01*
X0392344Y0231691D01*
X0392794Y0231241D01*
X0392794Y0230790D01*
X0392344Y0230340D01*
X0391443Y0230340D01*
X0390992Y0230790D01*
X0391893Y0231691D02*
X0392344Y0231691D01*
X0389748Y0250240D02*
X0388847Y0250240D01*
X0388396Y0250690D01*
X0387251Y0250240D02*
X0386351Y0251141D01*
X0386801Y0251141D02*
X0385450Y0251141D01*
X0385450Y0250240D02*
X0385450Y0252942D01*
X0386801Y0252942D01*
X0387251Y0252492D01*
X0387251Y0251591D01*
X0386801Y0251141D01*
X0388396Y0252492D02*
X0388847Y0252942D01*
X0389748Y0252942D01*
X0390198Y0252492D01*
X0390198Y0252041D01*
X0389748Y0251591D01*
X0390198Y0251141D01*
X0390198Y0250690D01*
X0389748Y0250240D01*
X0389748Y0251591D02*
X0389297Y0251591D01*
X0393787Y0254750D02*
X0381189Y0254750D01*
X0381189Y0260261D01*
X0393787Y0260261D01*
X0393787Y0254750D01*
X0392488Y0262880D02*
X0382488Y0262880D01*
X0382488Y0267880D01*
X0392488Y0267880D01*
X0392488Y0262880D01*
X0388276Y0263805D02*
X0388276Y0265380D01*
X0386701Y0263805D01*
X0386701Y0266954D01*
X0388276Y0265380D01*
X0388276Y0266954D01*
X0388745Y0270230D02*
X0390096Y0270230D01*
X0390547Y0270680D01*
X0390547Y0272481D01*
X0390096Y0272932D01*
X0388745Y0272932D01*
X0388745Y0270230D01*
X0387600Y0270230D02*
X0385799Y0270230D01*
X0385799Y0272932D01*
X0387600Y0272932D01*
X0386699Y0271581D02*
X0385799Y0271581D01*
X0384654Y0270230D02*
X0382852Y0270230D01*
X0382852Y0272932D01*
X0391692Y0272481D02*
X0392142Y0272932D01*
X0393043Y0272932D01*
X0393493Y0272481D01*
X0393493Y0272031D01*
X0391692Y0270230D01*
X0393493Y0270230D01*
X0372370Y0279376D02*
X0372370Y0314376D01*
X0354870Y0314376D01*
X0354870Y0313876D01*
X0349870Y0313876D01*
X0349870Y0314376D01*
X0340370Y0314376D01*
X0340370Y0310376D01*
X0340370Y0309376D01*
X0367370Y0309376D01*
X0367370Y0284376D01*
X0297370Y0284376D01*
X0297370Y0309376D01*
X0314370Y0309376D01*
X0320370Y0309376D01*
X0324370Y0309376D01*
X0324370Y0310376D01*
X0324370Y0314376D01*
X0340370Y0314376D01*
X0340370Y0309376D02*
X0340370Y0306376D01*
X0324370Y0306376D01*
X0324370Y0309376D01*
X0327412Y0308126D02*
X0330415Y0308126D01*
X0328913Y0308126D02*
X0328913Y0312629D01*
X0327412Y0311128D01*
X0324370Y0314376D02*
X0323870Y0314376D01*
X0322370Y0312376D01*
X0320370Y0312376D01*
X0314370Y0312376D01*
X0314370Y0310376D01*
X0314370Y0309376D01*
X0314370Y0312376D02*
X0312370Y0312376D01*
X0310870Y0314376D01*
X0292370Y0314376D01*
X0292370Y0279376D01*
X0297370Y0279376D01*
X0297370Y0278376D01*
X0302370Y0278376D01*
X0302370Y0279376D01*
X0329870Y0279376D01*
X0329870Y0278376D01*
X0334870Y0278376D01*
X0334870Y0279376D01*
X0362370Y0279376D01*
X0362370Y0278376D01*
X0367370Y0278376D01*
X0367370Y0279376D01*
X0372370Y0279376D01*
X0361019Y0289626D02*
X0358016Y0289626D01*
X0361019Y0292628D01*
X0361019Y0293379D01*
X0360268Y0294129D01*
X0358767Y0294129D01*
X0358016Y0293379D01*
X0358016Y0299626D02*
X0361019Y0299626D01*
X0359517Y0299626D02*
X0359517Y0304129D01*
X0358016Y0302628D01*
X0335019Y0308876D02*
X0334268Y0308126D01*
X0332767Y0308126D01*
X0332016Y0308876D01*
X0335019Y0311879D01*
X0335019Y0308876D01*
X0335019Y0311879D02*
X0334268Y0312629D01*
X0332767Y0312629D01*
X0332016Y0311879D01*
X0332016Y0308876D01*
X0320370Y0309376D02*
X0320370Y0310376D01*
X0320370Y0312376D01*
X0320559Y0330734D02*
X0249693Y0330734D01*
X0249693Y0352939D01*
X0320559Y0352939D01*
X0320559Y0358293D01*
X0249693Y0358293D01*
X0249693Y0352939D01*
X0251661Y0352939D02*
X0180795Y0352939D01*
X0180795Y0330734D01*
X0251661Y0330734D01*
X0251661Y0352939D01*
X0251661Y0358293D01*
X0180795Y0358293D01*
X0180795Y0352939D01*
X0182764Y0352939D02*
X0182764Y0358293D01*
X0111898Y0358293D01*
X0111898Y0352939D01*
X0182764Y0352939D01*
X0182764Y0330734D01*
X0111898Y0330734D01*
X0111898Y0352939D01*
X0096150Y0352939D02*
X0025283Y0352939D01*
X0025283Y0330734D01*
X0096150Y0330734D01*
X0096150Y0352939D01*
X0096150Y0358293D01*
X0025283Y0358293D01*
X0025283Y0352939D01*
X0006098Y0299100D02*
X0091098Y0299100D01*
X0091098Y0236100D01*
X0006098Y0236100D01*
X0006098Y0299100D01*
X0059448Y0217452D02*
X0060800Y0217452D01*
X0061250Y0217002D01*
X0061250Y0215200D01*
X0060800Y0214750D01*
X0059448Y0214750D01*
X0059448Y0217452D01*
X0062395Y0217002D02*
X0062845Y0217452D01*
X0063746Y0217452D01*
X0064196Y0217002D01*
X0064196Y0216552D01*
X0062395Y0214750D01*
X0064196Y0214750D01*
X0064096Y0203452D02*
X0064096Y0200750D01*
X0064996Y0200750D02*
X0063195Y0200750D01*
X0062050Y0201200D02*
X0062050Y0203002D01*
X0061600Y0203452D01*
X0060248Y0203452D01*
X0060248Y0200750D01*
X0061600Y0200750D01*
X0062050Y0201200D01*
X0063195Y0202552D02*
X0064096Y0203452D01*
X0072406Y0184052D02*
X0071955Y0183602D01*
X0071955Y0181800D01*
X0072406Y0181350D01*
X0073307Y0181350D01*
X0073757Y0181800D01*
X0074902Y0181350D02*
X0076703Y0183152D01*
X0076703Y0183602D01*
X0076253Y0184052D01*
X0075352Y0184052D01*
X0074902Y0183602D01*
X0073757Y0183602D02*
X0073307Y0184052D01*
X0072406Y0184052D01*
X0074902Y0181350D02*
X0076703Y0181350D01*
X0077354Y0179899D02*
X0077354Y0167301D01*
X0071843Y0167301D01*
X0071843Y0179899D01*
X0077354Y0179899D01*
X0057661Y0180124D02*
X0057661Y0133076D01*
X0011598Y0133076D01*
X0011598Y0180124D01*
X0057661Y0180124D01*
X0083859Y0139052D02*
X0083409Y0138602D01*
X0083409Y0136800D01*
X0083859Y0136350D01*
X0084760Y0136350D01*
X0085210Y0136800D01*
X0085210Y0138602D01*
X0084760Y0139052D01*
X0083859Y0139052D01*
X0086355Y0138602D02*
X0086355Y0136800D01*
X0086806Y0136350D01*
X0087707Y0136350D01*
X0088157Y0136800D01*
X0089302Y0136800D02*
X0089752Y0136350D01*
X0090653Y0136350D01*
X0091103Y0136800D01*
X0091103Y0137251D01*
X0090653Y0137701D01*
X0090203Y0137701D01*
X0090653Y0137701D02*
X0091103Y0138152D01*
X0091103Y0138602D01*
X0090653Y0139052D01*
X0089752Y0139052D01*
X0089302Y0138602D01*
X0088157Y0138602D02*
X0087707Y0139052D01*
X0086806Y0139052D01*
X0086355Y0138602D01*
X0086343Y0124252D02*
X0085442Y0123802D01*
X0084541Y0122901D01*
X0085893Y0122901D01*
X0086343Y0122451D01*
X0086343Y0122000D01*
X0085893Y0121550D01*
X0084992Y0121550D01*
X0084541Y0122000D01*
X0084541Y0122901D01*
X0083396Y0121550D02*
X0081595Y0121550D01*
X0082496Y0121550D02*
X0082496Y0124252D01*
X0081595Y0123352D01*
X0080450Y0123802D02*
X0080000Y0124252D01*
X0079099Y0124252D01*
X0078648Y0123802D01*
X0078648Y0122000D01*
X0079099Y0121550D01*
X0080000Y0121550D01*
X0080450Y0122000D01*
X0079843Y0120899D02*
X0085354Y0120899D01*
X0085354Y0108301D01*
X0079843Y0108301D01*
X0079843Y0120899D01*
X0074354Y0121899D02*
X0074354Y0109301D01*
X0068843Y0109301D01*
X0068843Y0121899D01*
X0074354Y0121899D01*
X0070703Y0123500D02*
X0070253Y0123050D01*
X0069352Y0123050D01*
X0068902Y0123500D01*
X0068902Y0123951D01*
X0069352Y0124401D01*
X0070253Y0124401D01*
X0070703Y0123951D01*
X0070703Y0123500D01*
X0070253Y0124401D02*
X0070703Y0124852D01*
X0070703Y0125302D01*
X0070253Y0125752D01*
X0069352Y0125752D01*
X0068902Y0125302D01*
X0068902Y0124852D01*
X0069352Y0124401D01*
X0067757Y0123951D02*
X0067757Y0123500D01*
X0067307Y0123050D01*
X0066406Y0123050D01*
X0065955Y0123500D01*
X0064810Y0123050D02*
X0063910Y0123951D01*
X0064360Y0123951D02*
X0063009Y0123951D01*
X0063009Y0123050D02*
X0063009Y0125752D01*
X0064360Y0125752D01*
X0064810Y0125302D01*
X0064810Y0124401D01*
X0064360Y0123951D01*
X0065955Y0125302D02*
X0066406Y0125752D01*
X0067307Y0125752D01*
X0067757Y0125302D01*
X0067757Y0124852D01*
X0067307Y0124401D01*
X0067757Y0123951D01*
X0067307Y0124401D02*
X0066856Y0124401D01*
X0063193Y0109352D02*
X0062292Y0109352D01*
X0061841Y0108902D01*
X0061841Y0108452D01*
X0062292Y0108001D01*
X0063643Y0108001D01*
X0063643Y0107100D02*
X0063643Y0108902D01*
X0063193Y0109352D01*
X0063643Y0107100D02*
X0063193Y0106650D01*
X0062292Y0106650D01*
X0061841Y0107100D01*
X0060696Y0107100D02*
X0060246Y0106650D01*
X0059345Y0106650D01*
X0058895Y0107100D01*
X0057750Y0106650D02*
X0056849Y0107551D01*
X0057300Y0107551D02*
X0055948Y0107551D01*
X0055948Y0106650D02*
X0055948Y0109352D01*
X0057300Y0109352D01*
X0057750Y0108902D01*
X0057750Y0108001D01*
X0057300Y0107551D01*
X0057843Y0105899D02*
X0063354Y0105899D01*
X0063354Y0093301D01*
X0057843Y0093301D01*
X0057843Y0105899D01*
X0059796Y0108001D02*
X0060246Y0108001D01*
X0060696Y0107551D01*
X0060696Y0107100D01*
X0060246Y0108001D02*
X0060696Y0108452D01*
X0060696Y0108902D01*
X0060246Y0109352D01*
X0059345Y0109352D01*
X0058895Y0108902D01*
X0068209Y0108952D02*
X0068209Y0106250D01*
X0068843Y0105899D02*
X0074354Y0105899D01*
X0074354Y0093301D01*
X0068843Y0093301D01*
X0068843Y0105899D01*
X0070010Y0106250D02*
X0069110Y0107151D01*
X0069560Y0107151D02*
X0068209Y0107151D01*
X0069560Y0107151D02*
X0070010Y0107601D01*
X0070010Y0108502D01*
X0069560Y0108952D01*
X0068209Y0108952D01*
X0071155Y0107601D02*
X0072957Y0107601D01*
X0074102Y0108052D02*
X0075003Y0108952D01*
X0075003Y0106250D01*
X0075903Y0106250D02*
X0074102Y0106250D01*
X0072507Y0106250D02*
X0072507Y0108952D01*
X0071155Y0107601D01*
X0083248Y0106652D02*
X0084149Y0106652D01*
X0083699Y0106652D02*
X0083699Y0103950D01*
X0084149Y0103950D02*
X0083248Y0103950D01*
X0085213Y0104400D02*
X0085663Y0103950D01*
X0086564Y0103950D01*
X0087014Y0104400D01*
X0088159Y0103950D02*
X0089961Y0103950D01*
X0089060Y0103950D02*
X0089060Y0106652D01*
X0088159Y0105752D01*
X0087014Y0106202D02*
X0086564Y0106652D01*
X0085663Y0106652D01*
X0085213Y0106202D01*
X0085213Y0104400D01*
X0089843Y0108301D02*
X0095354Y0108301D01*
X0095354Y0120899D01*
X0089843Y0120899D01*
X0089843Y0108301D01*
X0094891Y0104152D02*
X0095792Y0104152D01*
X0095341Y0104152D02*
X0095341Y0101450D01*
X0094891Y0101450D02*
X0095792Y0101450D01*
X0096855Y0101900D02*
X0096855Y0103702D01*
X0097306Y0104152D01*
X0098207Y0104152D01*
X0098657Y0103702D01*
X0099802Y0103702D02*
X0100252Y0104152D01*
X0101153Y0104152D01*
X0101603Y0103702D01*
X0101603Y0103252D01*
X0099802Y0101450D01*
X0101603Y0101450D01*
X0098657Y0101900D02*
X0098207Y0101450D01*
X0097306Y0101450D01*
X0096855Y0101900D01*
X0112748Y0115550D02*
X0112748Y0118252D01*
X0114100Y0118252D01*
X0114550Y0117802D01*
X0114550Y0116901D01*
X0114100Y0116451D01*
X0112748Y0116451D01*
X0113649Y0116451D02*
X0114550Y0115550D01*
X0115695Y0116000D02*
X0116145Y0115550D01*
X0117046Y0115550D01*
X0117496Y0116000D01*
X0117496Y0116451D01*
X0117046Y0116901D01*
X0116596Y0116901D01*
X0117046Y0116901D02*
X0117496Y0117352D01*
X0117496Y0117802D01*
X0117046Y0118252D01*
X0116145Y0118252D01*
X0115695Y0117802D01*
X0113843Y0119301D02*
X0113843Y0131899D01*
X0119354Y0131899D01*
X0119354Y0119301D01*
X0113843Y0119301D01*
X0118641Y0118252D02*
X0120443Y0118252D01*
X0120443Y0117802D01*
X0118641Y0116000D01*
X0118641Y0115550D01*
X0096843Y0123702D02*
X0095041Y0121900D01*
X0095041Y0121450D01*
X0093896Y0121450D02*
X0092095Y0121450D01*
X0092996Y0121450D02*
X0092996Y0124152D01*
X0092095Y0123252D01*
X0090950Y0123702D02*
X0090500Y0124152D01*
X0089599Y0124152D01*
X0089148Y0123702D01*
X0089148Y0121900D01*
X0089599Y0121450D01*
X0090500Y0121450D01*
X0090950Y0121900D01*
X0095041Y0124152D02*
X0096843Y0124152D01*
X0096843Y0123702D01*
X0104948Y0148950D02*
X0107951Y0148950D01*
X0109552Y0148950D02*
X0109552Y0153454D01*
X0111804Y0153454D01*
X0112555Y0152703D01*
X0112555Y0151202D01*
X0111804Y0150451D01*
X0109552Y0150451D01*
X0114156Y0149701D02*
X0114156Y0152703D01*
X0114907Y0153454D01*
X0116408Y0153454D01*
X0117159Y0152703D01*
X0118760Y0151953D02*
X0120261Y0153454D01*
X0120261Y0148950D01*
X0118760Y0148950D02*
X0121763Y0148950D01*
X0117159Y0149701D02*
X0116408Y0148950D01*
X0114907Y0148950D01*
X0114156Y0149701D01*
X0104948Y0148950D02*
X0104948Y0153454D01*
X0105598Y0176600D02*
X0105598Y0216600D01*
X0170598Y0216600D01*
X0170598Y0176600D01*
X0105598Y0176600D01*
X0149843Y0131899D02*
X0155354Y0131899D01*
X0155354Y0119301D01*
X0149843Y0119301D01*
X0149843Y0131899D01*
X0194009Y0172150D02*
X0194009Y0174852D01*
X0199692Y0118052D02*
X0200593Y0118052D01*
X0201043Y0117602D01*
X0201043Y0117152D01*
X0200593Y0116701D01*
X0201043Y0116251D01*
X0201043Y0115800D01*
X0200593Y0115350D01*
X0200593Y0116701D02*
X0200142Y0116701D01*
X0199241Y0117602D02*
X0199692Y0118052D01*
X0248309Y0079402D02*
X0248309Y0077600D01*
X0248759Y0077150D01*
X0249660Y0077150D01*
X0250110Y0077600D01*
X0250110Y0079402D01*
X0249660Y0079852D01*
X0248759Y0079852D01*
X0248309Y0079402D01*
X0251255Y0079402D02*
X0251706Y0079852D01*
X0252607Y0079852D01*
X0253057Y0079402D01*
X0254202Y0078952D02*
X0255103Y0079852D01*
X0255103Y0077150D01*
X0256003Y0077150D02*
X0254202Y0077150D01*
X0253057Y0077600D02*
X0252607Y0077150D01*
X0251706Y0077150D01*
X0251255Y0077600D01*
X0251255Y0079402D01*
X0182764Y0066167D02*
X0182764Y0043962D01*
X0111898Y0043962D01*
X0111898Y0038608D01*
X0182764Y0038608D01*
X0182764Y0043962D01*
X0180795Y0043962D02*
X0180795Y0066167D01*
X0182764Y0066167D02*
X0111898Y0066167D01*
X0111898Y0043962D01*
X0096150Y0043962D02*
X0096150Y0038608D01*
X0025283Y0038608D01*
X0025283Y0043962D01*
X0096150Y0043962D01*
X0096150Y0066167D01*
X0025283Y0066167D01*
X0025283Y0043962D01*
X0056548Y0073700D02*
X0056999Y0073250D01*
X0057900Y0073250D01*
X0058350Y0073700D01*
X0059495Y0073250D02*
X0061296Y0073250D01*
X0060396Y0073250D02*
X0060396Y0075952D01*
X0059495Y0075052D01*
X0058350Y0075502D02*
X0057900Y0075952D01*
X0056999Y0075952D01*
X0056548Y0075502D01*
X0056548Y0073700D01*
X0057843Y0077301D02*
X0057843Y0089899D01*
X0063354Y0089899D01*
X0063354Y0077301D01*
X0057843Y0077301D01*
X0062441Y0075952D02*
X0062441Y0074601D01*
X0063342Y0075052D01*
X0063793Y0075052D01*
X0064243Y0074601D01*
X0064243Y0073700D01*
X0063793Y0073250D01*
X0062892Y0073250D01*
X0062441Y0073700D01*
X0062441Y0075952D02*
X0064243Y0075952D01*
X0067948Y0075602D02*
X0067948Y0073800D01*
X0068399Y0073350D01*
X0069300Y0073350D01*
X0069750Y0073800D01*
X0070895Y0073350D02*
X0072696Y0073350D01*
X0071796Y0073350D02*
X0071796Y0076052D01*
X0070895Y0075152D01*
X0069750Y0075602D02*
X0069300Y0076052D01*
X0068399Y0076052D01*
X0067948Y0075602D01*
X0068843Y0077301D02*
X0068843Y0089899D01*
X0074354Y0089899D01*
X0074354Y0077301D01*
X0068843Y0077301D01*
X0073841Y0075602D02*
X0073841Y0075152D01*
X0074292Y0074701D01*
X0075193Y0074701D01*
X0075643Y0074251D01*
X0075643Y0073800D01*
X0075193Y0073350D01*
X0074292Y0073350D01*
X0073841Y0073800D01*
X0073841Y0074251D01*
X0074292Y0074701D01*
X0075193Y0074701D02*
X0075643Y0075152D01*
X0075643Y0075602D01*
X0075193Y0076052D01*
X0074292Y0076052D01*
X0073841Y0075602D01*
X0036354Y0095301D02*
X0036354Y0107899D01*
X0030843Y0107899D01*
X0030843Y0095301D01*
X0036354Y0095301D01*
X0025098Y0097100D02*
X0025098Y0107100D01*
X0020098Y0107100D01*
X0020098Y0097100D01*
X0025098Y0097100D01*
X0024173Y0101313D02*
X0022598Y0101313D01*
X0021024Y0102887D01*
X0024173Y0102887D01*
X0022598Y0101313D01*
X0021024Y0101313D01*
X0020595Y0109550D02*
X0022396Y0109550D01*
X0023541Y0109550D02*
X0024893Y0109550D01*
X0025343Y0110000D01*
X0025343Y0111802D01*
X0024893Y0112252D01*
X0023541Y0112252D01*
X0023541Y0109550D01*
X0021496Y0110901D02*
X0020595Y0110901D01*
X0020595Y0112252D02*
X0020595Y0109550D01*
X0019450Y0109550D02*
X0017648Y0109550D01*
X0017648Y0112252D01*
X0020595Y0112252D02*
X0022396Y0112252D01*
X0026488Y0111352D02*
X0027389Y0112252D01*
X0027389Y0109550D01*
X0026488Y0109550D02*
X0028290Y0109550D01*
X0031748Y0110050D02*
X0031748Y0112752D01*
X0033100Y0112752D01*
X0033550Y0112302D01*
X0033550Y0111401D01*
X0033100Y0110951D01*
X0031748Y0110951D01*
X0032649Y0110951D02*
X0033550Y0110050D01*
X0034695Y0110050D02*
X0036496Y0110050D01*
X0035596Y0110050D02*
X0035596Y0112752D01*
X0034695Y0111852D01*
X0036354Y0116801D02*
X0030843Y0116801D01*
X0030843Y0129399D01*
X0036354Y0129399D01*
X0036354Y0116801D01*
X0038648Y0126450D02*
X0038648Y0129152D01*
X0040000Y0129152D01*
X0040450Y0128702D01*
X0040450Y0127801D01*
X0040000Y0127351D01*
X0038648Y0127351D01*
X0039549Y0127351D02*
X0040450Y0126450D01*
X0041595Y0126450D02*
X0043396Y0128252D01*
X0043396Y0128702D01*
X0042946Y0129152D01*
X0042045Y0129152D01*
X0041595Y0128702D01*
X0041595Y0126450D02*
X0043396Y0126450D01*
X0025854Y0129399D02*
X0025854Y0116801D01*
X0020343Y0116801D01*
X0020343Y0129399D01*
X0025854Y0129399D01*
X0018603Y0126450D02*
X0016802Y0126450D01*
X0017703Y0126450D02*
X0017703Y0129152D01*
X0016802Y0128252D01*
X0015657Y0128702D02*
X0015207Y0129152D01*
X0014306Y0129152D01*
X0013855Y0128702D01*
X0013855Y0126900D01*
X0014306Y0126450D01*
X0015207Y0126450D01*
X0015657Y0126900D01*
X0209693Y0279376D02*
X0214693Y0279376D01*
X0214693Y0278376D01*
X0219693Y0278376D01*
X0219693Y0279376D01*
X0247193Y0279376D01*
X0247193Y0278376D01*
X0252193Y0278376D01*
X0252193Y0279376D01*
X0279693Y0279376D01*
X0279693Y0278376D01*
X0284693Y0278376D01*
X0284693Y0279376D01*
X0289693Y0279376D01*
X0289693Y0314376D01*
X0272193Y0314376D01*
X0272193Y0313876D01*
X0267193Y0313876D01*
X0267193Y0314376D01*
X0257693Y0314376D01*
X0257693Y0310376D01*
X0257693Y0309376D01*
X0284693Y0309376D01*
X0284693Y0284376D01*
X0214693Y0284376D01*
X0214693Y0309376D01*
X0231693Y0309376D01*
X0237693Y0309376D01*
X0241693Y0309376D01*
X0241693Y0310376D01*
X0241693Y0314376D01*
X0257693Y0314376D01*
X0257693Y0309376D02*
X0257693Y0306376D01*
X0241693Y0306376D01*
X0241693Y0309376D01*
X0244735Y0308126D02*
X0247738Y0308126D01*
X0246236Y0308126D02*
X0246236Y0312629D01*
X0244735Y0311128D01*
X0241693Y0314376D02*
X0241193Y0314376D01*
X0239693Y0312376D01*
X0237693Y0312376D01*
X0231693Y0312376D01*
X0231693Y0310376D01*
X0231693Y0309376D01*
X0231693Y0312376D02*
X0229693Y0312376D01*
X0228193Y0314376D01*
X0209693Y0314376D01*
X0209693Y0279376D01*
X0237693Y0309376D02*
X0237693Y0310376D01*
X0237693Y0312376D01*
X0249339Y0311879D02*
X0249339Y0308876D01*
X0252342Y0311879D01*
X0252342Y0308876D01*
X0251591Y0308126D01*
X0250090Y0308126D01*
X0249339Y0308876D01*
X0249339Y0311879D02*
X0250090Y0312629D01*
X0251591Y0312629D01*
X0252342Y0311879D01*
X0275339Y0302628D02*
X0276840Y0304129D01*
X0276840Y0299626D01*
X0275339Y0299626D02*
X0278342Y0299626D01*
X0277591Y0294129D02*
X0276090Y0294129D01*
X0275339Y0293379D01*
X0277591Y0294129D02*
X0278342Y0293379D01*
X0278342Y0292628D01*
X0275339Y0289626D01*
X0278342Y0289626D01*
X0318591Y0330734D02*
X0389457Y0330734D01*
X0389457Y0352939D01*
X0318591Y0352939D01*
X0318591Y0330734D01*
X0320559Y0330734D02*
X0320559Y0352939D01*
X0318591Y0352939D02*
X0318591Y0358293D01*
X0389457Y0358293D01*
X0389457Y0352939D01*
D15*
X0368370Y0310376D02*
X0340370Y0310376D01*
X0324370Y0310376D02*
X0320370Y0310376D01*
X0314370Y0310376D02*
X0296370Y0310376D01*
X0296370Y0283376D01*
X0368370Y0283376D01*
X0368370Y0310376D01*
X0285693Y0310376D02*
X0285693Y0283376D01*
X0213693Y0283376D01*
X0213693Y0310376D01*
X0231693Y0310376D01*
X0237693Y0310376D02*
X0241693Y0310376D01*
X0257693Y0310376D02*
X0285693Y0310376D01*
X0123598Y0089300D02*
X0103598Y0089300D01*
D16*
X0091338Y0128206D02*
X0091340Y0128278D01*
X0091346Y0128350D01*
X0091356Y0128421D01*
X0091369Y0128492D01*
X0091387Y0128562D01*
X0091408Y0128631D01*
X0091433Y0128698D01*
X0091462Y0128764D01*
X0091494Y0128829D01*
X0091530Y0128891D01*
X0091569Y0128952D01*
X0091611Y0129010D01*
X0091657Y0129066D01*
X0091705Y0129119D01*
X0091757Y0129170D01*
X0091811Y0129218D01*
X0091867Y0129262D01*
X0091926Y0129304D01*
X0091987Y0129342D01*
X0092050Y0129377D01*
X0092115Y0129409D01*
X0092182Y0129436D01*
X0092249Y0129460D01*
X0092319Y0129481D01*
X0092389Y0129497D01*
X0092460Y0129510D01*
X0092531Y0129519D01*
X0092603Y0129524D01*
X0092675Y0129525D01*
X0092747Y0129522D01*
X0092819Y0129515D01*
X0092890Y0129504D01*
X0092961Y0129490D01*
X0093030Y0129471D01*
X0093099Y0129449D01*
X0093166Y0129423D01*
X0093232Y0129393D01*
X0093296Y0129360D01*
X0093358Y0129324D01*
X0093418Y0129284D01*
X0093475Y0129240D01*
X0093531Y0129194D01*
X0093583Y0129145D01*
X0093633Y0129093D01*
X0093680Y0129038D01*
X0093724Y0128981D01*
X0093765Y0128922D01*
X0093802Y0128860D01*
X0093836Y0128797D01*
X0093867Y0128731D01*
X0093894Y0128665D01*
X0093917Y0128596D01*
X0093936Y0128527D01*
X0093952Y0128457D01*
X0093964Y0128386D01*
X0093972Y0128314D01*
X0093976Y0128242D01*
X0093976Y0128170D01*
X0093972Y0128098D01*
X0093964Y0128026D01*
X0093952Y0127955D01*
X0093936Y0127885D01*
X0093917Y0127816D01*
X0093894Y0127747D01*
X0093867Y0127681D01*
X0093836Y0127615D01*
X0093802Y0127552D01*
X0093765Y0127490D01*
X0093724Y0127431D01*
X0093680Y0127374D01*
X0093633Y0127319D01*
X0093583Y0127267D01*
X0093531Y0127218D01*
X0093475Y0127172D01*
X0093418Y0127128D01*
X0093358Y0127088D01*
X0093296Y0127052D01*
X0093232Y0127019D01*
X0093166Y0126989D01*
X0093099Y0126963D01*
X0093030Y0126941D01*
X0092961Y0126922D01*
X0092890Y0126908D01*
X0092819Y0126897D01*
X0092747Y0126890D01*
X0092675Y0126887D01*
X0092603Y0126888D01*
X0092531Y0126893D01*
X0092460Y0126902D01*
X0092389Y0126915D01*
X0092319Y0126931D01*
X0092249Y0126952D01*
X0092182Y0126976D01*
X0092115Y0127003D01*
X0092050Y0127035D01*
X0091987Y0127070D01*
X0091926Y0127108D01*
X0091867Y0127150D01*
X0091811Y0127194D01*
X0091757Y0127242D01*
X0091705Y0127293D01*
X0091657Y0127346D01*
X0091611Y0127402D01*
X0091569Y0127460D01*
X0091530Y0127521D01*
X0091494Y0127583D01*
X0091462Y0127648D01*
X0091433Y0127714D01*
X0091408Y0127781D01*
X0091387Y0127850D01*
X0091369Y0127920D01*
X0091356Y0127991D01*
X0091346Y0128062D01*
X0091340Y0128134D01*
X0091338Y0128206D01*
X0131295Y0187984D02*
X0131295Y0191054D01*
X0132062Y0191054D01*
X0135131Y0187984D01*
X0135898Y0187984D01*
X0135131Y0192588D02*
X0134364Y0192588D01*
X0133596Y0193355D01*
X0133596Y0194890D01*
X0134364Y0195657D01*
X0135131Y0195657D01*
X0135898Y0194890D01*
X0135898Y0193355D01*
X0135131Y0192588D01*
X0133596Y0193355D02*
X0132829Y0192588D01*
X0132062Y0192588D01*
X0131295Y0193355D01*
X0131295Y0194890D01*
X0132062Y0195657D01*
X0132829Y0195657D01*
X0133596Y0194890D01*
X0132829Y0197192D02*
X0132062Y0197192D01*
X0131295Y0197959D01*
X0131295Y0199494D01*
X0132062Y0200261D01*
X0133596Y0199494D02*
X0133596Y0197959D01*
X0132829Y0197192D01*
X0135131Y0197192D02*
X0135898Y0197959D01*
X0135898Y0199494D01*
X0135131Y0200261D01*
X0134364Y0200261D01*
X0133596Y0199494D01*
X0134364Y0201796D02*
X0134364Y0204098D01*
X0133596Y0204865D01*
X0132062Y0204865D01*
X0131295Y0204098D01*
X0131295Y0201796D01*
X0135898Y0201796D01*
X0134364Y0203331D02*
X0135898Y0204865D01*
X0123576Y0219200D02*
X0120506Y0219200D01*
X0118972Y0219200D02*
X0117437Y0220735D01*
X0118204Y0220735D02*
X0115902Y0220735D01*
X0114368Y0220735D02*
X0114368Y0223804D01*
X0115902Y0223804D02*
X0118204Y0223804D01*
X0118972Y0223037D01*
X0118972Y0221502D01*
X0118204Y0220735D01*
X0115902Y0219200D02*
X0115902Y0223804D01*
X0114368Y0220735D02*
X0112833Y0219200D01*
X0111298Y0220735D01*
X0111298Y0223804D01*
X0120506Y0222269D02*
X0122041Y0223804D01*
X0122041Y0219200D01*
X0164886Y0090541D02*
X0164888Y0090613D01*
X0164894Y0090685D01*
X0164904Y0090756D01*
X0164917Y0090827D01*
X0164935Y0090897D01*
X0164956Y0090966D01*
X0164981Y0091033D01*
X0165010Y0091099D01*
X0165042Y0091164D01*
X0165078Y0091226D01*
X0165117Y0091287D01*
X0165159Y0091345D01*
X0165205Y0091401D01*
X0165253Y0091454D01*
X0165305Y0091505D01*
X0165359Y0091553D01*
X0165415Y0091597D01*
X0165474Y0091639D01*
X0165535Y0091677D01*
X0165598Y0091712D01*
X0165663Y0091744D01*
X0165730Y0091771D01*
X0165797Y0091795D01*
X0165867Y0091816D01*
X0165937Y0091832D01*
X0166008Y0091845D01*
X0166079Y0091854D01*
X0166151Y0091859D01*
X0166223Y0091860D01*
X0166295Y0091857D01*
X0166367Y0091850D01*
X0166438Y0091839D01*
X0166509Y0091825D01*
X0166578Y0091806D01*
X0166647Y0091784D01*
X0166714Y0091758D01*
X0166780Y0091728D01*
X0166844Y0091695D01*
X0166906Y0091659D01*
X0166966Y0091619D01*
X0167023Y0091575D01*
X0167079Y0091529D01*
X0167131Y0091480D01*
X0167181Y0091428D01*
X0167228Y0091373D01*
X0167272Y0091316D01*
X0167313Y0091257D01*
X0167350Y0091195D01*
X0167384Y0091132D01*
X0167415Y0091066D01*
X0167442Y0091000D01*
X0167465Y0090931D01*
X0167484Y0090862D01*
X0167500Y0090792D01*
X0167512Y0090721D01*
X0167520Y0090649D01*
X0167524Y0090577D01*
X0167524Y0090505D01*
X0167520Y0090433D01*
X0167512Y0090361D01*
X0167500Y0090290D01*
X0167484Y0090220D01*
X0167465Y0090151D01*
X0167442Y0090082D01*
X0167415Y0090016D01*
X0167384Y0089950D01*
X0167350Y0089887D01*
X0167313Y0089825D01*
X0167272Y0089766D01*
X0167228Y0089709D01*
X0167181Y0089654D01*
X0167131Y0089602D01*
X0167079Y0089553D01*
X0167023Y0089507D01*
X0166966Y0089463D01*
X0166906Y0089423D01*
X0166844Y0089387D01*
X0166780Y0089354D01*
X0166714Y0089324D01*
X0166647Y0089298D01*
X0166578Y0089276D01*
X0166509Y0089257D01*
X0166438Y0089243D01*
X0166367Y0089232D01*
X0166295Y0089225D01*
X0166223Y0089222D01*
X0166151Y0089223D01*
X0166079Y0089228D01*
X0166008Y0089237D01*
X0165937Y0089250D01*
X0165867Y0089266D01*
X0165797Y0089287D01*
X0165730Y0089311D01*
X0165663Y0089338D01*
X0165598Y0089370D01*
X0165535Y0089405D01*
X0165474Y0089443D01*
X0165415Y0089485D01*
X0165359Y0089529D01*
X0165305Y0089577D01*
X0165253Y0089628D01*
X0165205Y0089681D01*
X0165159Y0089737D01*
X0165117Y0089795D01*
X0165078Y0089856D01*
X0165042Y0089918D01*
X0165010Y0089983D01*
X0164981Y0090049D01*
X0164956Y0090116D01*
X0164935Y0090185D01*
X0164917Y0090255D01*
X0164904Y0090326D01*
X0164894Y0090397D01*
X0164888Y0090469D01*
X0164886Y0090541D01*
X0254886Y0090541D02*
X0254888Y0090613D01*
X0254894Y0090685D01*
X0254904Y0090756D01*
X0254917Y0090827D01*
X0254935Y0090897D01*
X0254956Y0090966D01*
X0254981Y0091033D01*
X0255010Y0091099D01*
X0255042Y0091164D01*
X0255078Y0091226D01*
X0255117Y0091287D01*
X0255159Y0091345D01*
X0255205Y0091401D01*
X0255253Y0091454D01*
X0255305Y0091505D01*
X0255359Y0091553D01*
X0255415Y0091597D01*
X0255474Y0091639D01*
X0255535Y0091677D01*
X0255598Y0091712D01*
X0255663Y0091744D01*
X0255730Y0091771D01*
X0255797Y0091795D01*
X0255867Y0091816D01*
X0255937Y0091832D01*
X0256008Y0091845D01*
X0256079Y0091854D01*
X0256151Y0091859D01*
X0256223Y0091860D01*
X0256295Y0091857D01*
X0256367Y0091850D01*
X0256438Y0091839D01*
X0256509Y0091825D01*
X0256578Y0091806D01*
X0256647Y0091784D01*
X0256714Y0091758D01*
X0256780Y0091728D01*
X0256844Y0091695D01*
X0256906Y0091659D01*
X0256966Y0091619D01*
X0257023Y0091575D01*
X0257079Y0091529D01*
X0257131Y0091480D01*
X0257181Y0091428D01*
X0257228Y0091373D01*
X0257272Y0091316D01*
X0257313Y0091257D01*
X0257350Y0091195D01*
X0257384Y0091132D01*
X0257415Y0091066D01*
X0257442Y0091000D01*
X0257465Y0090931D01*
X0257484Y0090862D01*
X0257500Y0090792D01*
X0257512Y0090721D01*
X0257520Y0090649D01*
X0257524Y0090577D01*
X0257524Y0090505D01*
X0257520Y0090433D01*
X0257512Y0090361D01*
X0257500Y0090290D01*
X0257484Y0090220D01*
X0257465Y0090151D01*
X0257442Y0090082D01*
X0257415Y0090016D01*
X0257384Y0089950D01*
X0257350Y0089887D01*
X0257313Y0089825D01*
X0257272Y0089766D01*
X0257228Y0089709D01*
X0257181Y0089654D01*
X0257131Y0089602D01*
X0257079Y0089553D01*
X0257023Y0089507D01*
X0256966Y0089463D01*
X0256906Y0089423D01*
X0256844Y0089387D01*
X0256780Y0089354D01*
X0256714Y0089324D01*
X0256647Y0089298D01*
X0256578Y0089276D01*
X0256509Y0089257D01*
X0256438Y0089243D01*
X0256367Y0089232D01*
X0256295Y0089225D01*
X0256223Y0089222D01*
X0256151Y0089223D01*
X0256079Y0089228D01*
X0256008Y0089237D01*
X0255937Y0089250D01*
X0255867Y0089266D01*
X0255797Y0089287D01*
X0255730Y0089311D01*
X0255663Y0089338D01*
X0255598Y0089370D01*
X0255535Y0089405D01*
X0255474Y0089443D01*
X0255415Y0089485D01*
X0255359Y0089529D01*
X0255305Y0089577D01*
X0255253Y0089628D01*
X0255205Y0089681D01*
X0255159Y0089737D01*
X0255117Y0089795D01*
X0255078Y0089856D01*
X0255042Y0089918D01*
X0255010Y0089983D01*
X0254981Y0090049D01*
X0254956Y0090116D01*
X0254935Y0090185D01*
X0254917Y0090255D01*
X0254904Y0090326D01*
X0254894Y0090397D01*
X0254888Y0090469D01*
X0254886Y0090541D01*
D17*
X0300147Y0116204D02*
X0301648Y0116204D01*
X0301648Y0116704D02*
X0301648Y0115703D01*
X0300648Y0115703D02*
X0300147Y0116204D01*
X0300147Y0117177D02*
X0301648Y0117177D01*
X0301148Y0117177D02*
X0300147Y0118178D01*
X0300898Y0117427D02*
X0301648Y0118178D01*
D18*
X0165249Y0295000D02*
X0165318Y0295002D01*
X0165386Y0295008D01*
X0165454Y0295018D01*
X0165521Y0295031D01*
X0165587Y0295049D01*
X0165652Y0295070D01*
X0165716Y0295095D01*
X0165778Y0295123D01*
X0165839Y0295155D01*
X0165898Y0295190D01*
X0165954Y0295229D01*
X0166009Y0295271D01*
X0166060Y0295316D01*
X0166110Y0295364D01*
X0166156Y0295414D01*
X0166199Y0295467D01*
X0166240Y0295523D01*
X0166277Y0295580D01*
X0166310Y0295640D01*
X0166341Y0295702D01*
X0166367Y0295765D01*
X0166390Y0295829D01*
X0166410Y0295895D01*
X0166425Y0295962D01*
X0166437Y0296029D01*
X0166445Y0296097D01*
X0166449Y0296166D01*
X0166449Y0296234D01*
X0166445Y0296303D01*
X0166437Y0296371D01*
X0166425Y0296438D01*
X0166410Y0296505D01*
X0166390Y0296571D01*
X0166367Y0296635D01*
X0166341Y0296698D01*
X0166310Y0296760D01*
X0166277Y0296820D01*
X0166240Y0296877D01*
X0166199Y0296933D01*
X0166156Y0296986D01*
X0166110Y0297036D01*
X0166060Y0297084D01*
X0166009Y0297129D01*
X0165954Y0297171D01*
X0165898Y0297210D01*
X0165839Y0297245D01*
X0165778Y0297277D01*
X0165716Y0297305D01*
X0165652Y0297330D01*
X0165587Y0297351D01*
X0165521Y0297369D01*
X0165454Y0297382D01*
X0165386Y0297392D01*
X0165318Y0297398D01*
X0165249Y0297400D01*
X0108398Y0297400D02*
X0108467Y0297398D01*
X0108535Y0297392D01*
X0108603Y0297382D01*
X0108670Y0297369D01*
X0108736Y0297351D01*
X0108801Y0297330D01*
X0108865Y0297305D01*
X0108927Y0297277D01*
X0108988Y0297245D01*
X0109047Y0297210D01*
X0109103Y0297171D01*
X0109158Y0297129D01*
X0109209Y0297084D01*
X0109259Y0297036D01*
X0109305Y0296986D01*
X0109348Y0296933D01*
X0109389Y0296877D01*
X0109426Y0296820D01*
X0109459Y0296760D01*
X0109490Y0296698D01*
X0109516Y0296635D01*
X0109539Y0296571D01*
X0109559Y0296505D01*
X0109574Y0296438D01*
X0109586Y0296371D01*
X0109594Y0296303D01*
X0109598Y0296234D01*
X0109598Y0296166D01*
X0109594Y0296097D01*
X0109586Y0296029D01*
X0109574Y0295962D01*
X0109559Y0295895D01*
X0109539Y0295829D01*
X0109516Y0295765D01*
X0109490Y0295702D01*
X0109459Y0295640D01*
X0109426Y0295580D01*
X0109389Y0295523D01*
X0109348Y0295467D01*
X0109305Y0295414D01*
X0109259Y0295364D01*
X0109209Y0295316D01*
X0109158Y0295271D01*
X0109103Y0295229D01*
X0109047Y0295190D01*
X0108988Y0295155D01*
X0108927Y0295123D01*
X0108865Y0295095D01*
X0108801Y0295070D01*
X0108736Y0295049D01*
X0108670Y0295031D01*
X0108603Y0295018D01*
X0108535Y0295008D01*
X0108467Y0295002D01*
X0108398Y0295000D01*
D19*
X0107964Y0287686D02*
X0104828Y0284550D01*
X0104828Y0286118D02*
X0107964Y0286118D01*
X0107964Y0284550D02*
X0104828Y0287686D01*
X0106396Y0287686D02*
X0106396Y0284550D01*
X0161679Y0284550D02*
X0164815Y0287686D01*
X0164815Y0286118D02*
X0161679Y0286118D01*
X0161679Y0287686D02*
X0164815Y0284550D01*
X0163247Y0284550D02*
X0163247Y0287686D01*
X0119448Y0212529D02*
X0118831Y0211912D01*
X0116362Y0211912D01*
X0116980Y0211295D02*
X0116980Y0212529D01*
X0116980Y0210080D02*
X0119448Y0210080D01*
X0119448Y0208229D01*
X0118831Y0207611D01*
X0116980Y0207611D01*
X0116362Y0206397D02*
X0115745Y0205780D01*
X0115745Y0204545D01*
X0116362Y0203928D01*
X0118831Y0203928D01*
X0119448Y0204545D01*
X0119448Y0205780D01*
X0118831Y0206397D01*
X0116362Y0206397D01*
X0116362Y0200536D02*
X0115745Y0199918D01*
X0115745Y0198067D01*
X0119448Y0198067D01*
X0119448Y0199918D01*
X0118831Y0200536D01*
X0116362Y0200536D01*
X0115745Y0196852D02*
X0119448Y0196852D01*
X0115745Y0194384D01*
X0119448Y0194384D01*
X0118831Y0193169D02*
X0117597Y0193169D01*
X0117597Y0191935D01*
X0118831Y0193169D02*
X0119448Y0192552D01*
X0119448Y0191318D01*
X0118831Y0190701D01*
X0116362Y0190701D01*
X0115745Y0191318D01*
X0115745Y0192552D01*
X0116362Y0193169D01*
X0117597Y0185536D02*
X0119448Y0185536D01*
X0117597Y0185536D02*
X0116980Y0184918D01*
X0116980Y0183067D01*
X0119448Y0183067D01*
X0119448Y0181846D02*
X0119448Y0180611D01*
X0119448Y0181229D02*
X0115745Y0181229D01*
X0115745Y0181846D02*
X0115745Y0180611D01*
X0155745Y0181671D02*
X0155745Y0183523D01*
X0156362Y0184140D01*
X0157597Y0184140D01*
X0158214Y0183523D01*
X0158214Y0181671D01*
X0158214Y0182905D02*
X0159448Y0184140D01*
X0158831Y0185354D02*
X0157597Y0185354D01*
X0156980Y0185971D01*
X0156980Y0187206D01*
X0157597Y0187823D01*
X0158214Y0187823D01*
X0158214Y0185354D01*
X0158831Y0185354D02*
X0159448Y0185971D01*
X0159448Y0187206D01*
X0160745Y0187209D02*
X0163214Y0187209D01*
X0164448Y0185975D01*
X0163214Y0184740D01*
X0160745Y0184740D01*
X0160745Y0183526D02*
X0160745Y0181057D01*
X0162597Y0181057D01*
X0161980Y0182291D01*
X0161980Y0182909D01*
X0162597Y0183526D01*
X0163831Y0183526D01*
X0164448Y0182909D01*
X0164448Y0181674D01*
X0163831Y0181057D01*
X0159448Y0181671D02*
X0155745Y0181671D01*
X0157597Y0189037D02*
X0158831Y0189037D01*
X0159448Y0189654D01*
X0159448Y0191506D01*
X0160066Y0191506D02*
X0156980Y0191506D01*
X0156980Y0189654D01*
X0157597Y0189037D01*
X0160683Y0190272D02*
X0160683Y0190889D01*
X0160066Y0191506D01*
X0160745Y0192724D02*
X0161362Y0192107D01*
X0161980Y0192107D01*
X0162597Y0192724D01*
X0162597Y0193958D01*
X0163214Y0194575D01*
X0163831Y0194575D01*
X0164448Y0193958D01*
X0164448Y0192724D01*
X0163831Y0192107D01*
X0160745Y0192724D02*
X0160745Y0193958D01*
X0161362Y0194575D01*
X0161980Y0195790D02*
X0163831Y0195790D01*
X0164448Y0196407D01*
X0163831Y0197024D01*
X0164448Y0197641D01*
X0163831Y0198258D01*
X0161980Y0198258D01*
X0161980Y0199473D02*
X0161980Y0200090D01*
X0164448Y0200090D01*
X0164448Y0199473D02*
X0164448Y0200707D01*
X0163831Y0202545D02*
X0164448Y0203163D01*
X0163831Y0202545D02*
X0161362Y0202545D01*
X0161980Y0201928D02*
X0161980Y0203163D01*
X0162597Y0204384D02*
X0163831Y0204384D01*
X0164448Y0205001D01*
X0164448Y0206852D01*
X0164448Y0208067D02*
X0160745Y0208067D01*
X0161980Y0208684D02*
X0161980Y0209918D01*
X0162597Y0210536D01*
X0164448Y0210536D01*
X0162597Y0208067D02*
X0161980Y0208684D01*
X0161980Y0206852D02*
X0161980Y0205001D01*
X0162597Y0204384D01*
X0159448Y0203777D02*
X0158831Y0203159D01*
X0156362Y0203159D01*
X0156980Y0202542D02*
X0156980Y0203777D01*
X0157597Y0204998D02*
X0158831Y0204998D01*
X0159448Y0205615D01*
X0159448Y0206849D01*
X0158831Y0207466D01*
X0157597Y0207466D01*
X0156980Y0206849D01*
X0156980Y0205615D01*
X0157597Y0204998D01*
X0157597Y0201328D02*
X0159448Y0201328D01*
X0159448Y0199476D01*
X0158831Y0198859D01*
X0158214Y0199476D01*
X0158214Y0201328D01*
X0157597Y0201328D02*
X0156980Y0200711D01*
X0156980Y0199476D01*
X0155745Y0197021D02*
X0159448Y0197021D01*
X0159448Y0196404D02*
X0159448Y0197638D01*
X0159448Y0195189D02*
X0156980Y0195189D01*
X0155745Y0196404D02*
X0155745Y0197021D01*
X0159448Y0195189D02*
X0159448Y0193338D01*
X0158831Y0192720D01*
X0156980Y0192720D01*
X0160128Y0200090D02*
X0160745Y0200090D01*
X0159448Y0208681D02*
X0156980Y0208681D01*
X0158214Y0208681D02*
X0156980Y0209915D01*
X0156980Y0210532D01*
D20*
X0059234Y0210200D03*
X0058834Y0192200D03*
M02*
