G75*
%MOIN*%
%OFA0B0*%
%FSLAX25Y25*%
%IPPOS*%
%LPD*%
%AMOC8*
5,1,8,0,0,1.08239X$1,22.5*
%
%ADD10C,0.00800*%
D10*
X0210161Y0226500D02*
X0210161Y0228602D01*
X0210862Y0229302D01*
X0211563Y0228602D01*
X0211563Y0226500D01*
X0212964Y0226500D02*
X0212964Y0229302D01*
X0212263Y0229302D01*
X0211563Y0228602D01*
X0214765Y0228602D02*
X0215466Y0229302D01*
X0216867Y0229302D01*
X0217568Y0228602D01*
X0217568Y0227201D01*
X0216867Y0226500D01*
X0215466Y0226500D01*
X0214765Y0227201D01*
X0214765Y0228602D01*
X0219369Y0229302D02*
X0221471Y0229302D01*
X0222172Y0228602D01*
X0222172Y0227201D01*
X0221471Y0226500D01*
X0219369Y0226500D01*
X0223773Y0226500D02*
X0223773Y0227201D01*
X0224474Y0227201D01*
X0224474Y0226500D01*
X0223773Y0226500D01*
X0226275Y0226500D02*
X0226275Y0228602D01*
X0226976Y0229302D01*
X0229077Y0229302D01*
X0229077Y0226500D01*
X0230879Y0227201D02*
X0230879Y0228602D01*
X0231580Y0229302D01*
X0232981Y0229302D01*
X0233681Y0228602D01*
X0233681Y0227201D01*
X0232981Y0226500D01*
X0231580Y0226500D01*
X0230879Y0227201D01*
X0235483Y0227201D02*
X0236184Y0226500D01*
X0238285Y0226500D01*
X0237585Y0227901D02*
X0236184Y0227901D01*
X0235483Y0227201D01*
X0235483Y0229302D02*
X0237585Y0229302D01*
X0238285Y0228602D01*
X0237585Y0227901D01*
X0239953Y0226500D02*
X0240654Y0227201D01*
X0240654Y0230003D01*
X0241355Y0229302D02*
X0239953Y0229302D01*
X0243156Y0228602D02*
X0243857Y0229302D01*
X0245258Y0229302D01*
X0245959Y0228602D01*
X0245959Y0227201D01*
X0245258Y0226500D01*
X0243857Y0226500D01*
X0243156Y0227201D01*
X0243156Y0228602D01*
X0247760Y0228602D02*
X0248461Y0229302D01*
X0250562Y0229302D01*
X0250562Y0230704D02*
X0250562Y0226500D01*
X0248461Y0226500D01*
X0247760Y0227201D01*
X0247760Y0228602D01*
X0252364Y0228602D02*
X0253065Y0229302D01*
X0255166Y0229302D01*
X0255166Y0230704D02*
X0255166Y0226500D01*
X0253065Y0226500D01*
X0252364Y0227201D01*
X0252364Y0228602D01*
X0256834Y0226500D02*
X0258236Y0226500D01*
X0257535Y0226500D02*
X0257535Y0229302D01*
X0258236Y0229302D01*
X0257535Y0230704D02*
X0257535Y0231404D01*
X0258503Y0233500D02*
X0258503Y0237704D01*
X0256701Y0237003D02*
X0256701Y0234201D01*
X0256000Y0233500D01*
X0254599Y0233500D01*
X0253899Y0234201D01*
X0253899Y0237003D02*
X0254599Y0237704D01*
X0256000Y0237704D01*
X0256701Y0237003D01*
X0258503Y0233500D02*
X0261305Y0237704D01*
X0261305Y0233500D01*
X0263106Y0234201D02*
X0263807Y0233500D01*
X0265208Y0233500D01*
X0265909Y0234201D01*
X0265909Y0237003D01*
X0265208Y0237704D01*
X0263807Y0237704D01*
X0263106Y0237003D01*
X0264574Y0230704D02*
X0263874Y0230003D01*
X0263874Y0228602D01*
X0264574Y0227901D01*
X0264574Y0229302D01*
X0265976Y0229302D01*
X0265976Y0227901D01*
X0264574Y0227901D01*
X0263874Y0227201D02*
X0264574Y0226500D01*
X0265976Y0226500D01*
X0266676Y0227201D01*
X0266676Y0230003D01*
X0265976Y0230704D01*
X0264574Y0230704D01*
X0262072Y0229302D02*
X0262072Y0226500D01*
X0262072Y0227901D02*
X0260671Y0229302D01*
X0259970Y0229302D01*
X0268478Y0228602D02*
X0268478Y0226500D01*
X0268478Y0228602D02*
X0269178Y0229302D01*
X0271280Y0229302D01*
X0271280Y0226500D01*
X0273082Y0227201D02*
X0273082Y0228602D01*
X0273782Y0229302D01*
X0275183Y0229302D01*
X0275884Y0228602D01*
X0275884Y0227201D01*
X0275183Y0226500D01*
X0273782Y0226500D01*
X0273082Y0227201D01*
X0273015Y0233500D02*
X0272314Y0234201D01*
X0272314Y0237003D01*
X0273015Y0237704D01*
X0274416Y0237704D01*
X0275117Y0237003D01*
X0275117Y0236302D01*
X0274416Y0235602D01*
X0272314Y0235602D01*
X0273015Y0233500D02*
X0274416Y0233500D01*
X0275117Y0234201D01*
X0276918Y0234201D02*
X0276918Y0234901D01*
X0277619Y0235602D01*
X0279721Y0235602D01*
X0279721Y0234201D01*
X0279020Y0233500D01*
X0277619Y0233500D01*
X0276918Y0234201D01*
X0278319Y0237003D02*
X0276918Y0237704D01*
X0278319Y0237003D02*
X0279721Y0235602D01*
X0281522Y0237003D02*
X0284325Y0234201D01*
X0284325Y0233500D01*
X0286126Y0233500D02*
X0288928Y0233500D01*
X0287527Y0233500D02*
X0287527Y0237704D01*
X0288928Y0236302D01*
X0290730Y0236302D02*
X0292832Y0236302D01*
X0293532Y0235602D01*
X0293532Y0234201D01*
X0292832Y0233500D01*
X0290730Y0233500D01*
X0292765Y0230704D02*
X0292765Y0226500D01*
X0290663Y0226500D01*
X0289963Y0227201D01*
X0289963Y0228602D01*
X0290663Y0229302D01*
X0292765Y0229302D01*
X0294567Y0228602D02*
X0295267Y0229302D01*
X0297369Y0229302D01*
X0297369Y0230704D02*
X0297369Y0226500D01*
X0295267Y0226500D01*
X0294567Y0227201D01*
X0294567Y0228602D01*
X0299037Y0226500D02*
X0300438Y0226500D01*
X0299738Y0226500D02*
X0299738Y0229302D01*
X0300438Y0229302D01*
X0299738Y0230704D02*
X0299738Y0231404D01*
X0298136Y0232099D02*
X0298136Y0236302D01*
X0296035Y0236302D01*
X0295334Y0235602D01*
X0295334Y0234201D01*
X0296035Y0233500D01*
X0298136Y0233500D01*
X0299804Y0233500D02*
X0301206Y0233500D01*
X0300505Y0233500D02*
X0300505Y0237704D01*
X0301206Y0237704D01*
X0307611Y0237003D02*
X0308312Y0237704D01*
X0309713Y0237704D01*
X0310413Y0237003D01*
X0310413Y0234201D01*
X0309713Y0233500D01*
X0308312Y0233500D01*
X0307611Y0234201D01*
X0304542Y0230704D02*
X0304542Y0226500D01*
X0306644Y0226500D01*
X0307344Y0227201D01*
X0307344Y0228602D01*
X0306644Y0229302D01*
X0304542Y0229302D01*
X0302740Y0227201D02*
X0302040Y0227201D01*
X0302040Y0226500D01*
X0302740Y0226500D01*
X0302740Y0227201D01*
X0309079Y0229302D02*
X0309780Y0229302D01*
X0311181Y0227901D01*
X0311181Y0226500D02*
X0311181Y0229302D01*
X0312982Y0228602D02*
X0312982Y0226500D01*
X0315084Y0226500D01*
X0315785Y0227201D01*
X0315084Y0227901D01*
X0312982Y0227901D01*
X0312982Y0228602D02*
X0313683Y0229302D01*
X0315084Y0229302D01*
X0317586Y0228602D02*
X0317586Y0226500D01*
X0317586Y0228602D02*
X0318287Y0229302D01*
X0319688Y0229302D01*
X0320389Y0228602D01*
X0322190Y0229302D02*
X0324292Y0229302D01*
X0324993Y0228602D01*
X0324993Y0227201D01*
X0324292Y0226500D01*
X0322190Y0226500D01*
X0320389Y0226500D02*
X0320389Y0230704D01*
X0321423Y0233500D02*
X0323525Y0233500D01*
X0324225Y0234201D01*
X0324225Y0235602D01*
X0323525Y0236302D01*
X0321423Y0236302D01*
X0319621Y0237003D02*
X0319621Y0234201D01*
X0318921Y0233500D01*
X0317520Y0233500D01*
X0316819Y0234201D01*
X0315017Y0233500D02*
X0315017Y0237704D01*
X0312215Y0233500D01*
X0312215Y0237704D01*
X0316819Y0237003D02*
X0317520Y0237704D01*
X0318921Y0237704D01*
X0319621Y0237003D01*
X0326027Y0235602D02*
X0326027Y0234201D01*
X0326727Y0233500D01*
X0328829Y0233500D01*
X0328829Y0232099D02*
X0328829Y0236302D01*
X0326727Y0236302D01*
X0326027Y0235602D01*
X0327361Y0231404D02*
X0327361Y0230704D01*
X0327361Y0229302D02*
X0327361Y0226500D01*
X0326661Y0226500D02*
X0328062Y0226500D01*
X0328062Y0229302D02*
X0327361Y0229302D01*
X0329797Y0229302D02*
X0330497Y0229302D01*
X0331898Y0227901D01*
X0331898Y0226500D02*
X0331898Y0229302D01*
X0331898Y0233500D02*
X0330497Y0233500D01*
X0331198Y0233500D02*
X0331198Y0237704D01*
X0331898Y0237704D01*
X0288161Y0228602D02*
X0288161Y0227201D01*
X0287461Y0226500D01*
X0286059Y0226500D01*
X0285359Y0227201D01*
X0285359Y0228602D01*
X0286059Y0229302D01*
X0287461Y0229302D01*
X0288161Y0228602D01*
X0283557Y0229302D02*
X0282156Y0229302D01*
X0282857Y0230003D02*
X0282857Y0227201D01*
X0282156Y0226500D01*
X0280488Y0226500D02*
X0278386Y0226500D01*
X0277686Y0227201D01*
X0278386Y0227901D01*
X0279787Y0227901D01*
X0280488Y0228602D01*
X0279787Y0229302D01*
X0277686Y0229302D01*
X0281522Y0237003D02*
X0281522Y0237704D01*
X0284325Y0237704D01*
X0247493Y0237003D02*
X0247493Y0234201D01*
X0246793Y0233500D01*
X0245391Y0233500D01*
X0244691Y0234201D01*
X0242889Y0234201D02*
X0242189Y0233500D01*
X0240787Y0233500D01*
X0240087Y0234201D01*
X0240087Y0235602D01*
X0240787Y0236302D01*
X0242189Y0236302D01*
X0242889Y0235602D01*
X0242889Y0234201D01*
X0244691Y0237003D02*
X0245391Y0237704D01*
X0246793Y0237704D01*
X0247493Y0237003D01*
X0238285Y0236302D02*
X0238285Y0233500D01*
X0235483Y0233500D02*
X0235483Y0235602D01*
X0236184Y0236302D01*
X0238285Y0236302D01*
X0233681Y0236302D02*
X0232280Y0236302D01*
X0232981Y0237003D02*
X0232981Y0234201D01*
X0232280Y0233500D01*
X0230612Y0233500D02*
X0230612Y0236302D01*
X0230612Y0234901D02*
X0229211Y0236302D01*
X0228510Y0236302D01*
X0226775Y0235602D02*
X0226775Y0234201D01*
X0226075Y0233500D01*
X0224674Y0233500D01*
X0223973Y0234201D01*
X0223973Y0235602D01*
X0224674Y0236302D01*
X0226075Y0236302D01*
X0226775Y0235602D01*
X0222172Y0237704D02*
X0221471Y0237704D01*
X0221471Y0233500D01*
X0222172Y0233500D02*
X0220770Y0233500D01*
X0219102Y0233500D02*
X0217701Y0233500D01*
X0218402Y0233500D02*
X0218402Y0237704D01*
X0219102Y0237704D01*
X0216033Y0235602D02*
X0216033Y0234201D01*
X0215332Y0233500D01*
X0213931Y0233500D01*
X0213231Y0234901D02*
X0216033Y0234901D01*
X0216033Y0235602D02*
X0215332Y0236302D01*
X0213931Y0236302D01*
X0213231Y0235602D01*
X0213231Y0234901D01*
X0211429Y0234901D02*
X0210028Y0236302D01*
X0209327Y0236302D01*
X0211429Y0236302D02*
X0211429Y0233500D01*
M02*
